<?xml version="1.0" encoding="UTF-8"?>
<svg id="Layer_2" data-name="Layer 2" xmlns="http://www.w3.org/2000/svg" viewBox="0 0 568.39 608.95">
  <defs>
    <style>
      .cls-1 {
        stroke-width: 0px;
      }
    </style>
  </defs>
  <g id="Layer_1-2" data-name="Layer 1">
    <g>
      <path class="cls-1" d="m80,162.45v-84.12h25.33v5.4h-19.95v11.09c.97-.58,2.04-.97,3.15-1.15,1.25-.21,2.51-.3,3.77-.28h8.02v5.46h-8.02c-1.23-.01-2.47.08-3.69.28-1.13.19-2.23.57-3.24,1.13v62.21h-5.37Z"/>
      <path class="cls-1" d="m129.56,125.67c-1.21,1.52-2.83,2.67-4.67,3.29-1.96.69-4.03,1.04-6.11,1.04h-18.54v-36.58h18.54c2.83-.13,5.6.82,7.77,2.64,1.02.92,1.81,2.06,2.34,3.33.52,1.27.75,2.64.68,4.01.03,1.48-.26,2.95-.84,4.3-.54,1.14-1.37,2.11-2.42,2.81,1.51.74,2.76,1.93,3.57,3.4,1.03,1.81,1.54,3.88,1.46,5.96.1,2.07-.53,4.11-1.77,5.77Zm-20.85-16.88c1.26-.2,2.53-.3,3.8-.28h6.27c1.45.1,2.88-.36,4-1.29.5-.49.89-1.07,1.13-1.73s.35-1.35.3-2.04c0-3.09-1.8-4.67-5.43-4.67h-13.25v11.25c.98-.6,2.06-1.02,3.18-1.24Zm10.61,15.84c1.08,0,2.14-.18,3.15-.56,1-.37,1.88-1,2.56-1.83.65-.79,1.01-1.79,1.01-2.81.07-.81-.09-1.63-.45-2.36-.36-.73-.92-1.35-1.61-1.78-1.6-.85-3.39-1.27-5.21-1.21h-6.27c-2.41-.09-4.81.43-6.98,1.49v9.2l13.79-.14Z"/>
      <path class="cls-1" d="m45.9,124.74h78.57c.56-1.01,6.05-1.01,5.46,0h11.09v-19.92h5.4v25.32H45.9v-5.4Z"/>
      <path class="cls-1" d="m61.06,162.45v-62.21c-1-.55-2.08-.93-3.21-1.13-1.23-.2-2.47-.29-3.71-.28h-7.99v-5.46h7.99c1.26-.02,2.52.08,3.77.28,1.11.18,2.18.57,3.15,1.15v-11.09h-19.92v-5.4h25.33v84.12h-5.4Z"/>
      <path class="cls-1" d="m15.08,119.99c-.06-2.08.44-4.15,1.46-5.96.83-1.47,2.09-2.66,3.6-3.4-1.06-.69-1.91-1.67-2.45-2.81-.58-1.36-.87-2.83-.84-4.3-.07-1.37.16-2.74.68-4.01.52-1.27,1.32-2.41,2.33-3.33,2.17-1.83,4.96-2.78,7.79-2.64h18.54v36.58h-18.63c-2.09,0-4.16-.35-6.13-1.04-1.84-.62-3.45-1.76-4.64-3.29-1.24-1.66-1.84-3.7-1.72-5.77Zm25.8-10.02v-11.25h-13.31c-3.66,0-5.46,1.58-5.46,4.67-.05.7.05,1.39.3,2.04s.63,1.24,1.13,1.73c1.13.92,2.57,1.38,4.02,1.29h6.28c1.26-.02,2.52.08,3.77.28,1.16.21,2.26.63,3.26,1.24Zm0,14.66v-9.2c-2.16-1.07-4.55-1.58-6.95-1.49h-6.36c-1.81-.06-3.61.36-5.21,1.21-.7.43-1.26,1.04-1.63,1.77-.37.73-.52,1.55-.45,2.36,0,1.03.36,2.02,1.01,2.81.68.82,1.56,1.46,2.56,1.83,1.01.38,2.08.57,3.15.56l13.87.14Z"/>
      <path class="cls-1" d="m100.54,130.09H.03v-25.32h5.37v19.92h11.09c-.56-1.01,4.9-1.01,5.46,0h78.6v5.4Z"/>
      <path class="cls-1" d="m66.44,111.32v84.1h-25.33v-5.4h19.92v-11.09c-.97.56-2.02.95-3.12,1.15-1.26.18-2.53.27-3.8.25h-7.99v-5.43h7.99c1.24,0,2.49-.1,3.71-.31,1.12-.19,2.21-.57,3.21-1.13v-62.21l5.4.06Z"/>
      <path class="cls-1" d="m16.91,148.1c1.23-1.51,2.84-2.64,4.67-3.29,1.96-.68,4.03-1.03,6.11-1.01h18.54v36.58h-18.66c-2.83.13-5.6-.82-7.77-2.64-1.02-.92-1.83-2.07-2.35-3.34-.53-1.28-.76-2.65-.68-4.03-.02-1.48.28-2.95.87-4.3.52-1.15,1.36-2.12,2.42-2.81-1.51-.76-2.75-1.96-3.57-3.43-1.03-1.81-1.53-3.86-1.46-5.94-.06-2.08.61-4.12,1.89-5.77Zm20.82,16.88c-1.25.21-2.51.32-3.77.31h-6.39c-1.44-.08-2.86.37-4,1.27-.5.48-.9,1.07-1.15,1.72-.25.65-.36,1.35-.31,2.05,0,3.12,1.83,4.67,5.46,4.67h13.25v-11.25c-.95.59-2,1.01-3.1,1.24Zm-10.58-15.84c-1.09,0-2.17.2-3.18.59-.99.36-1.87.98-2.53,1.8-.65.79-1.01,1.79-1.01,2.81-.08.81.07,1.63.43,2.36.36.73.92,1.35,1.62,1.77,1.6.86,3.39,1.28,5.21,1.21h6.28c2.41.09,4.81-.41,6.98-1.46v-9.23l-13.79.14Z"/>
      <path class="cls-1" d="m100.57,149.05H21.95c-.56,1.01-6.05,1.01-5.46,0H5.4v19.92H0v-25.32h100.52l.06,5.4Z"/>
      <path class="cls-1" d="m85.41,111.32v62.21c1,.55,2.08.93,3.21,1.13,1.23.21,2.47.31,3.71.31h7.99v5.43h-8.02c-1.26.01-2.52-.07-3.77-.25-1.11-.19-2.18-.59-3.15-1.15v11.09h19.92v5.34h-25.33v-84.15l5.43.06Z"/>
      <path class="cls-1" d="m131.39,153.81c.06,2.08-.46,4.13-1.49,5.94-.82,1.48-2.07,2.67-3.57,3.43,1.06.69,1.9,1.67,2.42,2.81.6,1.35.9,2.82.87,4.3.07,1.38-.16,2.75-.68,4.02-.52,1.27-1.32,2.42-2.33,3.35-2.18,1.81-4.96,2.75-7.79,2.64h-18.54v-36.58h18.54c2.08-.01,4.14.33,6.11,1.01,1.83.64,3.45,1.78,4.67,3.29,1.25,1.66,1.88,3.69,1.8,5.77Zm-25.83,9.99v11.25h13.25c3.63,0,5.46-1.55,5.46-4.67.05-.7-.05-1.4-.31-2.05-.25-.65-.65-1.24-1.16-1.72-1.13-.9-2.55-1.35-4-1.27h-6.28c-1.26,0-2.52-.1-3.77-.31-1.14-.22-2.22-.64-3.21-1.24Zm0-14.66v9.23c2.17,1.05,4.57,1.56,6.98,1.46h6.28c1.81.07,3.61-.34,5.21-1.21.7-.43,1.26-1.04,1.62-1.77.36-.73.51-1.55.43-2.36,0-1.03-.36-2.02-1.01-2.81-.67-.82-1.54-1.44-2.53-1.8-1.01-.39-2.09-.59-3.18-.59l-13.79-.14Z"/>
      <path class="cls-1" d="m45.92,143.68h100.52v25.32h-5.4v-19.92h-11.09c.59,1.01-4.9,1.01-5.43,0H45.92v-5.4Z"/>
      <path class="cls-1" d="m80,608.95v-84.12h25.33v5.4h-19.95v11.08c.97-.58,2.04-.97,3.15-1.15,1.25-.21,2.51-.3,3.77-.28h8.02v5.46h-8.02c-1.23-.01-2.47.08-3.69.28-1.13.19-2.23.57-3.24,1.13v62.21h-5.37Z"/>
      <path class="cls-1" d="m129.56,572.18c-1.21,1.52-2.83,2.66-4.67,3.29-1.96.69-4.03,1.04-6.11,1.04h-18.54v-36.58h18.54c2.83-.13,5.6.82,7.77,2.64,1.02.92,1.81,2.06,2.34,3.33.52,1.27.75,2.64.68,4.01.03,1.48-.26,2.95-.84,4.3-.54,1.14-1.37,2.11-2.42,2.81,1.51.74,2.76,1.93,3.57,3.4,1.03,1.81,1.54,3.88,1.46,5.96.1,2.07-.53,4.11-1.77,5.77Zm-20.85-16.88c1.26-.2,2.53-.3,3.8-.28h6.27c1.45.1,2.88-.36,4-1.29.5-.49.89-1.07,1.13-1.73s.35-1.35.3-2.04c0-3.09-1.8-4.67-5.43-4.67h-13.25v11.25c.98-.6,2.06-1.02,3.18-1.24Zm10.61,15.84c1.08,0,2.14-.18,3.15-.56,1-.37,1.88-1,2.56-1.83.65-.79,1.01-1.79,1.01-2.81.07-.81-.09-1.63-.45-2.36s-.92-1.35-1.61-1.78c-1.6-.85-3.39-1.27-5.21-1.21h-6.27c-2.41-.09-4.81.43-6.98,1.49v9.2l13.79-.14Z"/>
      <path class="cls-1" d="m45.9,571.25h78.57c.56-1.01,6.05-1.01,5.46,0h11.09v-19.92h5.4v25.32H45.9v-5.4Z"/>
      <path class="cls-1" d="m61.06,608.95v-62.21c-1-.55-2.08-.93-3.21-1.13-1.23-.2-2.47-.29-3.71-.28h-7.99v-5.46h7.99c1.26-.02,2.52.08,3.77.28,1.11.18,2.18.57,3.15,1.15v-11.08h-19.92v-5.4h25.33v84.12h-5.4Z"/>
      <path class="cls-1" d="m15.08,566.5c-.06-2.08.44-4.15,1.46-5.96.83-1.47,2.09-2.65,3.6-3.4-1.06-.69-1.91-1.67-2.45-2.81-.58-1.36-.87-2.83-.84-4.3-.07-1.37.16-2.74.68-4.01.52-1.27,1.32-2.41,2.33-3.33,2.17-1.83,4.96-2.78,7.79-2.64h18.54v36.58h-18.63c-2.09,0-4.16-.35-6.13-1.04-1.84-.62-3.45-1.77-4.64-3.29-1.24-1.66-1.84-3.7-1.72-5.77Zm25.8-10.02v-11.25h-13.31c-3.66,0-5.46,1.58-5.46,4.67-.05.69.05,1.39.3,2.04.25.65.63,1.24,1.13,1.73,1.13.92,2.57,1.38,4.02,1.29h6.28c1.26-.01,2.52.08,3.77.28,1.16.21,2.26.63,3.26,1.24Zm0,14.66v-9.2c-2.16-1.07-4.55-1.58-6.95-1.49h-6.36c-1.81-.06-3.61.36-5.21,1.21-.7.43-1.26,1.04-1.63,1.77-.37.73-.52,1.55-.45,2.36,0,1.03.36,2.02,1.01,2.81.68.82,1.56,1.46,2.56,1.83,1.01.38,2.08.57,3.15.56l13.87.14Z"/>
      <path class="cls-1" d="m100.54,576.6H.03v-25.32h5.37v19.92h11.09c-.56-1.01,4.9-1.01,5.46,0h78.6v5.4Z"/>
      <path class="cls-1" d="m220.52,162.45v-84.12h25.33v5.4h-19.95v11.09c.97-.58,2.04-.97,3.15-1.15,1.25-.21,2.51-.3,3.77-.28h8.02v5.46h-8.02c-1.23-.01-2.47.08-3.69.28-1.13.19-2.23.57-3.24,1.13v62.21h-5.38Z"/>
      <path class="cls-1" d="m270.07,125.67c-1.21,1.52-2.83,2.67-4.67,3.29-1.96.69-4.03,1.04-6.11,1.04h-18.54v-36.58h18.54c2.83-.13,5.6.82,7.77,2.64,1.02.92,1.81,2.06,2.33,3.33.52,1.27.75,2.64.68,4.01.03,1.48-.26,2.95-.84,4.3-.54,1.14-1.37,2.11-2.42,2.81,1.51.74,2.76,1.93,3.57,3.4,1.03,1.81,1.54,3.88,1.46,5.96.1,2.07-.53,4.11-1.77,5.77Zm-20.85-16.88c1.26-.2,2.53-.3,3.8-.28h6.28c1.45.1,2.88-.36,4-1.29.5-.49.89-1.07,1.14-1.73.25-.65.35-1.35.3-2.04,0-3.09-1.8-4.67-5.43-4.67h-13.25v11.25c.98-.6,2.06-1.02,3.18-1.24Zm10.61,15.84c1.08,0,2.15-.18,3.15-.56,1-.37,1.88-1,2.56-1.83.65-.79,1.01-1.79,1.01-2.81.07-.81-.09-1.63-.45-2.36-.36-.73-.92-1.35-1.61-1.78-1.6-.85-3.39-1.27-5.21-1.21h-6.28c-2.41-.09-4.81.43-6.98,1.49v9.2l13.79-.14Z"/>
      <path class="cls-1" d="m186.41,124.74h78.57c.56-1.01,6.05-1.01,5.46,0h11.09v-19.92h5.4v25.32h-100.52v-5.4Z"/>
      <path class="cls-1" d="m201.58,162.45v-62.21c-1-.55-2.08-.93-3.21-1.13-1.23-.2-2.47-.29-3.72-.28h-7.99v-5.46h7.99c1.26-.02,2.52.08,3.77.28,1.11.18,2.18.57,3.15,1.15v-11.09h-19.92v-5.4h25.33v84.12h-5.4Z"/>
      <path class="cls-1" d="m155.6,119.99c-.06-2.08.44-4.15,1.46-5.96.83-1.47,2.09-2.66,3.6-3.4-1.06-.69-1.91-1.67-2.45-2.81-.58-1.36-.87-2.83-.84-4.3-.07-1.37.16-2.74.68-4.01.52-1.27,1.31-2.41,2.33-3.33,2.17-1.83,4.96-2.78,7.79-2.64h18.54v36.58h-18.63c-2.09,0-4.16-.35-6.14-1.04-1.84-.62-3.45-1.76-4.64-3.29-1.24-1.66-1.84-3.7-1.72-5.77Zm25.8-10.02v-11.25h-13.31c-3.66,0-5.46,1.58-5.46,4.67-.05.7.05,1.39.3,2.04.25.65.63,1.24,1.13,1.73,1.13.92,2.57,1.38,4.02,1.29h6.27c1.26-.02,2.52.08,3.77.28,1.16.21,2.26.63,3.26,1.24Zm0,14.66v-9.2c-2.16-1.07-4.55-1.58-6.95-1.49h-6.36c-1.81-.06-3.61.36-5.21,1.21-.7.43-1.26,1.04-1.63,1.77-.37.73-.52,1.55-.45,2.36,0,1.03.36,2.02,1.01,2.81.68.82,1.56,1.46,2.56,1.83,1.01.38,2.07.57,3.15.56l13.87.14Z"/>
      <path class="cls-1" d="m241.06,130.09h-100.52v-25.32h5.38v19.92h11.09c-.56-1.01,4.9-1.01,5.46,0h78.6v5.4Z"/>
      <path class="cls-1" d="m206.96,111.32v84.1h-25.33v-5.4h19.92v-11.09c-.97.56-2.02.95-3.12,1.15-1.26.18-2.53.27-3.8.25h-7.99v-5.43h7.99c1.25,0,2.49-.1,3.71-.31,1.12-.19,2.21-.57,3.21-1.13v-62.21l5.4.06Z"/>
      <path class="cls-1" d="m157.43,148.1c1.23-1.51,2.84-2.64,4.67-3.29,1.96-.68,4.03-1.03,6.11-1.01h18.54v36.58h-18.66c-2.83.13-5.6-.82-7.77-2.64-1.02-.92-1.83-2.07-2.35-3.34-.53-1.28-.76-2.65-.68-4.03-.02-1.48.28-2.95.87-4.3.52-1.15,1.36-2.12,2.42-2.81-1.51-.76-2.75-1.96-3.57-3.43-1.03-1.81-1.53-3.86-1.46-5.94-.06-2.08.61-4.12,1.89-5.77Zm20.82,16.88c-1.25.21-2.51.32-3.77.31h-6.39c-1.44-.08-2.87.37-4,1.27-.51.48-.9,1.07-1.15,1.72-.25.65-.36,1.35-.31,2.05,0,3.12,1.83,4.67,5.46,4.67h13.25v-11.25c-.95.59-2,1.01-3.1,1.24Zm-10.58-15.84c-1.09,0-2.17.2-3.18.59-.99.36-1.87.98-2.53,1.8-.65.79-1.01,1.79-1.01,2.81-.08.81.07,1.63.43,2.36.36.73.92,1.35,1.62,1.77,1.6.86,3.39,1.28,5.21,1.21h6.27c2.41.09,4.81-.41,6.98-1.46v-9.23l-13.79.14Z"/>
      <path class="cls-1" d="m241.09,149.05h-78.62c-.56,1.01-6.05,1.01-5.46,0h-11.09v19.92h-5.4v-25.32h100.52l.06,5.4Z"/>
      <path class="cls-1" d="m225.92,111.32v62.21c1,.55,2.08.93,3.21,1.13,1.23.21,2.47.31,3.71.31h7.99v5.43h-8.02c-1.26.01-2.52-.07-3.77-.25-1.11-.19-2.18-.59-3.15-1.15v11.09h19.92v5.34h-25.33v-84.15l5.43.06Z"/>
      <path class="cls-1" d="m271.9,153.81c.06,2.08-.46,4.13-1.49,5.94-.82,1.48-2.07,2.67-3.57,3.43,1.06.69,1.9,1.67,2.42,2.81.6,1.35.9,2.82.87,4.3.07,1.38-.16,2.75-.68,4.02-.52,1.27-1.32,2.42-2.33,3.35-2.18,1.81-4.96,2.75-7.79,2.64h-18.54v-36.58h18.54c2.08-.01,4.14.33,6.11,1.01,1.83.64,3.45,1.78,4.67,3.29,1.25,1.66,1.88,3.69,1.8,5.77Zm-25.83,9.99v11.25h13.25c3.63,0,5.46-1.55,5.46-4.67.05-.7-.05-1.4-.3-2.05-.25-.65-.65-1.24-1.16-1.72-1.13-.9-2.55-1.35-4-1.27h-6.28c-1.26,0-2.53-.1-3.77-.31-1.14-.22-2.22-.64-3.21-1.24Zm0-14.66v9.23c2.17,1.05,4.57,1.56,6.98,1.46h6.28c1.81.07,3.61-.34,5.21-1.21.7-.43,1.26-1.04,1.62-1.77.36-.73.51-1.55.43-2.36,0-1.03-.36-2.02-1.01-2.81-.67-.82-1.54-1.44-2.53-1.8-1.01-.39-2.09-.59-3.18-.59l-13.79-.14Z"/>
      <path class="cls-1" d="m186.44,143.68h100.52v25.32h-5.4v-19.92h-11.09c.59,1.01-4.9,1.01-5.43,0h-78.6v-5.4Z"/>
      <path class="cls-1" d="m220.52,608.95v-84.12h25.33v5.4h-19.95v11.08c.97-.58,2.04-.97,3.15-1.15,1.25-.21,2.51-.3,3.77-.28h8.02v5.46h-8.02c-1.23-.01-2.47.08-3.69.28-1.13.19-2.23.57-3.24,1.13v62.21h-5.38Z"/>
      <path class="cls-1" d="m270.07,572.18c-1.21,1.52-2.83,2.66-4.67,3.29-1.96.69-4.03,1.04-6.11,1.04h-18.54v-36.58h18.54c2.83-.13,5.6.82,7.77,2.64,1.02.92,1.81,2.06,2.33,3.33.52,1.27.75,2.64.68,4.01.03,1.48-.26,2.95-.84,4.3-.54,1.14-1.37,2.11-2.42,2.81,1.51.74,2.76,1.93,3.57,3.4,1.03,1.81,1.54,3.88,1.46,5.96.1,2.07-.53,4.11-1.77,5.77Zm-20.85-16.88c1.26-.2,2.53-.3,3.8-.28h6.28c1.45.1,2.88-.36,4-1.29.5-.49.89-1.07,1.14-1.73.25-.65.35-1.35.3-2.04,0-3.09-1.8-4.67-5.43-4.67h-13.25v11.25c.98-.6,2.06-1.02,3.18-1.24Zm10.61,15.84c1.08,0,2.15-.18,3.15-.56,1-.37,1.88-1,2.56-1.83.65-.79,1.01-1.79,1.01-2.81.07-.81-.09-1.63-.45-2.36-.36-.73-.92-1.35-1.61-1.78-1.6-.85-3.39-1.27-5.21-1.21h-6.28c-2.41-.09-4.81.43-6.98,1.49v9.2l13.79-.14Z"/>
      <path class="cls-1" d="m186.41,571.25h78.57c.56-1.01,6.05-1.01,5.46,0h11.09v-19.92h5.4v25.32h-100.52v-5.4Z"/>
      <path class="cls-1" d="m201.58,608.95v-62.21c-1-.55-2.08-.93-3.21-1.13-1.23-.2-2.47-.29-3.72-.28h-7.99v-5.46h7.99c1.26-.02,2.52.08,3.77.28,1.11.18,2.18.57,3.15,1.15v-11.08h-19.92v-5.4h25.33v84.12h-5.4Z"/>
      <path class="cls-1" d="m155.6,566.5c-.06-2.08.44-4.15,1.46-5.96.83-1.47,2.09-2.65,3.6-3.4-1.06-.69-1.91-1.67-2.45-2.81-.58-1.36-.87-2.83-.84-4.3-.07-1.37.16-2.74.68-4.01s1.31-2.41,2.33-3.33c2.17-1.83,4.96-2.78,7.79-2.64h18.54v36.58h-18.63c-2.09,0-4.16-.35-6.14-1.04-1.84-.62-3.45-1.77-4.64-3.29-1.24-1.66-1.84-3.7-1.72-5.77Zm25.8-10.02v-11.25h-13.31c-3.66,0-5.46,1.58-5.46,4.67-.05.69.05,1.39.3,2.04.25.65.63,1.24,1.13,1.73,1.13.92,2.57,1.38,4.02,1.29h6.27c1.26-.01,2.52.08,3.77.28,1.16.21,2.26.63,3.26,1.24Zm0,14.66v-9.2c-2.16-1.07-4.55-1.58-6.95-1.49h-6.36c-1.81-.06-3.61.36-5.21,1.21-.7.43-1.26,1.04-1.63,1.77-.37.73-.52,1.55-.45,2.36,0,1.03.36,2.02,1.01,2.81.68.82,1.56,1.46,2.56,1.83,1.01.38,2.07.57,3.15.56l13.87.14Z"/>
      <path class="cls-1" d="m241.06,576.6h-100.52v-25.32h5.38v19.92h11.09c-.56-1.01,4.9-1.01,5.46,0h78.6v5.4Z"/>
      <path class="cls-1" d="m80,274.37v-84.12h25.33v5.4h-19.95v11.09c.97-.58,2.04-.97,3.15-1.15,1.25-.21,2.51-.3,3.77-.28h8.02v5.46h-8.02c-1.23-.01-2.47.08-3.69.28-1.13.19-2.23.57-3.24,1.12v62.21h-5.37Z"/>
      <path class="cls-1" d="m129.56,237.6c-1.21,1.52-2.83,2.67-4.67,3.29-1.96.69-4.03,1.04-6.11,1.04h-18.54v-36.58h18.54c2.83-.13,5.6.82,7.77,2.64,1.02.92,1.81,2.06,2.34,3.33.52,1.27.75,2.64.68,4.01.03,1.48-.26,2.95-.84,4.3-.54,1.14-1.37,2.11-2.42,2.81,1.51.74,2.76,1.93,3.57,3.4,1.03,1.81,1.54,3.88,1.46,5.96.1,2.07-.53,4.11-1.77,5.77Zm-20.85-16.88c1.26-.2,2.53-.3,3.8-.28h6.27c1.45.1,2.88-.36,4-1.29.5-.49.89-1.07,1.13-1.73.25-.65.35-1.35.3-2.04,0-3.09-1.8-4.67-5.43-4.67h-13.25v11.25c.98-.6,2.06-1.02,3.18-1.24Zm10.61,15.84c1.08,0,2.14-.18,3.15-.56,1-.37,1.88-1,2.56-1.83.65-.79,1.01-1.79,1.01-2.81.07-.81-.09-1.63-.45-2.35-.36-.73-.92-1.35-1.61-1.78-1.6-.85-3.39-1.27-5.21-1.21h-6.27c-2.41-.08-4.81.43-6.98,1.49v9.2l13.79-.14Z"/>
      <path class="cls-1" d="m45.9,236.67h78.57c.56-1.01,6.05-1.01,5.46,0h11.09v-19.92h5.4v25.32H45.9v-5.4Z"/>
      <path class="cls-1" d="m61.06,274.37v-62.21c-1-.55-2.08-.93-3.21-1.12-1.23-.2-2.47-.29-3.71-.28h-7.99v-5.46h7.99c1.26-.02,2.52.08,3.77.28,1.11.18,2.18.57,3.15,1.15v-11.09h-19.92v-5.4h25.33v84.12h-5.4Z"/>
      <path class="cls-1" d="m15.08,231.92c-.06-2.08.44-4.15,1.46-5.96.83-1.47,2.09-2.66,3.6-3.4-1.06-.69-1.91-1.67-2.45-2.81-.58-1.36-.87-2.83-.84-4.3-.07-1.37.16-2.74.68-4.01.52-1.27,1.32-2.41,2.33-3.34,2.17-1.83,4.96-2.78,7.79-2.64h18.54v36.58h-18.63c-2.09,0-4.16-.35-6.13-1.04-1.84-.62-3.45-1.77-4.64-3.29-1.24-1.66-1.84-3.7-1.72-5.77Zm25.8-10.02v-11.25h-13.31c-3.66,0-5.46,1.58-5.46,4.67-.05.7.05,1.39.3,2.04s.63,1.24,1.13,1.73c1.13.92,2.57,1.38,4.02,1.29h6.28c1.26-.02,2.52.08,3.77.28,1.16.21,2.26.63,3.26,1.24Zm0,14.66v-9.2c-2.16-1.07-4.55-1.58-6.95-1.49h-6.36c-1.81-.06-3.61.36-5.21,1.21-.7.43-1.26,1.04-1.63,1.77-.37.73-.52,1.55-.45,2.37,0,1.03.36,2.02,1.01,2.81.68.83,1.56,1.46,2.56,1.83,1.01.38,2.08.57,3.15.56l13.87.14Z"/>
      <path class="cls-1" d="m100.54,242.02H.03v-25.32h5.37v19.92h11.09c-.56-1.01,4.9-1.01,5.46,0h78.6v5.4Z"/>
      <path class="cls-1" d="m66.44,223.25v84.1h-25.33v-5.4h19.92v-11.09c-.97.56-2.02.96-3.12,1.15-1.26.18-2.53.27-3.8.25h-7.99v-5.43h7.99c1.24,0,2.49-.1,3.71-.31,1.12-.19,2.21-.57,3.21-1.13v-62.21l5.4.06Z"/>
      <path class="cls-1" d="m16.91,260.02c1.23-1.51,2.84-2.64,4.67-3.29,1.96-.68,4.03-1.03,6.11-1.01h18.54v36.58h-18.66c-2.83.13-5.6-.82-7.77-2.64-1.02-.92-1.83-2.07-2.35-3.34-.53-1.27-.76-2.65-.68-4.03-.02-1.48.28-2.95.87-4.3.52-1.15,1.36-2.12,2.42-2.81-1.51-.76-2.75-1.96-3.57-3.43-1.03-1.81-1.53-3.86-1.46-5.94-.06-2.08.61-4.12,1.89-5.77Zm20.82,16.88c-1.25.21-2.51.32-3.77.31h-6.39c-1.44-.08-2.86.37-4,1.27-.5.48-.9,1.07-1.15,1.72-.25.65-.36,1.35-.31,2.05,0,3.12,1.83,4.67,5.46,4.67h13.25v-11.25c-.95.59-2,1.01-3.1,1.24Zm-10.58-15.84c-1.09,0-2.17.2-3.18.59-.99.36-1.87.98-2.53,1.8-.65.79-1.01,1.79-1.01,2.81-.08.81.07,1.63.43,2.36.36.73.92,1.35,1.62,1.77,1.6.86,3.39,1.28,5.21,1.21h6.28c2.41.09,4.81-.41,6.98-1.46v-9.23l-13.79.14Z"/>
      <path class="cls-1" d="m100.57,260.98H21.95c-.56,1.01-6.05,1.01-5.46,0H5.4v19.92H0v-25.32h100.52l.06,5.4Z"/>
      <path class="cls-1" d="m85.41,223.25v62.21c1,.55,2.08.93,3.21,1.13,1.23.21,2.47.31,3.71.31h7.99v5.43h-8.02c-1.26.01-2.52-.07-3.77-.25-1.11-.19-2.18-.59-3.15-1.15v11.09h19.92v5.35h-25.33v-84.15l5.43.06Z"/>
      <path class="cls-1" d="m131.39,265.74c.06,2.08-.46,4.13-1.49,5.94-.82,1.48-2.07,2.67-3.57,3.43,1.06.69,1.9,1.67,2.42,2.81.6,1.35.9,2.82.87,4.3.07,1.38-.16,2.75-.68,4.02-.52,1.27-1.32,2.42-2.33,3.35-2.18,1.81-4.96,2.75-7.79,2.64h-18.54v-36.58h18.54c2.08-.01,4.14.33,6.11,1.01,1.83.64,3.45,1.78,4.67,3.29,1.25,1.66,1.88,3.69,1.8,5.77Zm-25.83,9.99v11.25h13.25c3.63,0,5.46-1.55,5.46-4.67.05-.7-.05-1.4-.31-2.05-.25-.65-.65-1.24-1.16-1.72-1.13-.9-2.55-1.35-4-1.27h-6.28c-1.26,0-2.52-.1-3.77-.31-1.14-.22-2.22-.64-3.21-1.24Zm0-14.66v9.23c2.17,1.05,4.57,1.56,6.98,1.46h6.28c1.81.07,3.61-.34,5.21-1.21.7-.43,1.26-1.04,1.62-1.77.36-.73.51-1.55.43-2.36,0-1.03-.36-2.02-1.01-2.81-.67-.82-1.54-1.44-2.53-1.8-1.01-.39-2.09-.59-3.18-.59l-13.79-.14Z"/>
      <path class="cls-1" d="m45.92,255.61h100.52v25.32h-5.4v-19.92h-11.09c.59,1.01-4.9,1.01-5.43,0H45.92v-5.4Z"/>
      <path class="cls-1" d="m220.52,274.37v-84.12h25.33v5.4h-19.95v11.09c.97-.58,2.04-.97,3.15-1.15,1.25-.21,2.51-.3,3.77-.28h8.02v5.46h-8.02c-1.23-.01-2.47.08-3.69.28-1.13.19-2.23.57-3.24,1.12v62.21h-5.38Z"/>
      <path class="cls-1" d="m270.07,237.6c-1.21,1.52-2.83,2.67-4.67,3.29-1.96.69-4.03,1.04-6.11,1.04h-18.54v-36.58h18.54c2.83-.13,5.6.82,7.77,2.64,1.02.92,1.81,2.06,2.33,3.33.52,1.27.75,2.64.68,4.01.03,1.48-.26,2.95-.84,4.3-.54,1.14-1.37,2.11-2.42,2.81,1.51.74,2.76,1.93,3.57,3.4,1.03,1.81,1.54,3.88,1.46,5.96.1,2.07-.53,4.11-1.77,5.77Zm-20.85-16.88c1.26-.2,2.53-.3,3.8-.28h6.28c1.45.1,2.88-.36,4-1.29.5-.49.89-1.07,1.14-1.73.25-.65.35-1.35.3-2.04,0-3.09-1.8-4.67-5.43-4.67h-13.25v11.25c.98-.6,2.06-1.02,3.18-1.24Zm10.61,15.84c1.08,0,2.15-.18,3.15-.56,1-.37,1.88-1,2.56-1.83.65-.79,1.01-1.79,1.01-2.81.07-.81-.09-1.63-.45-2.35-.36-.73-.92-1.35-1.61-1.78-1.6-.85-3.39-1.27-5.21-1.21h-6.28c-2.41-.08-4.81.43-6.98,1.49v9.2l13.79-.14Z"/>
      <path class="cls-1" d="m186.41,236.67h78.57c.56-1.01,6.05-1.01,5.46,0h11.09v-19.92h5.4v25.32h-100.52v-5.4Z"/>
      <path class="cls-1" d="m201.58,274.37v-62.21c-1-.55-2.08-.93-3.21-1.12-1.23-.2-2.47-.29-3.72-.28h-7.99v-5.46h7.99c1.26-.02,2.52.08,3.77.28,1.11.18,2.18.57,3.15,1.15v-11.09h-19.92v-5.4h25.33v84.12h-5.4Z"/>
      <path class="cls-1" d="m155.6,231.92c-.06-2.08.44-4.15,1.46-5.96.83-1.47,2.09-2.66,3.6-3.4-1.06-.69-1.91-1.67-2.45-2.81-.58-1.36-.87-2.83-.84-4.3-.07-1.37.16-2.74.68-4.01.52-1.27,1.31-2.41,2.33-3.34,2.17-1.83,4.96-2.78,7.79-2.64h18.54v36.58h-18.63c-2.09,0-4.16-.35-6.14-1.04-1.84-.62-3.45-1.77-4.64-3.29-1.24-1.66-1.84-3.7-1.72-5.77Zm25.8-10.02v-11.25h-13.31c-3.66,0-5.46,1.58-5.46,4.67-.05.7.05,1.39.3,2.04.25.65.63,1.24,1.13,1.73,1.13.92,2.57,1.38,4.02,1.29h6.27c1.26-.02,2.52.08,3.77.28,1.16.21,2.26.63,3.26,1.24Zm0,14.66v-9.2c-2.16-1.07-4.55-1.58-6.95-1.49h-6.36c-1.81-.06-3.61.36-5.21,1.21-.7.43-1.26,1.04-1.63,1.77-.37.73-.52,1.55-.45,2.37,0,1.03.36,2.02,1.01,2.81.68.83,1.56,1.46,2.56,1.83,1.01.38,2.07.57,3.15.56l13.87.14Z"/>
      <path class="cls-1" d="m241.06,242.02h-100.52v-25.32h5.38v19.92h11.09c-.56-1.01,4.9-1.01,5.46,0h78.6v5.4Z"/>
      <path class="cls-1" d="m206.96,223.25v84.1h-25.33v-5.4h19.92v-11.09c-.97.56-2.02.96-3.12,1.15-1.26.18-2.53.27-3.8.25h-7.99v-5.43h7.99c1.25,0,2.49-.1,3.71-.31,1.12-.19,2.21-.57,3.21-1.13v-62.21l5.4.06Z"/>
      <path class="cls-1" d="m157.43,260.02c1.23-1.51,2.84-2.64,4.67-3.29,1.96-.68,4.03-1.03,6.11-1.01h18.54v36.58h-18.66c-2.83.13-5.6-.82-7.77-2.64-1.02-.92-1.83-2.07-2.35-3.34-.53-1.27-.76-2.65-.68-4.03-.02-1.48.28-2.95.87-4.3.52-1.15,1.36-2.12,2.42-2.81-1.51-.76-2.75-1.96-3.57-3.43-1.03-1.81-1.53-3.86-1.46-5.94-.06-2.08.61-4.12,1.89-5.77Zm20.82,16.88c-1.25.21-2.51.32-3.77.31h-6.39c-1.44-.08-2.87.37-4,1.27-.51.48-.9,1.07-1.15,1.72-.25.65-.36,1.35-.31,2.05,0,3.12,1.83,4.67,5.46,4.67h13.25v-11.25c-.95.59-2,1.01-3.1,1.24Zm-10.58-15.84c-1.09,0-2.17.2-3.18.59-.99.36-1.87.98-2.53,1.8-.65.79-1.01,1.79-1.01,2.81-.08.81.07,1.63.43,2.36.36.73.92,1.35,1.62,1.77,1.6.86,3.39,1.28,5.21,1.21h6.27c2.41.09,4.81-.41,6.98-1.46v-9.23l-13.79.14Z"/>
      <path class="cls-1" d="m241.09,260.98h-78.62c-.56,1.01-6.05,1.01-5.46,0h-11.09v19.92h-5.4v-25.32h100.52l.06,5.4Z"/>
      <path class="cls-1" d="m225.92,223.25v62.21c1,.55,2.08.93,3.21,1.13,1.23.21,2.47.31,3.71.31h7.99v5.43h-8.02c-1.26.01-2.52-.07-3.77-.25-1.11-.19-2.18-.59-3.15-1.15v11.09h19.92v5.35h-25.33v-84.15l5.43.06Z"/>
      <path class="cls-1" d="m271.9,265.74c.06,2.08-.46,4.13-1.49,5.94-.82,1.48-2.07,2.67-3.57,3.43,1.06.69,1.9,1.67,2.42,2.81.6,1.35.9,2.82.87,4.3.07,1.38-.16,2.75-.68,4.02-.52,1.27-1.32,2.42-2.33,3.35-2.18,1.81-4.96,2.75-7.79,2.64h-18.54v-36.58h18.54c2.08-.01,4.14.33,6.11,1.01,1.83.64,3.45,1.78,4.67,3.29,1.25,1.66,1.88,3.69,1.8,5.77Zm-25.83,9.99v11.25h13.25c3.63,0,5.46-1.55,5.46-4.67.05-.7-.05-1.4-.3-2.05-.25-.65-.65-1.24-1.16-1.72-1.13-.9-2.55-1.35-4-1.27h-6.28c-1.26,0-2.53-.1-3.77-.31-1.14-.22-2.22-.64-3.21-1.24Zm0-14.66v9.23c2.17,1.05,4.57,1.56,6.98,1.46h6.28c1.81.07,3.61-.34,5.21-1.21.7-.43,1.26-1.04,1.62-1.77.36-.73.51-1.55.43-2.36,0-1.03-.36-2.02-1.01-2.81-.67-.82-1.54-1.44-2.53-1.8-1.01-.39-2.09-.59-3.18-.59l-13.79-.14Z"/>
      <path class="cls-1" d="m186.44,255.61h100.52v25.32h-5.4v-19.92h-11.09c.59,1.01-4.9,1.01-5.43,0h-78.6v-5.4Z"/>
      <path class="cls-1" d="m80,385.76v-84.12h25.33v5.4h-19.95v11.08c.97-.58,2.04-.97,3.15-1.15,1.25-.21,2.51-.3,3.77-.28h8.02v5.46h-8.02c-1.23-.01-2.47.08-3.69.28-1.13.19-2.23.57-3.24,1.13v62.21h-5.37Z"/>
      <path class="cls-1" d="m129.56,348.99c-1.21,1.52-2.83,2.66-4.67,3.29-1.96.69-4.03,1.04-6.11,1.04h-18.54v-36.58h18.54c2.83-.13,5.6.82,7.77,2.64,1.02.92,1.81,2.06,2.34,3.33.52,1.27.75,2.64.68,4.01.03,1.48-.26,2.95-.84,4.3-.54,1.14-1.37,2.11-2.42,2.81,1.51.74,2.76,1.93,3.57,3.4,1.03,1.81,1.54,3.88,1.46,5.96.1,2.07-.53,4.11-1.77,5.77Zm-20.85-16.88c1.26-.2,2.53-.3,3.8-.28h6.27c1.45.1,2.88-.36,4-1.29.5-.49.89-1.07,1.13-1.73.25-.65.35-1.35.3-2.04,0-3.09-1.8-4.67-5.43-4.67h-13.25v11.25c.98-.6,2.06-1.02,3.18-1.24Zm10.61,15.84c1.08,0,2.14-.18,3.15-.56,1-.37,1.88-1,2.56-1.83.65-.79,1.01-1.79,1.01-2.81.07-.81-.09-1.63-.45-2.36s-.92-1.35-1.61-1.78c-1.6-.85-3.39-1.27-5.21-1.21h-6.27c-2.41-.09-4.81.43-6.98,1.49v9.2l13.79-.14Z"/>
      <path class="cls-1" d="m45.9,348.06h78.57c.56-1.01,6.05-1.01,5.46,0h11.09v-19.92h5.4v25.32H45.9v-5.4Z"/>
      <path class="cls-1" d="m61.06,385.76v-62.21c-1-.55-2.08-.93-3.21-1.13-1.23-.2-2.47-.29-3.71-.28h-7.99v-5.46h7.99c1.26-.02,2.52.08,3.77.28,1.11.18,2.18.57,3.15,1.15v-11.08h-19.92v-5.4h25.33v84.12h-5.4Z"/>
      <path class="cls-1" d="m15.08,343.3c-.06-2.08.44-4.15,1.46-5.96.83-1.47,2.09-2.65,3.6-3.4-1.06-.69-1.91-1.67-2.45-2.81-.58-1.36-.87-2.83-.84-4.3-.07-1.37.16-2.74.68-4.01.52-1.27,1.32-2.41,2.33-3.33,2.17-1.83,4.96-2.78,7.79-2.64h18.54v36.58h-18.63c-2.09,0-4.16-.35-6.13-1.04-1.84-.62-3.45-1.77-4.64-3.29-1.24-1.66-1.84-3.7-1.72-5.77Zm25.8-10.02v-11.25h-13.31c-3.66,0-5.46,1.58-5.46,4.67-.05.69.05,1.39.3,2.04.25.65.63,1.24,1.13,1.73,1.13.92,2.57,1.38,4.02,1.29h6.28c1.26-.01,2.52.08,3.77.28,1.16.21,2.26.63,3.26,1.24Zm0,14.66v-9.2c-2.16-1.07-4.55-1.58-6.95-1.49h-6.36c-1.81-.06-3.61.36-5.21,1.21-.7.43-1.26,1.04-1.63,1.77-.37.73-.52,1.55-.45,2.36,0,1.03.36,2.02,1.01,2.81.68.82,1.56,1.46,2.56,1.83,1.01.38,2.08.57,3.15.56l13.87.14Z"/>
      <path class="cls-1" d="m100.54,353.4H.03v-25.32h5.37v19.92h11.09c-.56-1.01,4.9-1.01,5.46,0h78.6v5.4Z"/>
      <path class="cls-1" d="m66.44,334.64v84.1h-25.33v-5.4h19.92v-11.09c-.97.56-2.02.95-3.12,1.15-1.26.18-2.53.27-3.8.25h-7.99v-5.43h7.99c1.24,0,2.49-.1,3.71-.31,1.12-.19,2.21-.57,3.21-1.13v-62.21l5.4.06Z"/>
      <path class="cls-1" d="m16.91,371.41c1.23-1.51,2.84-2.64,4.67-3.29,1.96-.68,4.03-1.03,6.11-1.01h18.54v36.58h-18.66c-2.83.13-5.6-.82-7.77-2.64-1.02-.92-1.83-2.07-2.35-3.34-.53-1.28-.76-2.65-.68-4.03-.02-1.48.28-2.95.87-4.3.52-1.15,1.36-2.12,2.42-2.81-1.51-.76-2.75-1.96-3.57-3.43-1.03-1.81-1.53-3.86-1.46-5.94-.06-2.08.61-4.12,1.89-5.77Zm20.82,16.88c-1.25.21-2.51.32-3.77.31h-6.39c-1.44-.08-2.86.37-4,1.27-.5.48-.9,1.07-1.15,1.72-.25.65-.36,1.35-.31,2.05,0,3.12,1.83,4.67,5.46,4.67h13.25v-11.25c-.95.59-2,1.01-3.1,1.24Zm-10.58-15.84c-1.09,0-2.17.2-3.18.59-.99.36-1.87.98-2.53,1.8-.65.79-1.01,1.79-1.01,2.81-.08.81.07,1.63.43,2.36.36.73.92,1.35,1.62,1.77,1.6.86,3.39,1.28,5.21,1.21h6.28c2.41.09,4.81-.41,6.98-1.46v-9.23l-13.79.14Z"/>
      <path class="cls-1" d="m100.57,372.37H21.95c-.56,1.01-6.05,1.01-5.46,0H5.4v19.92H0v-25.32h100.52l.06,5.4Z"/>
      <path class="cls-1" d="m85.41,334.64v62.21c1,.55,2.08.93,3.21,1.13,1.23.21,2.47.31,3.71.31h7.99v5.43h-8.02c-1.26.01-2.52-.07-3.77-.25-1.11-.19-2.18-.59-3.15-1.15v11.09h19.92v5.35h-25.33v-84.15l5.43.06Z"/>
      <path class="cls-1" d="m131.39,377.12c.06,2.08-.46,4.13-1.49,5.94-.82,1.48-2.07,2.67-3.57,3.43,1.06.69,1.9,1.67,2.42,2.81.6,1.35.9,2.82.87,4.3.07,1.37-.16,2.75-.68,4.02-.52,1.27-1.32,2.42-2.33,3.35-2.18,1.81-4.96,2.75-7.79,2.64h-18.54v-36.58h18.54c2.08-.01,4.14.33,6.11,1.01,1.83.64,3.45,1.78,4.67,3.29,1.25,1.66,1.88,3.7,1.8,5.77Zm-25.83,9.99v11.25h13.25c3.63,0,5.46-1.55,5.46-4.67.05-.7-.05-1.4-.31-2.05-.25-.65-.65-1.24-1.16-1.72-1.13-.9-2.55-1.35-4-1.27h-6.28c-1.26,0-2.52-.1-3.77-.31-1.14-.22-2.22-.64-3.21-1.24Zm0-14.66v9.23c2.17,1.05,4.57,1.56,6.98,1.46h6.28c1.81.07,3.61-.34,5.21-1.21.7-.43,1.26-1.04,1.62-1.77.36-.73.51-1.55.43-2.36,0-1.03-.36-2.02-1.01-2.81-.67-.82-1.54-1.44-2.53-1.8-1.01-.39-2.09-.59-3.18-.59l-13.79-.14Z"/>
      <path class="cls-1" d="m45.92,366.99h100.52v25.32h-5.4v-19.92h-11.09c.59,1.01-4.9,1.01-5.43,0H45.92v-5.4Z"/>
      <path class="cls-1" d="m220.52,385.76v-84.12h25.33v5.4h-19.95v11.08c.97-.58,2.04-.97,3.15-1.15,1.25-.21,2.51-.3,3.77-.28h8.02v5.46h-8.02c-1.23-.01-2.47.08-3.69.28-1.13.19-2.23.57-3.24,1.13v62.21h-5.38Z"/>
      <path class="cls-1" d="m270.07,348.99c-1.21,1.52-2.83,2.66-4.67,3.29-1.96.69-4.03,1.04-6.11,1.04h-18.54v-36.58h18.54c2.83-.13,5.6.82,7.77,2.64,1.02.92,1.81,2.06,2.33,3.33.52,1.27.75,2.64.68,4.01.03,1.48-.26,2.95-.84,4.3-.54,1.14-1.37,2.11-2.42,2.81,1.51.74,2.76,1.93,3.57,3.4,1.03,1.81,1.54,3.88,1.46,5.96.1,2.07-.53,4.11-1.77,5.77Zm-20.85-16.88c1.26-.2,2.53-.3,3.8-.28h6.28c1.45.1,2.88-.36,4-1.29.5-.49.89-1.07,1.14-1.73.25-.65.35-1.35.3-2.04,0-3.09-1.8-4.67-5.43-4.67h-13.25v11.25c.98-.6,2.06-1.02,3.18-1.24Zm10.61,15.84c1.08,0,2.15-.18,3.15-.56,1-.37,1.88-1,2.56-1.83.65-.79,1.01-1.79,1.01-2.81.07-.81-.09-1.63-.45-2.36-.36-.73-.92-1.35-1.61-1.78-1.6-.85-3.39-1.27-5.21-1.21h-6.28c-2.41-.09-4.81.43-6.98,1.49v9.2l13.79-.14Z"/>
      <path class="cls-1" d="m186.41,348.06h78.57c.56-1.01,6.05-1.01,5.46,0h11.09v-19.92h5.4v25.32h-100.52v-5.4Z"/>
      <path class="cls-1" d="m201.58,385.76v-62.21c-1-.55-2.08-.93-3.21-1.13-1.23-.2-2.47-.29-3.72-.28h-7.99v-5.46h7.99c1.26-.02,2.52.08,3.77.28,1.11.18,2.18.57,3.15,1.15v-11.08h-19.92v-5.4h25.33v84.12h-5.4Z"/>
      <path class="cls-1" d="m155.6,343.3c-.06-2.08.44-4.15,1.46-5.96.83-1.47,2.09-2.65,3.6-3.4-1.06-.69-1.91-1.67-2.45-2.81-.58-1.36-.87-2.83-.84-4.3-.07-1.37.16-2.74.68-4.01.52-1.27,1.31-2.41,2.33-3.33,2.17-1.83,4.96-2.78,7.79-2.64h18.54v36.58h-18.63c-2.09,0-4.16-.35-6.14-1.04-1.84-.62-3.45-1.77-4.64-3.29-1.24-1.66-1.84-3.7-1.72-5.77Zm25.8-10.02v-11.25h-13.31c-3.66,0-5.46,1.58-5.46,4.67-.05.69.05,1.39.3,2.04.25.65.63,1.24,1.13,1.73,1.13.92,2.57,1.38,4.02,1.29h6.27c1.26-.01,2.52.08,3.77.28,1.16.21,2.26.63,3.26,1.24Zm0,14.66v-9.2c-2.16-1.07-4.55-1.58-6.95-1.49h-6.36c-1.81-.06-3.61.36-5.21,1.21-.7.43-1.26,1.04-1.63,1.77-.37.73-.52,1.55-.45,2.36,0,1.03.36,2.02,1.01,2.81.68.82,1.56,1.46,2.56,1.83,1.01.38,2.07.57,3.15.56l13.87.14Z"/>
      <path class="cls-1" d="m241.06,353.4h-100.52v-25.32h5.38v19.92h11.09c-.56-1.01,4.9-1.01,5.46,0h78.6v5.4Z"/>
      <path class="cls-1" d="m206.96,334.64v84.1h-25.33v-5.4h19.92v-11.09c-.97.56-2.02.95-3.12,1.15-1.26.18-2.53.27-3.8.25h-7.99v-5.43h7.99c1.25,0,2.49-.1,3.71-.31,1.12-.19,2.21-.57,3.21-1.13v-62.21l5.4.06Z"/>
      <path class="cls-1" d="m157.43,371.41c1.23-1.51,2.84-2.64,4.67-3.29,1.96-.68,4.03-1.03,6.11-1.01h18.54v36.58h-18.66c-2.83.13-5.6-.82-7.77-2.64-1.02-.92-1.83-2.07-2.35-3.34-.53-1.28-.76-2.65-.68-4.03-.02-1.48.28-2.95.87-4.3.52-1.15,1.36-2.12,2.42-2.81-1.51-.76-2.75-1.96-3.57-3.43-1.03-1.81-1.53-3.86-1.46-5.94-.06-2.08.61-4.12,1.89-5.77Zm20.82,16.88c-1.25.21-2.51.32-3.77.31h-6.39c-1.44-.08-2.87.37-4,1.27-.51.48-.9,1.07-1.15,1.72-.25.65-.36,1.35-.31,2.05,0,3.12,1.83,4.67,5.46,4.67h13.25v-11.25c-.95.59-2,1.01-3.1,1.24Zm-10.58-15.84c-1.09,0-2.17.2-3.18.59-.99.36-1.87.98-2.53,1.8-.65.79-1.01,1.79-1.01,2.81-.08.81.07,1.63.43,2.36.36.73.92,1.35,1.62,1.77,1.6.86,3.39,1.28,5.21,1.21h6.27c2.41.09,4.81-.41,6.98-1.46v-9.23l-13.79.14Z"/>
      <path class="cls-1" d="m241.09,372.37h-78.62c-.56,1.01-6.05,1.01-5.46,0h-11.09v19.92h-5.4v-25.32h100.52l.06,5.4Z"/>
      <path class="cls-1" d="m225.92,334.64v62.21c1,.55,2.08.93,3.21,1.13,1.23.21,2.47.31,3.71.31h7.99v5.43h-8.02c-1.26.01-2.52-.07-3.77-.25-1.11-.19-2.18-.59-3.15-1.15v11.09h19.92v5.35h-25.33v-84.15l5.43.06Z"/>
      <path class="cls-1" d="m271.9,377.12c.06,2.08-.46,4.13-1.49,5.94-.82,1.48-2.07,2.67-3.57,3.43,1.06.69,1.9,1.67,2.42,2.81.6,1.35.9,2.82.87,4.3.07,1.37-.16,2.75-.68,4.02-.52,1.27-1.32,2.42-2.33,3.35-2.18,1.81-4.96,2.75-7.79,2.64h-18.54v-36.58h18.54c2.08-.01,4.14.33,6.11,1.01,1.83.64,3.45,1.78,4.67,3.29,1.25,1.66,1.88,3.7,1.8,5.77Zm-25.83,9.99v11.25h13.25c3.63,0,5.46-1.55,5.46-4.67.05-.7-.05-1.4-.3-2.05-.25-.65-.65-1.24-1.16-1.72-1.13-.9-2.55-1.35-4-1.27h-6.28c-1.26,0-2.53-.1-3.77-.31-1.14-.22-2.22-.64-3.21-1.24Zm0-14.66v9.23c2.17,1.05,4.57,1.56,6.98,1.46h6.28c1.81.07,3.61-.34,5.21-1.21.7-.43,1.26-1.04,1.62-1.77.36-.73.51-1.55.43-2.36,0-1.03-.36-2.02-1.01-2.81-.67-.82-1.54-1.44-2.53-1.8-1.01-.39-2.09-.59-3.18-.59l-13.79-.14Z"/>
      <path class="cls-1" d="m186.44,366.99h100.52v25.32h-5.4v-19.92h-11.09c.59,1.01-4.9,1.01-5.43,0h-78.6v-5.4Z"/>
      <path class="cls-1" d="m66.44.06v84.1h-25.33v-5.4h19.92v-11.09c-.97.56-2.02.95-3.12,1.15-1.26.18-2.53.27-3.8.25h-7.99v-5.43h7.99c1.24,0,2.49-.1,3.71-.31,1.12-.19,2.21-.57,3.21-1.13V0l5.4.06Z"/>
      <path class="cls-1" d="m16.91,36.83c1.23-1.5,2.84-2.64,4.67-3.29,1.96-.68,4.03-1.03,6.11-1.01h18.54v36.58h-18.66c-2.83.13-5.6-.82-7.77-2.64-1.02-.92-1.83-2.07-2.35-3.34-.53-1.28-.76-2.65-.68-4.03-.02-1.48.28-2.95.87-4.3.52-1.15,1.36-2.12,2.42-2.81-1.51-.76-2.75-1.96-3.57-3.43-1.03-1.81-1.53-3.86-1.46-5.94-.06-2.08.61-4.12,1.89-5.77Zm20.82,16.88c-1.25.21-2.51.32-3.77.31h-6.39c-1.44-.08-2.86.37-4,1.27-.5.48-.9,1.07-1.15,1.72-.25.65-.36,1.35-.31,2.05,0,3.12,1.83,4.67,5.46,4.67h13.25v-11.25c-.95.59-2,1.01-3.1,1.24Zm-10.58-15.84c-1.09,0-2.17.2-3.18.59-.99.36-1.87.98-2.53,1.8-.65.79-1.01,1.79-1.01,2.81-.08.81.07,1.63.43,2.36.36.73.92,1.35,1.62,1.77,1.6.86,3.39,1.28,5.21,1.21h6.28c2.41.09,4.81-.41,6.98-1.46v-9.23l-13.79.14Z"/>
      <path class="cls-1" d="m100.57,37.79H21.95c-.56,1.01-6.05,1.01-5.46,0H5.4v19.92H0v-25.32h100.52l.06,5.4Z"/>
      <path class="cls-1" d="m85.41.06v62.21c1,.55,2.08.93,3.21,1.13,1.23.21,2.47.31,3.71.31h7.99v5.43h-8.02c-1.26.01-2.52-.07-3.77-.25-1.11-.19-2.18-.59-3.15-1.15v11.09h19.92v5.35h-25.33V0l5.43.06Z"/>
      <path class="cls-1" d="m131.39,42.54c.06,2.08-.46,4.13-1.49,5.94-.82,1.48-2.07,2.67-3.57,3.43,1.06.69,1.9,1.67,2.42,2.81.6,1.35.9,2.82.87,4.3.07,1.37-.16,2.75-.68,4.02-.52,1.27-1.32,2.42-2.33,3.35-2.18,1.81-4.96,2.75-7.79,2.64h-18.54v-36.58h18.54c2.08-.01,4.14.33,6.11,1.01,1.83.64,3.45,1.78,4.67,3.29,1.25,1.66,1.88,3.7,1.8,5.77Zm-25.83,9.99v11.25h13.25c3.63,0,5.46-1.55,5.46-4.67.05-.7-.05-1.4-.31-2.05-.25-.65-.65-1.24-1.16-1.72-1.13-.9-2.55-1.35-4-1.27h-6.28c-1.26,0-2.52-.1-3.77-.31-1.14-.22-2.22-.64-3.21-1.24Zm0-14.66v9.23c2.17,1.05,4.57,1.56,6.98,1.46h6.28c1.81.07,3.61-.34,5.21-1.21.7-.43,1.26-1.04,1.62-1.77.36-.73.51-1.55.43-2.36,0-1.03-.36-2.02-1.01-2.81-.67-.82-1.54-1.44-2.53-1.8-1.01-.39-2.09-.59-3.18-.59l-13.79-.14Z"/>
      <path class="cls-1" d="m45.92,32.41h100.52v25.32h-5.4v-19.92h-11.09c.59,1.01-4.9,1.01-5.43,0H45.92v-5.4Z"/>
      <path class="cls-1" d="m80,497.69v-84.12h25.33v5.4h-19.95v11.08c.97-.58,2.04-.97,3.15-1.15,1.25-.21,2.51-.3,3.77-.28h8.02v5.46h-8.02c-1.23-.01-2.47.08-3.69.28-1.13.19-2.23.57-3.24,1.12v62.21h-5.37Z"/>
      <path class="cls-1" d="m129.56,460.91c-1.21,1.52-2.83,2.67-4.67,3.29-1.96.69-4.03,1.04-6.11,1.04h-18.54v-36.58h18.54c2.83-.13,5.6.82,7.77,2.64,1.02.92,1.81,2.06,2.34,3.33.52,1.27.75,2.64.68,4.01.03,1.48-.26,2.95-.84,4.3-.54,1.14-1.37,2.11-2.42,2.81,1.51.74,2.76,1.93,3.57,3.4,1.03,1.81,1.54,3.88,1.46,5.96.1,2.07-.53,4.11-1.77,5.77Zm-20.85-16.88c1.26-.2,2.53-.3,3.8-.28h6.27c1.45.1,2.88-.36,4-1.29.5-.49.89-1.07,1.13-1.73.25-.65.35-1.35.3-2.04,0-3.09-1.8-4.67-5.43-4.67h-13.25v11.25c.98-.6,2.06-1.02,3.18-1.24Zm10.61,15.84c1.08,0,2.14-.18,3.15-.56,1-.37,1.88-1,2.56-1.83.65-.79,1.01-1.79,1.01-2.81.07-.81-.09-1.63-.45-2.35-.36-.73-.92-1.35-1.61-1.78-1.6-.85-3.39-1.27-5.21-1.21h-6.27c-2.41-.09-4.81.43-6.98,1.49v9.2l13.79-.14Z"/>
      <path class="cls-1" d="m45.9,459.99h78.57c.56-1.01,6.05-1.01,5.46,0h11.09v-19.92h5.4v25.32H45.9v-5.4Z"/>
      <path class="cls-1" d="m61.06,497.69v-62.21c-1-.55-2.08-.93-3.21-1.12-1.23-.2-2.47-.29-3.71-.28h-7.99v-5.46h7.99c1.26-.02,2.52.08,3.77.28,1.11.18,2.18.57,3.15,1.15v-11.08h-19.92v-5.4h25.33v84.12h-5.4Z"/>
      <path class="cls-1" d="m15.08,455.23c-.06-2.08.44-4.15,1.46-5.96.83-1.47,2.09-2.65,3.6-3.4-1.06-.69-1.91-1.67-2.45-2.81-.58-1.36-.87-2.83-.84-4.3-.07-1.37.16-2.74.68-4.01.52-1.27,1.32-2.41,2.33-3.33,2.17-1.83,4.96-2.78,7.79-2.64h18.54v36.58h-18.63c-2.09,0-4.16-.35-6.13-1.04-1.84-.62-3.45-1.77-4.64-3.29-1.24-1.66-1.84-3.7-1.72-5.77Zm25.8-10.02v-11.25h-13.31c-3.66,0-5.46,1.58-5.46,4.67-.05.7.05,1.39.3,2.04.25.65.63,1.24,1.13,1.73,1.13.92,2.57,1.38,4.02,1.29h6.28c1.26-.01,2.52.08,3.77.28,1.16.21,2.26.63,3.26,1.24Zm0,14.66v-9.2c-2.16-1.07-4.55-1.58-6.95-1.49h-6.36c-1.81-.06-3.61.36-5.21,1.21-.7.43-1.26,1.04-1.63,1.77-.37.73-.52,1.55-.45,2.37,0,1.03.36,2.02,1.01,2.81.68.82,1.56,1.46,2.56,1.83,1.01.38,2.08.57,3.15.56l13.87.14Z"/>
      <path class="cls-1" d="m100.54,465.33H.03v-25.32h5.37v19.92h11.09c-.56-1.01,4.9-1.01,5.46,0h78.6v5.4Z"/>
      <path class="cls-1" d="m66.44,446.56v84.1h-25.33v-5.4h19.92v-11.09c-.97.56-2.02.95-3.12,1.15-1.26.18-2.53.27-3.8.25h-7.99v-5.43h7.99c1.24,0,2.49-.1,3.71-.31,1.12-.19,2.21-.57,3.21-1.13v-62.21l5.4.06Z"/>
      <path class="cls-1" d="m16.91,483.34c1.23-1.5,2.84-2.64,4.67-3.29,1.96-.68,4.03-1.03,6.11-1.01h18.54v36.58h-18.66c-2.83.13-5.6-.82-7.77-2.64-1.02-.92-1.83-2.07-2.35-3.34-.53-1.28-.76-2.65-.68-4.03-.02-1.48.28-2.95.87-4.3.52-1.15,1.36-2.12,2.42-2.81-1.51-.76-2.75-1.96-3.57-3.43-1.03-1.81-1.53-3.86-1.46-5.94-.06-2.08.61-4.12,1.89-5.77Zm20.82,16.88c-1.25.21-2.51.32-3.77.31h-6.39c-1.44-.08-2.86.37-4,1.27-.5.48-.9,1.07-1.15,1.72-.25.65-.36,1.35-.31,2.05,0,3.12,1.83,4.67,5.46,4.67h13.25v-11.25c-.95.59-2,1.01-3.1,1.24Zm-10.58-15.84c-1.09,0-2.17.2-3.18.59-.99.36-1.87.98-2.53,1.8-.65.79-1.01,1.79-1.01,2.81-.08.81.07,1.63.43,2.36.36.73.92,1.35,1.62,1.77,1.6.86,3.39,1.28,5.21,1.21h6.28c2.41.09,4.81-.41,6.98-1.46v-9.23l-13.79.14Z"/>
      <path class="cls-1" d="m100.57,484.29H21.95c-.56,1.01-6.05,1.01-5.46,0H5.4v19.92H0v-25.32h100.52l.06,5.4Z"/>
      <path class="cls-1" d="m85.41,446.56v62.21c1,.55,2.08.93,3.21,1.13,1.23.21,2.47.31,3.71.31h7.99v5.43h-8.02c-1.26.01-2.52-.07-3.77-.25-1.11-.19-2.18-.59-3.15-1.15v11.09h19.92v5.35h-25.33v-84.15l5.43.06Z"/>
      <path class="cls-1" d="m131.39,489.05c.06,2.08-.46,4.13-1.49,5.94-.82,1.48-2.07,2.67-3.57,3.43,1.06.69,1.9,1.67,2.42,2.81.6,1.35.9,2.82.87,4.3.07,1.38-.16,2.75-.68,4.02-.52,1.27-1.32,2.42-2.33,3.35-2.18,1.81-4.96,2.75-7.79,2.64h-18.54v-36.58h18.54c2.08-.01,4.14.33,6.11,1.01,1.83.64,3.45,1.78,4.67,3.29,1.25,1.66,1.88,3.7,1.8,5.77Zm-25.83,9.99v11.25h13.25c3.63,0,5.46-1.55,5.46-4.67.05-.7-.05-1.4-.31-2.05-.25-.65-.65-1.24-1.16-1.72-1.13-.9-2.55-1.35-4-1.27h-6.28c-1.26,0-2.52-.1-3.77-.31-1.14-.22-2.22-.64-3.21-1.24Zm0-14.66v9.23c2.17,1.05,4.57,1.56,6.98,1.46h6.28c1.81.07,3.61-.34,5.21-1.21.7-.43,1.26-1.04,1.62-1.77.36-.73.51-1.55.43-2.36,0-1.03-.36-2.02-1.01-2.81-.67-.82-1.54-1.44-2.53-1.8-1.01-.39-2.09-.59-3.18-.59l-13.79-.14Z"/>
      <path class="cls-1" d="m45.92,478.92h100.52v25.32h-5.4v-19.92h-11.09c.59,1.01-4.9,1.01-5.43,0H45.92v-5.4Z"/>
      <path class="cls-1" d="m206.96.06v84.1h-25.33v-5.4h19.92v-11.09c-.97.56-2.02.95-3.12,1.15-1.26.18-2.53.27-3.8.25h-7.99v-5.43h7.99c1.25,0,2.49-.1,3.71-.31,1.12-.19,2.21-.57,3.21-1.13V0l5.4.06Z"/>
      <path class="cls-1" d="m157.43,36.83c1.23-1.5,2.84-2.64,4.67-3.29,1.96-.68,4.03-1.03,6.11-1.01h18.54v36.58h-18.66c-2.83.13-5.6-.82-7.77-2.64-1.02-.92-1.83-2.07-2.35-3.34-.53-1.28-.76-2.65-.68-4.03-.02-1.48.28-2.95.87-4.3.52-1.15,1.36-2.12,2.42-2.81-1.51-.76-2.75-1.96-3.57-3.43-1.03-1.81-1.53-3.86-1.46-5.94-.06-2.08.61-4.12,1.89-5.77Zm20.82,16.88c-1.25.21-2.51.32-3.77.31h-6.39c-1.44-.08-2.87.37-4,1.27-.51.48-.9,1.07-1.15,1.72-.25.65-.36,1.35-.31,2.05,0,3.12,1.83,4.67,5.46,4.67h13.25v-11.25c-.95.59-2,1.01-3.1,1.24Zm-10.58-15.84c-1.09,0-2.17.2-3.18.59-.99.36-1.87.98-2.53,1.8-.65.79-1.01,1.79-1.01,2.81-.08.81.07,1.63.43,2.36.36.73.92,1.35,1.62,1.77,1.6.86,3.39,1.28,5.21,1.21h6.27c2.41.09,4.81-.41,6.98-1.46v-9.23l-13.79.14Z"/>
      <path class="cls-1" d="m241.09,37.79h-78.62c-.56,1.01-6.05,1.01-5.46,0h-11.09v19.92h-5.4v-25.32h100.52l.06,5.4Z"/>
      <path class="cls-1" d="m225.92.06v62.21c1,.55,2.08.93,3.21,1.13,1.23.21,2.47.31,3.71.31h7.99v5.43h-8.02c-1.26.01-2.52-.07-3.77-.25-1.11-.19-2.18-.59-3.15-1.15v11.09h19.92v5.35h-25.33V0l5.43.06Z"/>
      <path class="cls-1" d="m271.9,42.54c.06,2.08-.46,4.13-1.49,5.94-.82,1.48-2.07,2.67-3.57,3.43,1.06.69,1.9,1.67,2.42,2.81.6,1.35.9,2.82.87,4.3.07,1.37-.16,2.75-.68,4.02-.52,1.27-1.32,2.42-2.33,3.35-2.18,1.81-4.96,2.75-7.79,2.64h-18.54v-36.58h18.54c2.08-.01,4.14.33,6.11,1.01,1.83.64,3.45,1.78,4.67,3.29,1.25,1.66,1.88,3.7,1.8,5.77Zm-25.83,9.99v11.25h13.25c3.63,0,5.46-1.55,5.46-4.67.05-.7-.05-1.4-.3-2.05-.25-.65-.65-1.24-1.16-1.72-1.13-.9-2.55-1.35-4-1.27h-6.28c-1.26,0-2.53-.1-3.77-.31-1.14-.22-2.22-.64-3.21-1.24Zm0-14.66v9.23c2.17,1.05,4.57,1.56,6.98,1.46h6.28c1.81.07,3.61-.34,5.21-1.21.7-.43,1.26-1.04,1.62-1.77.36-.73.51-1.55.43-2.36,0-1.03-.36-2.02-1.01-2.81-.67-.82-1.54-1.44-2.53-1.8-1.01-.39-2.09-.59-3.18-.59l-13.79-.14Z"/>
      <path class="cls-1" d="m186.44,32.41h100.52v25.32h-5.4v-19.92h-11.09c.59,1.01-4.9,1.01-5.43,0h-78.6v-5.4Z"/>
      <path class="cls-1" d="m220.52,497.69v-84.12h25.33v5.4h-19.95v11.08c.97-.58,2.04-.97,3.15-1.15,1.25-.21,2.51-.3,3.77-.28h8.02v5.46h-8.02c-1.23-.01-2.47.08-3.69.28-1.13.19-2.23.57-3.24,1.12v62.21h-5.38Z"/>
      <path class="cls-1" d="m270.07,460.91c-1.21,1.52-2.83,2.67-4.67,3.29-1.96.69-4.03,1.04-6.11,1.04h-18.54v-36.58h18.54c2.83-.13,5.6.82,7.77,2.64,1.02.92,1.81,2.06,2.33,3.33.52,1.27.75,2.64.68,4.01.03,1.48-.26,2.95-.84,4.3-.54,1.14-1.37,2.11-2.42,2.81,1.51.74,2.76,1.93,3.57,3.4,1.03,1.81,1.54,3.88,1.46,5.96.1,2.07-.53,4.11-1.77,5.77Zm-20.85-16.88c1.26-.2,2.53-.3,3.8-.28h6.28c1.45.1,2.88-.36,4-1.29.5-.49.89-1.07,1.14-1.73.25-.65.35-1.35.3-2.04,0-3.09-1.8-4.67-5.43-4.67h-13.25v11.25c.98-.6,2.06-1.02,3.18-1.24Zm10.61,15.84c1.08,0,2.15-.18,3.15-.56,1-.37,1.88-1,2.56-1.83.65-.79,1.01-1.79,1.01-2.81.07-.81-.09-1.63-.45-2.35-.36-.73-.92-1.35-1.61-1.78-1.6-.85-3.39-1.27-5.21-1.21h-6.28c-2.41-.09-4.81.43-6.98,1.49v9.2l13.79-.14Z"/>
      <path class="cls-1" d="m186.41,459.99h78.57c.56-1.01,6.05-1.01,5.46,0h11.09v-19.92h5.4v25.32h-100.52v-5.4Z"/>
      <path class="cls-1" d="m201.58,497.69v-62.21c-1-.55-2.08-.93-3.21-1.12-1.23-.2-2.47-.29-3.72-.28h-7.99v-5.46h7.99c1.26-.02,2.52.08,3.77.28,1.11.18,2.18.57,3.15,1.15v-11.08h-19.92v-5.4h25.33v84.12h-5.4Z"/>
      <path class="cls-1" d="m155.6,455.23c-.06-2.08.44-4.15,1.46-5.96.83-1.47,2.09-2.65,3.6-3.4-1.06-.69-1.91-1.67-2.45-2.81-.58-1.36-.87-2.83-.84-4.3-.07-1.37.16-2.74.68-4.01s1.31-2.41,2.33-3.33c2.17-1.83,4.96-2.78,7.79-2.64h18.54v36.58h-18.63c-2.09,0-4.16-.35-6.14-1.04-1.84-.62-3.45-1.77-4.64-3.29-1.24-1.66-1.84-3.7-1.72-5.77Zm25.8-10.02v-11.25h-13.31c-3.66,0-5.46,1.58-5.46,4.67-.05.7.05,1.39.3,2.04.25.65.63,1.24,1.13,1.73,1.13.92,2.57,1.38,4.02,1.29h6.27c1.26-.01,2.52.08,3.77.28,1.16.21,2.26.63,3.26,1.24Zm0,14.66v-9.2c-2.16-1.07-4.55-1.58-6.95-1.49h-6.36c-1.81-.06-3.61.36-5.21,1.21-.7.43-1.26,1.04-1.63,1.77-.37.73-.52,1.55-.45,2.37,0,1.03.36,2.02,1.01,2.81.68.82,1.56,1.46,2.56,1.83,1.01.38,2.07.57,3.15.56l13.87.14Z"/>
      <path class="cls-1" d="m241.06,465.33h-100.52v-25.32h5.38v19.92h11.09c-.56-1.01,4.9-1.01,5.46,0h78.6v5.4Z"/>
      <path class="cls-1" d="m206.96,446.56v84.1h-25.33v-5.4h19.92v-11.09c-.97.56-2.02.95-3.12,1.15-1.26.18-2.53.27-3.8.25h-7.99v-5.43h7.99c1.25,0,2.49-.1,3.71-.31,1.12-.19,2.21-.57,3.21-1.13v-62.21l5.4.06Z"/>
      <path class="cls-1" d="m157.43,483.34c1.23-1.5,2.84-2.64,4.67-3.29,1.96-.68,4.03-1.03,6.11-1.01h18.54v36.58h-18.66c-2.83.13-5.6-.82-7.77-2.64-1.02-.92-1.83-2.07-2.35-3.34-.53-1.28-.76-2.65-.68-4.03-.02-1.48.28-2.95.87-4.3.52-1.15,1.36-2.12,2.42-2.81-1.51-.76-2.75-1.96-3.57-3.43-1.03-1.81-1.53-3.86-1.46-5.94-.06-2.08.61-4.12,1.89-5.77Zm20.82,16.88c-1.25.21-2.51.32-3.77.31h-6.39c-1.44-.08-2.87.37-4,1.27-.51.48-.9,1.07-1.15,1.72-.25.65-.36,1.35-.31,2.05,0,3.12,1.83,4.67,5.46,4.67h13.25v-11.25c-.95.59-2,1.01-3.1,1.24Zm-10.58-15.84c-1.09,0-2.17.2-3.18.59-.99.36-1.87.98-2.53,1.8-.65.79-1.01,1.79-1.01,2.81-.08.81.07,1.63.43,2.36.36.73.92,1.35,1.62,1.77,1.6.86,3.39,1.28,5.21,1.21h6.27c2.41.09,4.81-.41,6.98-1.46v-9.23l-13.79.14Z"/>
      <path class="cls-1" d="m241.09,484.29h-78.62c-.56,1.01-6.05,1.01-5.46,0h-11.09v19.92h-5.4v-25.32h100.52l.06,5.4Z"/>
      <path class="cls-1" d="m225.92,446.56v62.21c1,.55,2.08.93,3.21,1.13,1.23.21,2.47.31,3.71.31h7.99v5.43h-8.02c-1.26.01-2.52-.07-3.77-.25-1.11-.19-2.18-.59-3.15-1.15v11.09h19.92v5.35h-25.33v-84.15l5.43.06Z"/>
      <path class="cls-1" d="m271.9,489.05c.06,2.08-.46,4.13-1.49,5.94-.82,1.48-2.07,2.67-3.57,3.43,1.06.69,1.9,1.67,2.42,2.81.6,1.35.9,2.82.87,4.3.07,1.38-.16,2.75-.68,4.02-.52,1.27-1.32,2.42-2.33,3.35-2.18,1.81-4.96,2.75-7.79,2.64h-18.54v-36.58h18.54c2.08-.01,4.14.33,6.11,1.01,1.83.64,3.45,1.78,4.67,3.29,1.25,1.66,1.88,3.7,1.8,5.77Zm-25.83,9.99v11.25h13.25c3.63,0,5.46-1.55,5.46-4.67.05-.7-.05-1.4-.3-2.05-.25-.65-.65-1.24-1.16-1.72-1.13-.9-2.55-1.35-4-1.27h-6.28c-1.26,0-2.53-.1-3.77-.31-1.14-.22-2.22-.64-3.21-1.24Zm0-14.66v9.23c2.17,1.05,4.57,1.56,6.98,1.46h6.28c1.81.07,3.61-.34,5.21-1.21.7-.43,1.26-1.04,1.62-1.77.36-.73.51-1.55.43-2.36,0-1.03-.36-2.02-1.01-2.81-.67-.82-1.54-1.44-2.53-1.8-1.01-.39-2.09-.59-3.18-.59l-13.79-.14Z"/>
      <path class="cls-1" d="m186.44,478.92h100.52v25.32h-5.4v-19.92h-11.09c.59,1.01-4.9,1.01-5.43,0h-78.6v-5.4Z"/>
      <path class="cls-1" d="m361.44,162.45v-84.12h25.33v5.4h-19.95v11.09c.97-.58,2.04-.97,3.15-1.15,1.25-.21,2.51-.3,3.77-.28h8.02v5.46h-8.02c-1.23-.01-2.47.08-3.69.28-1.13.19-2.23.57-3.24,1.13v62.21h-5.37Z"/>
      <path class="cls-1" d="m410.99,125.67c-1.21,1.52-2.83,2.67-4.67,3.29-1.96.69-4.03,1.04-6.11,1.04h-18.54v-36.58h18.54c2.83-.13,5.6.82,7.77,2.64,1.02.92,1.81,2.06,2.33,3.33.52,1.27.75,2.64.68,4.01.03,1.48-.26,2.95-.84,4.3-.54,1.14-1.37,2.11-2.42,2.81,1.51.74,2.76,1.93,3.57,3.4,1.03,1.81,1.54,3.88,1.46,5.96.1,2.07-.53,4.11-1.77,5.77Zm-20.85-16.88c1.26-.2,2.53-.3,3.8-.28h6.28c1.45.1,2.88-.36,4-1.29.5-.49.89-1.07,1.13-1.73.25-.65.35-1.35.3-2.04,0-3.09-1.8-4.67-5.43-4.67h-13.25v11.25c.98-.6,2.06-1.02,3.18-1.24Zm10.61,15.84c1.08,0,2.15-.18,3.15-.56,1-.37,1.88-1,2.56-1.83.65-.79,1.01-1.79,1.01-2.81.07-.81-.09-1.63-.45-2.36-.36-.73-.92-1.35-1.61-1.78-1.6-.85-3.39-1.27-5.21-1.21h-6.28c-2.41-.09-4.81.43-6.98,1.49v9.2l13.79-.14Z"/>
      <path class="cls-1" d="m327.33,124.74h78.57c.56-1.01,6.05-1.01,5.46,0h11.09v-19.92h5.4v25.32h-100.52v-5.4Z"/>
      <path class="cls-1" d="m342.5,162.45v-62.21c-1-.55-2.08-.93-3.21-1.13-1.23-.2-2.47-.29-3.71-.28h-7.99v-5.46h7.99c1.26-.02,2.52.08,3.77.28,1.11.18,2.18.57,3.15,1.15v-11.09h-19.92v-5.4h25.33v84.12h-5.4Z"/>
      <path class="cls-1" d="m296.52,119.99c-.06-2.08.44-4.15,1.46-5.96.83-1.47,2.09-2.66,3.6-3.4-1.06-.69-1.91-1.67-2.45-2.81-.58-1.36-.87-2.83-.84-4.3-.07-1.37.16-2.74.68-4.01.52-1.27,1.31-2.41,2.33-3.33,2.17-1.83,4.96-2.78,7.79-2.64h18.54v36.58h-18.63c-2.09,0-4.16-.35-6.13-1.04-1.84-.62-3.45-1.76-4.64-3.29-1.24-1.66-1.84-3.7-1.72-5.77Zm25.8-10.02v-11.25h-13.31c-3.66,0-5.46,1.58-5.46,4.67-.05.7.05,1.39.3,2.04.25.65.63,1.24,1.13,1.73,1.13.92,2.57,1.38,4.02,1.29h6.27c1.26-.02,2.52.08,3.77.28,1.16.21,2.26.63,3.26,1.24Zm0,14.66v-9.2c-2.16-1.07-4.55-1.58-6.95-1.49h-6.36c-1.81-.06-3.61.36-5.21,1.21-.7.43-1.26,1.04-1.63,1.77-.37.73-.52,1.55-.45,2.36,0,1.03.36,2.02,1.01,2.81.68.82,1.56,1.46,2.56,1.83,1.01.38,2.07.57,3.15.56l13.87.14Z"/>
      <path class="cls-1" d="m381.98,130.09h-100.52v-25.32h5.38v19.92h11.09c-.56-1.01,4.9-1.01,5.46,0h78.6v5.4Z"/>
      <path class="cls-1" d="m347.88,111.32v84.1h-25.33v-5.4h19.92v-11.09c-.97.56-2.02.95-3.12,1.15-1.26.18-2.53.27-3.8.25h-7.99v-5.43h7.99c1.25,0,2.49-.1,3.71-.31,1.13-.19,2.21-.57,3.21-1.13v-62.21l5.4.06Z"/>
      <path class="cls-1" d="m298.35,148.1c1.23-1.51,2.84-2.64,4.67-3.29,1.96-.68,4.03-1.03,6.11-1.01h18.54v36.58h-18.66c-2.83.13-5.6-.82-7.77-2.64-1.02-.92-1.83-2.07-2.35-3.34-.53-1.28-.76-2.65-.68-4.03-.02-1.48.28-2.95.87-4.3.52-1.15,1.36-2.12,2.42-2.81-1.51-.76-2.75-1.96-3.57-3.43-1.03-1.81-1.53-3.86-1.46-5.94-.06-2.08.61-4.12,1.89-5.77Zm20.82,16.88c-1.25.21-2.51.32-3.77.31h-6.39c-1.44-.08-2.86.37-4,1.27-.5.48-.9,1.07-1.15,1.72-.25.65-.36,1.35-.31,2.05,0,3.12,1.83,4.67,5.46,4.67h13.25v-11.25c-.95.59-2,1.01-3.1,1.24Zm-10.58-15.84c-1.09,0-2.17.2-3.18.59-.99.36-1.86.98-2.53,1.8-.65.79-1.01,1.79-1.01,2.81-.08.81.07,1.63.44,2.36.36.73.92,1.35,1.62,1.77,1.59.86,3.39,1.28,5.21,1.21h6.27c2.41.09,4.81-.41,6.98-1.46v-9.23l-13.79.14Z"/>
      <path class="cls-1" d="m382.01,149.05h-78.62c-.56,1.01-6.05,1.01-5.46,0h-11.09v19.92h-5.4v-25.32h100.52l.06,5.4Z"/>
      <path class="cls-1" d="m366.84,111.32v62.21c1,.55,2.08.93,3.21,1.13,1.23.21,2.47.31,3.71.31h7.99v5.43h-8.02c-1.26.01-2.52-.07-3.77-.25-1.11-.19-2.18-.59-3.15-1.15v11.09h19.92v5.34h-25.33v-84.15l5.43.06Z"/>
      <path class="cls-1" d="m412.82,153.81c.06,2.08-.46,4.13-1.49,5.94-.82,1.48-2.07,2.67-3.57,3.43,1.06.69,1.9,1.67,2.42,2.81.6,1.35.9,2.82.87,4.3.07,1.38-.16,2.75-.68,4.02-.52,1.27-1.32,2.42-2.33,3.35-2.18,1.81-4.96,2.75-7.79,2.64h-18.54v-36.58h18.54c2.08-.01,4.14.33,6.11,1.01,1.83.64,3.45,1.78,4.67,3.29,1.25,1.66,1.88,3.69,1.8,5.77Zm-25.83,9.99v11.25h13.25c3.63,0,5.46-1.55,5.46-4.67.05-.7-.05-1.4-.3-2.05-.25-.65-.65-1.24-1.16-1.72-1.13-.9-2.55-1.35-4-1.27h-6.28c-1.26,0-2.53-.1-3.77-.31-1.14-.22-2.22-.64-3.21-1.24Zm0-14.66v9.23c2.17,1.05,4.57,1.56,6.98,1.46h6.28c1.81.07,3.61-.34,5.21-1.21.7-.43,1.26-1.04,1.62-1.77.36-.73.51-1.55.43-2.36,0-1.03-.36-2.02-1.01-2.81-.67-.82-1.54-1.44-2.53-1.8-1.01-.39-2.09-.59-3.18-.59l-13.79-.14Z"/>
      <path class="cls-1" d="m327.36,143.68h100.52v25.32h-5.4v-19.92h-11.09c.59,1.01-4.9,1.01-5.43,0h-78.59v-5.4Z"/>
      <path class="cls-1" d="m361.44,608.95v-84.12h25.33v5.4h-19.95v11.08c.97-.58,2.04-.97,3.15-1.15,1.25-.21,2.51-.3,3.77-.28h8.02v5.46h-8.02c-1.23-.01-2.47.08-3.69.28-1.13.19-2.23.57-3.24,1.13v62.21h-5.37Z"/>
      <path class="cls-1" d="m410.99,572.18c-1.21,1.52-2.83,2.66-4.67,3.29-1.96.69-4.03,1.04-6.11,1.04h-18.54v-36.58h18.54c2.83-.13,5.6.82,7.77,2.64,1.02.92,1.81,2.06,2.33,3.33.52,1.27.75,2.64.68,4.01.03,1.48-.26,2.95-.84,4.3-.54,1.14-1.37,2.11-2.42,2.81,1.51.74,2.76,1.93,3.57,3.4,1.03,1.81,1.54,3.88,1.46,5.96.1,2.07-.53,4.11-1.77,5.77Zm-20.85-16.88c1.26-.2,2.53-.3,3.8-.28h6.28c1.45.1,2.88-.36,4-1.29.5-.49.89-1.07,1.13-1.73.25-.65.35-1.35.3-2.04,0-3.09-1.8-4.67-5.43-4.67h-13.25v11.25c.98-.6,2.06-1.02,3.18-1.24Zm10.61,15.84c1.08,0,2.15-.18,3.15-.56,1-.37,1.88-1,2.56-1.83.65-.79,1.01-1.79,1.01-2.81.07-.81-.09-1.63-.45-2.36-.36-.73-.92-1.35-1.61-1.78-1.6-.85-3.39-1.27-5.21-1.21h-6.28c-2.41-.09-4.81.43-6.98,1.49v9.2l13.79-.14Z"/>
      <path class="cls-1" d="m327.33,571.25h78.57c.56-1.01,6.05-1.01,5.46,0h11.09v-19.92h5.4v25.32h-100.52v-5.4Z"/>
      <path class="cls-1" d="m342.5,608.95v-62.21c-1-.55-2.08-.93-3.21-1.13-1.23-.2-2.47-.29-3.71-.28h-7.99v-5.46h7.99c1.26-.02,2.52.08,3.77.28,1.11.18,2.18.57,3.15,1.15v-11.08h-19.92v-5.4h25.33v84.12h-5.4Z"/>
      <path class="cls-1" d="m296.52,566.5c-.06-2.08.44-4.15,1.46-5.96.83-1.47,2.09-2.65,3.6-3.4-1.06-.69-1.91-1.67-2.45-2.81-.58-1.36-.87-2.83-.84-4.3-.07-1.37.16-2.74.68-4.01s1.31-2.41,2.33-3.33c2.17-1.83,4.96-2.78,7.79-2.64h18.54v36.58h-18.63c-2.09,0-4.16-.35-6.13-1.04-1.84-.62-3.45-1.77-4.64-3.29-1.24-1.66-1.84-3.7-1.72-5.77Zm25.8-10.02v-11.25h-13.31c-3.66,0-5.46,1.58-5.46,4.67-.05.69.05,1.39.3,2.04.25.65.63,1.24,1.13,1.73,1.13.92,2.57,1.38,4.02,1.29h6.27c1.26-.01,2.52.08,3.77.28,1.16.21,2.26.63,3.26,1.24Zm0,14.66v-9.2c-2.16-1.07-4.55-1.58-6.95-1.49h-6.36c-1.81-.06-3.61.36-5.21,1.21-.7.43-1.26,1.04-1.63,1.77-.37.73-.52,1.55-.45,2.36,0,1.03.36,2.02,1.01,2.81.68.82,1.56,1.46,2.56,1.83,1.01.38,2.07.57,3.15.56l13.87.14Z"/>
      <path class="cls-1" d="m381.98,576.6h-100.52v-25.32h5.38v19.92h11.09c-.56-1.01,4.9-1.01,5.46,0h78.6v5.4Z"/>
      <path class="cls-1" d="m501.96,162.45v-84.12h25.33v5.4h-19.95v11.09c.97-.58,2.04-.97,3.15-1.15,1.25-.21,2.51-.3,3.77-.28h8.02v5.46h-8.02c-1.23-.01-2.47.08-3.69.28-1.13.19-2.23.57-3.24,1.13v62.21h-5.38Z"/>
      <path class="cls-1" d="m551.51,125.67c-1.21,1.52-2.83,2.67-4.67,3.29-1.96.69-4.03,1.04-6.11,1.04h-18.54v-36.58h18.54c2.83-.13,5.6.82,7.77,2.64,1.02.92,1.81,2.06,2.33,3.33.52,1.27.75,2.64.68,4.01.03,1.48-.26,2.95-.84,4.3-.54,1.14-1.37,2.11-2.42,2.81,1.51.74,2.76,1.93,3.57,3.4,1.03,1.81,1.54,3.88,1.46,5.96.1,2.07-.53,4.11-1.77,5.77Zm-20.85-16.88c1.26-.2,2.53-.3,3.8-.28h6.28c1.45.1,2.88-.36,4-1.29.5-.49.89-1.07,1.14-1.73.25-.65.35-1.35.3-2.04,0-3.09-1.8-4.67-5.43-4.67h-13.25v11.25c.98-.6,2.06-1.02,3.18-1.24Zm10.61,15.84c1.08,0,2.15-.18,3.15-.56,1-.37,1.88-1,2.56-1.83.65-.79,1.01-1.79,1.01-2.81.07-.81-.09-1.63-.45-2.36-.36-.73-.92-1.35-1.61-1.78-1.6-.85-3.39-1.27-5.21-1.21h-6.28c-2.41-.09-4.81.43-6.98,1.49v9.2l13.79-.14Z"/>
      <path class="cls-1" d="m467.85,124.74h78.57c.56-1.01,6.05-1.01,5.46,0h11.09v-19.92h5.4v25.32h-100.52v-5.4Z"/>
      <path class="cls-1" d="m483.02,162.45v-62.21c-1-.55-2.08-.93-3.21-1.13-1.23-.2-2.47-.29-3.72-.28h-7.99v-5.46h7.99c1.26-.02,2.52.08,3.77.28,1.11.18,2.18.57,3.15,1.15v-11.09h-19.92v-5.4h25.33v84.12h-5.4Z"/>
      <path class="cls-1" d="m437.04,119.99c-.06-2.08.44-4.15,1.46-5.96.83-1.47,2.09-2.66,3.6-3.4-1.06-.69-1.91-1.67-2.45-2.81-.58-1.36-.87-2.83-.84-4.3-.07-1.37.16-2.74.68-4.01.52-1.27,1.31-2.41,2.33-3.33,2.17-1.83,4.96-2.78,7.8-2.64h18.54v36.58h-18.63c-2.09,0-4.16-.35-6.14-1.04-1.84-.62-3.45-1.76-4.64-3.29-1.24-1.66-1.84-3.7-1.72-5.77Zm25.8-10.02v-11.25h-13.31c-3.66,0-5.46,1.58-5.46,4.67-.05.7.05,1.39.3,2.04.25.65.63,1.24,1.13,1.73,1.13.92,2.57,1.38,4.02,1.29h6.27c1.26-.02,2.52.08,3.77.28,1.16.21,2.26.63,3.26,1.24Zm0,14.66v-9.2c-2.16-1.07-4.55-1.58-6.95-1.49h-6.36c-1.81-.06-3.61.36-5.21,1.21-.7.43-1.26,1.04-1.63,1.77-.37.73-.52,1.55-.45,2.36,0,1.03.36,2.02,1.01,2.81.68.82,1.56,1.46,2.56,1.83,1.01.38,2.07.57,3.15.56l13.87.14Z"/>
      <path class="cls-1" d="m522.5,130.09h-100.52v-25.32h5.37v19.92h11.09c-.56-1.01,4.9-1.01,5.46,0h78.6v5.4Z"/>
      <path class="cls-1" d="m488.39,111.32v84.1h-25.33v-5.4h19.92v-11.09c-.97.56-2.02.95-3.12,1.15-1.26.18-2.53.27-3.8.25h-7.99v-5.43h7.99c1.24,0,2.49-.1,3.71-.31,1.12-.19,2.21-.57,3.21-1.13v-62.21l5.4.06Z"/>
      <path class="cls-1" d="m438.87,148.1c1.23-1.51,2.84-2.64,4.67-3.29,1.96-.68,4.03-1.03,6.11-1.01h18.54v36.58h-18.66c-2.83.13-5.6-.82-7.77-2.64-1.02-.92-1.83-2.07-2.35-3.34-.53-1.28-.76-2.65-.68-4.03-.02-1.48.28-2.95.87-4.3.52-1.15,1.36-2.12,2.42-2.81-1.51-.76-2.75-1.96-3.57-3.43-1.03-1.81-1.53-3.86-1.46-5.94-.06-2.08.61-4.12,1.89-5.77Zm20.82,16.88c-1.25.21-2.51.32-3.77.31h-6.39c-1.44-.08-2.87.37-4,1.27-.51.48-.9,1.07-1.15,1.72-.25.65-.36,1.35-.31,2.05,0,3.12,1.83,4.67,5.46,4.67h13.25v-11.25c-.95.59-2,1.01-3.1,1.24Zm-10.58-15.84c-1.09,0-2.16.2-3.18.59-.99.36-1.87.98-2.53,1.8-.65.79-1.01,1.79-1.01,2.81-.08.81.07,1.63.43,2.36.36.73.92,1.35,1.62,1.77,1.6.86,3.39,1.28,5.21,1.21h6.28c2.41.09,4.81-.41,6.98-1.46v-9.23l-13.79.14Z"/>
      <path class="cls-1" d="m522.53,149.05h-78.62c-.56,1.01-6.05,1.01-5.46,0h-11.09v19.92h-5.4v-25.32h100.52l.06,5.4Z"/>
      <path class="cls-1" d="m507.36,111.32v62.21c1,.55,2.08.93,3.21,1.13,1.23.21,2.47.31,3.71.31h7.99v5.43h-8.02c-1.26.01-2.52-.07-3.77-.25-1.11-.19-2.18-.59-3.15-1.15v11.09h19.92v5.34h-25.33v-84.15l5.43.06Z"/>
      <path class="cls-1" d="m553.34,153.81c.06,2.08-.46,4.13-1.49,5.94-.82,1.48-2.07,2.67-3.57,3.43,1.06.69,1.9,1.67,2.42,2.81.6,1.35.9,2.82.87,4.3.07,1.38-.16,2.75-.68,4.02-.52,1.27-1.32,2.42-2.33,3.35-2.18,1.81-4.96,2.75-7.79,2.64h-18.54v-36.58h18.54c2.08-.01,4.14.33,6.11,1.01,1.83.64,3.45,1.78,4.67,3.29,1.25,1.66,1.88,3.69,1.8,5.77Zm-25.83,9.99v11.25h13.25c3.63,0,5.46-1.55,5.46-4.67.05-.7-.05-1.4-.3-2.05-.25-.65-.65-1.24-1.16-1.72-1.13-.9-2.55-1.35-4-1.27h-6.27c-1.26,0-2.53-.1-3.77-.31-1.14-.22-2.22-.64-3.21-1.24Zm0-14.66v9.23c2.17,1.05,4.57,1.56,6.98,1.46h6.27c1.81.07,3.61-.34,5.21-1.21.7-.43,1.26-1.04,1.62-1.77.36-.73.51-1.55.43-2.36,0-1.03-.36-2.02-1.01-2.81-.67-.82-1.54-1.44-2.53-1.8-1.01-.39-2.09-.59-3.18-.59l-13.79-.14Z"/>
      <path class="cls-1" d="m467.88,143.68h100.52v25.32h-5.4v-19.92h-11.09c.59,1.01-4.9,1.01-5.43,0h-78.6v-5.4Z"/>
      <path class="cls-1" d="m501.96,608.95v-84.12h25.33v5.4h-19.95v11.08c.97-.58,2.04-.97,3.15-1.15,1.25-.21,2.51-.3,3.77-.28h8.02v5.46h-8.02c-1.23-.01-2.47.08-3.69.28-1.13.19-2.23.57-3.24,1.13v62.21h-5.38Z"/>
      <path class="cls-1" d="m551.51,572.18c-1.21,1.52-2.83,2.66-4.67,3.29-1.96.69-4.03,1.04-6.11,1.04h-18.54v-36.58h18.54c2.83-.13,5.6.82,7.77,2.64,1.02.92,1.81,2.06,2.33,3.33.52,1.27.75,2.64.68,4.01.03,1.48-.26,2.95-.84,4.3-.54,1.14-1.37,2.11-2.42,2.81,1.51.74,2.76,1.93,3.57,3.4,1.03,1.81,1.54,3.88,1.46,5.96.1,2.07-.53,4.11-1.77,5.77Zm-20.85-16.88c1.26-.2,2.53-.3,3.8-.28h6.28c1.45.1,2.88-.36,4-1.29.5-.49.89-1.07,1.14-1.73.25-.65.35-1.35.3-2.04,0-3.09-1.8-4.67-5.43-4.67h-13.25v11.25c.98-.6,2.06-1.02,3.18-1.24Zm10.61,15.84c1.08,0,2.15-.18,3.15-.56,1-.37,1.88-1,2.56-1.83.65-.79,1.01-1.79,1.01-2.81.07-.81-.09-1.63-.45-2.36-.36-.73-.92-1.35-1.61-1.78-1.6-.85-3.39-1.27-5.21-1.21h-6.28c-2.41-.09-4.81.43-6.98,1.49v9.2l13.79-.14Z"/>
      <path class="cls-1" d="m467.85,571.25h78.57c.56-1.01,6.05-1.01,5.46,0h11.09v-19.92h5.4v25.32h-100.52v-5.4Z"/>
      <path class="cls-1" d="m483.02,608.95v-62.21c-1-.55-2.08-.93-3.21-1.13-1.23-.2-2.47-.29-3.72-.28h-7.99v-5.46h7.99c1.26-.02,2.52.08,3.77.28,1.11.18,2.18.57,3.15,1.15v-11.08h-19.92v-5.4h25.33v84.12h-5.4Z"/>
      <path class="cls-1" d="m437.04,566.5c-.06-2.08.44-4.15,1.46-5.96.83-1.47,2.09-2.65,3.6-3.4-1.06-.69-1.91-1.67-2.45-2.81-.58-1.36-.87-2.83-.84-4.3-.07-1.37.16-2.74.68-4.01s1.31-2.41,2.33-3.33c2.17-1.83,4.96-2.78,7.8-2.64h18.54v36.58h-18.63c-2.09,0-4.16-.35-6.14-1.04-1.84-.62-3.45-1.77-4.64-3.29-1.24-1.66-1.84-3.7-1.72-5.77Zm25.8-10.02v-11.25h-13.31c-3.66,0-5.46,1.58-5.46,4.67-.05.69.05,1.39.3,2.04.25.65.63,1.24,1.13,1.73,1.13.92,2.57,1.38,4.02,1.29h6.27c1.26-.01,2.52.08,3.77.28,1.16.21,2.26.63,3.26,1.24Zm0,14.66v-9.2c-2.16-1.07-4.55-1.58-6.95-1.49h-6.36c-1.81-.06-3.61.36-5.21,1.21-.7.43-1.26,1.04-1.63,1.77-.37.73-.52,1.55-.45,2.36,0,1.03.36,2.02,1.01,2.81.68.82,1.56,1.46,2.56,1.83,1.01.38,2.07.57,3.15.56l13.87.14Z"/>
      <path class="cls-1" d="m522.5,576.6h-100.52v-25.32h5.37v19.92h11.09c-.56-1.01,4.9-1.01,5.46,0h78.6v5.4Z"/>
      <path class="cls-1" d="m361.44,274.37v-84.12h25.33v5.4h-19.95v11.09c.97-.58,2.04-.97,3.15-1.15,1.25-.21,2.51-.3,3.77-.28h8.02v5.46h-8.02c-1.23-.01-2.47.08-3.69.28-1.13.19-2.23.57-3.24,1.12v62.21h-5.37Z"/>
      <path class="cls-1" d="m410.99,237.6c-1.21,1.52-2.83,2.67-4.67,3.29-1.96.69-4.03,1.04-6.11,1.04h-18.54v-36.58h18.54c2.83-.13,5.6.82,7.77,2.64,1.02.92,1.81,2.06,2.33,3.33.52,1.27.75,2.64.68,4.01.03,1.48-.26,2.95-.84,4.3-.54,1.14-1.37,2.11-2.42,2.81,1.51.74,2.76,1.93,3.57,3.4,1.03,1.81,1.54,3.88,1.46,5.96.1,2.07-.53,4.11-1.77,5.77Zm-20.85-16.88c1.26-.2,2.53-.3,3.8-.28h6.28c1.45.1,2.88-.36,4-1.29.5-.49.89-1.07,1.13-1.73.25-.65.35-1.35.3-2.04,0-3.09-1.8-4.67-5.43-4.67h-13.25v11.25c.98-.6,2.06-1.02,3.18-1.24Zm10.61,15.84c1.08,0,2.15-.18,3.15-.56,1-.37,1.88-1,2.56-1.83.65-.79,1.01-1.79,1.01-2.81.07-.81-.09-1.63-.45-2.35-.36-.73-.92-1.35-1.61-1.78-1.6-.85-3.39-1.27-5.21-1.21h-6.28c-2.41-.08-4.81.43-6.98,1.49v9.2l13.79-.14Z"/>
      <path class="cls-1" d="m327.33,236.67h78.57c.56-1.01,6.05-1.01,5.46,0h11.09v-19.92h5.4v25.32h-100.52v-5.4Z"/>
      <path class="cls-1" d="m342.5,274.37v-62.21c-1-.55-2.08-.93-3.21-1.12-1.23-.2-2.47-.29-3.71-.28h-7.99v-5.46h7.99c1.26-.02,2.52.08,3.77.28,1.11.18,2.18.57,3.15,1.15v-11.09h-19.92v-5.4h25.33v84.12h-5.4Z"/>
      <path class="cls-1" d="m296.52,231.92c-.06-2.08.44-4.15,1.46-5.96.83-1.47,2.09-2.66,3.6-3.4-1.06-.69-1.91-1.67-2.45-2.81-.58-1.36-.87-2.83-.84-4.3-.07-1.37.16-2.74.68-4.01.52-1.27,1.31-2.41,2.33-3.34,2.17-1.83,4.96-2.78,7.79-2.64h18.54v36.58h-18.63c-2.09,0-4.16-.35-6.13-1.04-1.84-.62-3.45-1.77-4.64-3.29-1.24-1.66-1.84-3.7-1.72-5.77Zm25.8-10.02v-11.25h-13.31c-3.66,0-5.46,1.58-5.46,4.67-.05.7.05,1.39.3,2.04.25.65.63,1.24,1.13,1.73,1.13.92,2.57,1.38,4.02,1.29h6.27c1.26-.02,2.52.08,3.77.28,1.16.21,2.26.63,3.26,1.24Zm0,14.66v-9.2c-2.16-1.07-4.55-1.58-6.95-1.49h-6.36c-1.81-.06-3.61.36-5.21,1.21-.7.43-1.26,1.04-1.63,1.77-.37.73-.52,1.55-.45,2.37,0,1.03.36,2.02,1.01,2.81.68.83,1.56,1.46,2.56,1.83,1.01.38,2.07.57,3.15.56l13.87.14Z"/>
      <path class="cls-1" d="m381.98,242.02h-100.52v-25.32h5.38v19.92h11.09c-.56-1.01,4.9-1.01,5.46,0h78.6v5.4Z"/>
      <path class="cls-1" d="m347.88,223.25v84.1h-25.33v-5.4h19.92v-11.09c-.97.56-2.02.96-3.12,1.15-1.26.18-2.53.27-3.8.25h-7.99v-5.43h7.99c1.25,0,2.49-.1,3.71-.31,1.13-.19,2.21-.57,3.21-1.13v-62.21l5.4.06Z"/>
      <path class="cls-1" d="m298.35,260.02c1.23-1.51,2.84-2.64,4.67-3.29,1.96-.68,4.03-1.03,6.11-1.01h18.54v36.58h-18.66c-2.83.13-5.6-.82-7.77-2.64-1.02-.92-1.83-2.07-2.35-3.34-.53-1.27-.76-2.65-.68-4.03-.02-1.48.28-2.95.87-4.3.52-1.15,1.36-2.12,2.42-2.81-1.51-.76-2.75-1.96-3.57-3.43-1.03-1.81-1.53-3.86-1.46-5.94-.06-2.08.61-4.12,1.89-5.77Zm20.82,16.88c-1.25.21-2.51.32-3.77.31h-6.39c-1.44-.08-2.86.37-4,1.27-.5.48-.9,1.07-1.15,1.72-.25.65-.36,1.35-.31,2.05,0,3.12,1.83,4.67,5.46,4.67h13.25v-11.25c-.95.59-2,1.01-3.1,1.24Zm-10.58-15.84c-1.09,0-2.17.2-3.18.59-.99.36-1.86.98-2.53,1.8-.65.79-1.01,1.79-1.01,2.81-.08.81.07,1.63.44,2.36.36.73.92,1.35,1.62,1.77,1.59.86,3.39,1.28,5.21,1.21h6.27c2.41.09,4.81-.41,6.98-1.46v-9.23l-13.79.14Z"/>
      <path class="cls-1" d="m382.01,260.98h-78.62c-.56,1.01-6.05,1.01-5.46,0h-11.09v19.92h-5.4v-25.32h100.52l.06,5.4Z"/>
      <path class="cls-1" d="m366.84,223.25v62.21c1,.55,2.08.93,3.21,1.13,1.23.21,2.47.31,3.71.31h7.99v5.43h-8.02c-1.26.01-2.52-.07-3.77-.25-1.11-.19-2.18-.59-3.15-1.15v11.09h19.92v5.35h-25.33v-84.15l5.43.06Z"/>
      <path class="cls-1" d="m412.82,265.74c.06,2.08-.46,4.13-1.49,5.94-.82,1.48-2.07,2.67-3.57,3.43,1.06.69,1.9,1.67,2.42,2.81.6,1.35.9,2.82.87,4.3.07,1.38-.16,2.75-.68,4.02s-1.32,2.42-2.33,3.35c-2.18,1.81-4.96,2.75-7.79,2.64h-18.54v-36.58h18.54c2.08-.01,4.14.33,6.11,1.01,1.83.64,3.45,1.78,4.67,3.29,1.25,1.66,1.88,3.69,1.8,5.77Zm-25.83,9.99v11.25h13.25c3.63,0,5.46-1.55,5.46-4.67.05-.7-.05-1.4-.3-2.05-.25-.65-.65-1.24-1.16-1.72-1.13-.9-2.55-1.35-4-1.27h-6.28c-1.26,0-2.53-.1-3.77-.31-1.14-.22-2.22-.64-3.21-1.24Zm0-14.66v9.23c2.17,1.05,4.57,1.56,6.98,1.46h6.28c1.81.07,3.61-.34,5.21-1.21.7-.43,1.26-1.04,1.62-1.77.36-.73.51-1.55.43-2.36,0-1.03-.36-2.02-1.01-2.81-.67-.82-1.54-1.44-2.53-1.8-1.01-.39-2.09-.59-3.18-.59l-13.79-.14Z"/>
      <path class="cls-1" d="m327.36,255.61h100.52v25.32h-5.4v-19.92h-11.09c.59,1.01-4.9,1.01-5.43,0h-78.59v-5.4Z"/>
      <path class="cls-1" d="m501.96,274.37v-84.12h25.33v5.4h-19.95v11.09c.97-.58,2.04-.97,3.15-1.15,1.25-.21,2.51-.3,3.77-.28h8.02v5.46h-8.02c-1.23-.01-2.47.08-3.69.28-1.13.19-2.23.57-3.24,1.12v62.21h-5.38Z"/>
      <path class="cls-1" d="m551.51,237.6c-1.21,1.52-2.83,2.67-4.67,3.29-1.96.69-4.03,1.04-6.11,1.04h-18.54v-36.58h18.54c2.83-.13,5.6.82,7.77,2.64,1.02.92,1.81,2.06,2.33,3.33.52,1.27.75,2.64.68,4.01.03,1.48-.26,2.95-.84,4.3-.54,1.14-1.37,2.11-2.42,2.81,1.51.74,2.76,1.93,3.57,3.4,1.03,1.81,1.54,3.88,1.46,5.96.1,2.07-.53,4.11-1.77,5.77Zm-20.85-16.88c1.26-.2,2.53-.3,3.8-.28h6.28c1.45.1,2.88-.36,4-1.29.5-.49.89-1.07,1.14-1.73.25-.65.35-1.35.3-2.04,0-3.09-1.8-4.67-5.43-4.67h-13.25v11.25c.98-.6,2.06-1.02,3.18-1.24Zm10.61,15.84c1.08,0,2.15-.18,3.15-.56,1-.37,1.88-1,2.56-1.83.65-.79,1.01-1.79,1.01-2.81.07-.81-.09-1.63-.45-2.35-.36-.73-.92-1.35-1.61-1.78-1.6-.85-3.39-1.27-5.21-1.21h-6.28c-2.41-.08-4.81.43-6.98,1.49v9.2l13.79-.14Z"/>
      <path class="cls-1" d="m467.85,236.67h78.57c.56-1.01,6.05-1.01,5.46,0h11.09v-19.92h5.4v25.32h-100.52v-5.4Z"/>
      <path class="cls-1" d="m483.02,274.37v-62.21c-1-.55-2.08-.93-3.21-1.12-1.23-.2-2.47-.29-3.72-.28h-7.99v-5.46h7.99c1.26-.02,2.52.08,3.77.28,1.11.18,2.18.57,3.15,1.15v-11.09h-19.92v-5.4h25.33v84.12h-5.4Z"/>
      <path class="cls-1" d="m437.04,231.92c-.06-2.08.44-4.15,1.46-5.96.83-1.47,2.09-2.66,3.6-3.4-1.06-.69-1.91-1.67-2.45-2.81-.58-1.36-.87-2.83-.84-4.3-.07-1.37.16-2.74.68-4.01.52-1.27,1.31-2.41,2.33-3.34,2.17-1.83,4.96-2.78,7.8-2.64h18.54v36.58h-18.63c-2.09,0-4.16-.35-6.14-1.04-1.84-.62-3.45-1.77-4.64-3.29-1.24-1.66-1.84-3.7-1.72-5.77Zm25.8-10.02v-11.25h-13.31c-3.66,0-5.46,1.58-5.46,4.67-.05.7.05,1.39.3,2.04.25.65.63,1.24,1.13,1.73,1.13.92,2.57,1.38,4.02,1.29h6.27c1.26-.02,2.52.08,3.77.28,1.16.21,2.26.63,3.26,1.24Zm0,14.66v-9.2c-2.16-1.07-4.55-1.58-6.95-1.49h-6.36c-1.81-.06-3.61.36-5.21,1.21-.7.43-1.26,1.04-1.63,1.77-.37.73-.52,1.55-.45,2.37,0,1.03.36,2.02,1.01,2.81.68.83,1.56,1.46,2.56,1.83,1.01.38,2.07.57,3.15.56l13.87.14Z"/>
      <path class="cls-1" d="m522.5,242.02h-100.52v-25.32h5.37v19.92h11.09c-.56-1.01,4.9-1.01,5.46,0h78.6v5.4Z"/>
      <path class="cls-1" d="m488.39,223.25v84.1h-25.33v-5.4h19.92v-11.09c-.97.56-2.02.96-3.12,1.15-1.26.18-2.53.27-3.8.25h-7.99v-5.43h7.99c1.24,0,2.49-.1,3.71-.31,1.12-.19,2.21-.57,3.21-1.13v-62.21l5.4.06Z"/>
      <path class="cls-1" d="m438.87,260.02c1.23-1.51,2.84-2.64,4.67-3.29,1.96-.68,4.03-1.03,6.11-1.01h18.54v36.58h-18.66c-2.83.13-5.6-.82-7.77-2.64-1.02-.92-1.83-2.07-2.35-3.34-.53-1.27-.76-2.65-.68-4.03-.02-1.48.28-2.95.87-4.3.52-1.15,1.36-2.12,2.42-2.81-1.51-.76-2.75-1.96-3.57-3.43-1.03-1.81-1.53-3.86-1.46-5.94-.06-2.08.61-4.12,1.89-5.77Zm20.82,16.88c-1.25.21-2.51.32-3.77.31h-6.39c-1.44-.08-2.87.37-4,1.27-.51.48-.9,1.07-1.15,1.72-.25.65-.36,1.35-.31,2.05,0,3.12,1.83,4.67,5.46,4.67h13.25v-11.25c-.95.59-2,1.01-3.1,1.24Zm-10.58-15.84c-1.09,0-2.16.2-3.18.59-.99.36-1.87.98-2.53,1.8-.65.79-1.01,1.79-1.01,2.81-.08.81.07,1.63.43,2.36.36.73.92,1.35,1.62,1.77,1.6.86,3.39,1.28,5.21,1.21h6.28c2.41.09,4.81-.41,6.98-1.46v-9.23l-13.79.14Z"/>
      <path class="cls-1" d="m522.53,260.98h-78.62c-.56,1.01-6.05,1.01-5.46,0h-11.09v19.92h-5.4v-25.32h100.52l.06,5.4Z"/>
      <path class="cls-1" d="m507.36,223.25v62.21c1,.55,2.08.93,3.21,1.13,1.23.21,2.47.31,3.71.31h7.99v5.43h-8.02c-1.26.01-2.52-.07-3.77-.25-1.11-.19-2.18-.59-3.15-1.15v11.09h19.92v5.35h-25.33v-84.15l5.43.06Z"/>
      <path class="cls-1" d="m553.34,265.74c.06,2.08-.46,4.13-1.49,5.94-.82,1.48-2.07,2.67-3.57,3.43,1.06.69,1.9,1.67,2.42,2.81.6,1.35.9,2.82.87,4.3.07,1.38-.16,2.75-.68,4.02-.52,1.27-1.32,2.42-2.33,3.35-2.18,1.81-4.96,2.75-7.79,2.64h-18.54v-36.58h18.54c2.08-.01,4.14.33,6.11,1.01,1.83.64,3.45,1.78,4.67,3.29,1.25,1.66,1.88,3.69,1.8,5.77Zm-25.83,9.99v11.25h13.25c3.63,0,5.46-1.55,5.46-4.67.05-.7-.05-1.4-.3-2.05-.25-.65-.65-1.24-1.16-1.72-1.13-.9-2.55-1.35-4-1.27h-6.27c-1.26,0-2.53-.1-3.77-.31-1.14-.22-2.22-.64-3.21-1.24Zm0-14.66v9.23c2.17,1.05,4.57,1.56,6.98,1.46h6.27c1.81.07,3.61-.34,5.21-1.21.7-.43,1.26-1.04,1.62-1.77.36-.73.51-1.55.43-2.36,0-1.03-.36-2.02-1.01-2.81-.67-.82-1.54-1.44-2.53-1.8-1.01-.39-2.09-.59-3.18-.59l-13.79-.14Z"/>
      <path class="cls-1" d="m467.88,255.61h100.52v25.32h-5.4v-19.92h-11.09c.59,1.01-4.9,1.01-5.43,0h-78.6v-5.4Z"/>
      <path class="cls-1" d="m361.44,385.76v-84.12h25.33v5.4h-19.95v11.08c.97-.58,2.04-.97,3.15-1.15,1.25-.21,2.51-.3,3.77-.28h8.02v5.46h-8.02c-1.23-.01-2.47.08-3.69.28-1.13.19-2.23.57-3.24,1.13v62.21h-5.37Z"/>
      <path class="cls-1" d="m410.99,348.99c-1.21,1.52-2.83,2.66-4.67,3.29-1.96.69-4.03,1.04-6.11,1.04h-18.54v-36.58h18.54c2.83-.13,5.6.82,7.77,2.64,1.02.92,1.81,2.06,2.34,3.33.52,1.27.75,2.64.68,4.01.03,1.48-.26,2.95-.84,4.3-.54,1.14-1.37,2.11-2.42,2.81,1.51.74,2.76,1.93,3.57,3.4,1.03,1.81,1.54,3.88,1.46,5.96.1,2.07-.53,4.11-1.77,5.77Zm-20.85-16.88c1.26-.2,2.53-.3,3.8-.28h6.28c1.45.1,2.88-.36,4-1.29.5-.49.89-1.07,1.13-1.73.25-.65.35-1.35.3-2.04,0-3.09-1.8-4.67-5.43-4.67h-13.25v11.25c.98-.6,2.05-1.02,3.18-1.24Zm10.61,15.84c1.08,0,2.15-.18,3.15-.56,1-.37,1.88-1,2.56-1.83.65-.79,1.01-1.79,1.01-2.81.07-.81-.09-1.63-.45-2.36-.36-.73-.92-1.35-1.61-1.78-1.6-.85-3.39-1.27-5.21-1.21h-6.28c-2.41-.09-4.81.43-6.98,1.49v9.2l13.79-.14Z"/>
      <path class="cls-1" d="m327.33,348.06h78.57c.56-1.01,6.05-1.01,5.46,0h11.09v-19.92h5.4v25.32h-100.52v-5.4Z"/>
      <path class="cls-1" d="m342.5,385.76v-62.21c-1-.55-2.08-.93-3.21-1.13-1.23-.2-2.47-.29-3.71-.28h-7.99v-5.46h7.99c1.26-.02,2.52.08,3.77.28,1.11.18,2.18.57,3.15,1.15v-11.08h-19.92v-5.4h25.33v84.12h-5.4Z"/>
      <path class="cls-1" d="m296.52,343.3c-.06-2.08.44-4.15,1.46-5.96.83-1.47,2.09-2.65,3.6-3.4-1.06-.69-1.91-1.67-2.45-2.81-.58-1.36-.87-2.83-.84-4.3-.07-1.37.16-2.74.68-4.01.52-1.27,1.32-2.41,2.33-3.33,2.17-1.83,4.96-2.78,7.79-2.64h18.54v36.58h-18.63c-2.09,0-4.16-.35-6.13-1.04-1.84-.62-3.45-1.77-4.64-3.29-1.24-1.66-1.84-3.7-1.72-5.77Zm25.8-10.02v-11.25h-13.31c-3.66,0-5.46,1.58-5.46,4.67-.05.69.05,1.39.3,2.04.25.65.64,1.24,1.13,1.73,1.13.92,2.57,1.38,4.02,1.29h6.28c1.26-.01,2.52.08,3.77.28,1.16.21,2.26.63,3.26,1.24Zm0,14.66v-9.2c-2.16-1.07-4.55-1.58-6.95-1.49h-6.36c-1.81-.06-3.61.36-5.21,1.21-.7.43-1.26,1.04-1.63,1.77-.37.73-.52,1.55-.45,2.36,0,1.03.36,2.02,1.01,2.81.68.82,1.56,1.46,2.56,1.83,1.01.38,2.08.57,3.15.56l13.87.14Z"/>
      <path class="cls-1" d="m381.98,353.4h-100.52v-25.32h5.38v19.92h11.09c-.56-1.01,4.9-1.01,5.46,0h78.6v5.4Z"/>
      <path class="cls-1" d="m347.88,334.64v84.1h-25.33v-5.4h19.92v-11.09c-.97.56-2.02.95-3.12,1.15-1.26.18-2.53.27-3.8.25h-7.99v-5.43h7.99c1.25,0,2.49-.1,3.71-.31,1.13-.19,2.21-.57,3.21-1.13v-62.21l5.4.06Z"/>
      <path class="cls-1" d="m298.35,371.41c1.23-1.51,2.84-2.64,4.67-3.29,1.96-.68,4.03-1.03,6.11-1.01h18.54v36.58h-18.66c-2.83.13-5.6-.82-7.77-2.64-1.02-.92-1.83-2.07-2.35-3.34-.53-1.28-.76-2.65-.68-4.03-.02-1.48.28-2.95.87-4.3.52-1.15,1.36-2.12,2.42-2.81-1.51-.76-2.75-1.96-3.57-3.43-1.03-1.81-1.53-3.86-1.46-5.94-.06-2.08.61-4.12,1.88-5.77Zm20.82,16.88c-1.25.21-2.51.32-3.77.31h-6.39c-1.44-.08-2.86.37-4,1.27-.5.48-.9,1.07-1.15,1.72-.25.65-.36,1.35-.31,2.05,0,3.12,1.83,4.67,5.46,4.67h13.25v-11.25c-.95.59-2,1.01-3.1,1.24Zm-10.58-15.84c-1.09,0-2.17.2-3.18.59-.99.36-1.87.98-2.53,1.8-.65.79-1.01,1.79-1.01,2.81-.08.81.07,1.63.44,2.36.36.73.92,1.35,1.62,1.77,1.59.86,3.39,1.28,5.21,1.21h6.28c2.41.09,4.81-.41,6.98-1.46v-9.23l-13.79.14Z"/>
      <path class="cls-1" d="m382.01,372.37h-78.62c-.56,1.01-6.05,1.01-5.46,0h-11.09v19.92h-5.4v-25.32h100.52l.06,5.4Z"/>
      <path class="cls-1" d="m366.84,334.64v62.21c1,.55,2.08.93,3.21,1.13,1.23.21,2.47.31,3.71.31h7.99v5.43h-8.02c-1.26.01-2.52-.07-3.77-.25-1.11-.19-2.18-.59-3.15-1.15v11.09h19.92v5.35h-25.33v-84.15l5.43.06Z"/>
      <path class="cls-1" d="m412.82,377.12c.06,2.08-.46,4.13-1.49,5.94-.82,1.48-2.07,2.67-3.57,3.43,1.06.69,1.9,1.67,2.42,2.81.6,1.35.9,2.82.87,4.3.07,1.37-.16,2.75-.68,4.02-.52,1.27-1.32,2.42-2.33,3.35-2.18,1.81-4.96,2.75-7.79,2.64h-18.54v-36.58h18.54c2.08-.01,4.14.33,6.11,1.01,1.83.64,3.45,1.78,4.67,3.29,1.25,1.66,1.88,3.7,1.8,5.77Zm-25.83,9.99v11.25h13.25c3.63,0,5.46-1.55,5.46-4.67.05-.7-.05-1.4-.31-2.05-.25-.65-.65-1.24-1.16-1.72-1.13-.9-2.55-1.35-4-1.27h-6.28c-1.26,0-2.52-.1-3.77-.31-1.14-.22-2.22-.64-3.21-1.24Zm0-14.66v9.23c2.17,1.05,4.57,1.56,6.98,1.46h6.28c1.81.07,3.61-.34,5.21-1.21.7-.43,1.26-1.04,1.62-1.77.36-.73.51-1.55.43-2.36,0-1.03-.36-2.02-1.01-2.81-.67-.82-1.54-1.44-2.53-1.8-1.01-.39-2.09-.59-3.18-.59l-13.79-.14Z"/>
      <path class="cls-1" d="m327.36,366.99h100.52v25.32h-5.4v-19.92h-11.09c.59,1.01-4.9,1.01-5.43,0h-78.59v-5.4Z"/>
      <path class="cls-1" d="m501.96,385.76v-84.12h25.33v5.4h-19.95v11.08c.97-.58,2.04-.97,3.15-1.15,1.25-.21,2.51-.3,3.77-.28h8.02v5.46h-8.02c-1.23-.01-2.47.08-3.69.28-1.13.19-2.23.57-3.24,1.13v62.21h-5.38Z"/>
      <path class="cls-1" d="m551.51,348.99c-1.21,1.52-2.83,2.66-4.67,3.29-1.96.69-4.03,1.04-6.11,1.04h-18.54v-36.58h18.54c2.83-.13,5.6.82,7.77,2.64,1.02.92,1.81,2.06,2.33,3.33.52,1.27.75,2.64.68,4.01.03,1.48-.26,2.95-.84,4.3-.54,1.14-1.37,2.11-2.42,2.81,1.51.74,2.76,1.93,3.57,3.4,1.03,1.81,1.54,3.88,1.46,5.96.1,2.07-.53,4.11-1.77,5.77Zm-20.85-16.88c1.26-.2,2.53-.3,3.8-.28h6.28c1.45.1,2.88-.36,4-1.29.5-.49.89-1.07,1.14-1.73.25-.65.35-1.35.3-2.04,0-3.09-1.8-4.67-5.43-4.67h-13.25v11.25c.98-.6,2.06-1.02,3.18-1.24Zm10.61,15.84c1.08,0,2.15-.18,3.15-.56,1-.37,1.88-1,2.56-1.83.65-.79,1.01-1.79,1.01-2.81.07-.81-.09-1.63-.45-2.36-.36-.73-.92-1.35-1.61-1.78-1.6-.85-3.39-1.27-5.21-1.21h-6.28c-2.41-.09-4.81.43-6.98,1.49v9.2l13.79-.14Z"/>
      <path class="cls-1" d="m467.85,348.06h78.57c.56-1.01,6.05-1.01,5.46,0h11.09v-19.92h5.4v25.32h-100.52v-5.4Z"/>
      <path class="cls-1" d="m483.02,385.76v-62.21c-1-.55-2.08-.93-3.21-1.13-1.23-.2-2.47-.29-3.72-.28h-7.99v-5.46h7.99c1.26-.02,2.52.08,3.77.28,1.11.18,2.18.57,3.15,1.15v-11.08h-19.92v-5.4h25.33v84.12h-5.4Z"/>
      <path class="cls-1" d="m437.04,343.3c-.06-2.08.44-4.15,1.46-5.96.83-1.47,2.09-2.65,3.6-3.4-1.06-.69-1.91-1.67-2.45-2.81-.58-1.36-.87-2.83-.84-4.3-.07-1.37.16-2.74.68-4.01.52-1.27,1.31-2.41,2.33-3.33,2.17-1.83,4.96-2.78,7.8-2.64h18.54v36.58h-18.63c-2.09,0-4.16-.35-6.14-1.04-1.84-.62-3.45-1.77-4.64-3.29-1.24-1.66-1.84-3.7-1.72-5.77Zm25.8-10.02v-11.25h-13.31c-3.66,0-5.46,1.58-5.46,4.67-.05.69.05,1.39.3,2.04.25.65.63,1.24,1.13,1.73,1.13.92,2.57,1.38,4.02,1.29h6.27c1.26-.01,2.52.08,3.77.28,1.16.21,2.26.63,3.26,1.24Zm0,14.66v-9.2c-2.16-1.07-4.55-1.58-6.95-1.49h-6.36c-1.81-.06-3.61.36-5.21,1.21-.7.43-1.26,1.04-1.63,1.77-.37.73-.52,1.55-.45,2.36,0,1.03.36,2.02,1.01,2.81.68.82,1.56,1.46,2.56,1.83,1.01.38,2.07.57,3.15.56l13.87.14Z"/>
      <path class="cls-1" d="m522.5,353.4h-100.52v-25.32h5.37v19.92h11.09c-.56-1.01,4.9-1.01,5.46,0h78.6v5.4Z"/>
      <path class="cls-1" d="m488.39,334.64v84.1h-25.33v-5.4h19.92v-11.09c-.97.56-2.02.95-3.12,1.15-1.26.18-2.53.27-3.8.25h-7.99v-5.43h7.99c1.24,0,2.49-.1,3.71-.31,1.12-.19,2.21-.57,3.21-1.13v-62.21l5.4.06Z"/>
      <path class="cls-1" d="m438.87,371.41c1.23-1.51,2.84-2.64,4.67-3.29,1.96-.68,4.03-1.03,6.11-1.01h18.54v36.58h-18.66c-2.83.13-5.6-.82-7.77-2.64-1.02-.92-1.83-2.07-2.35-3.34-.53-1.28-.76-2.65-.68-4.03-.02-1.48.28-2.95.87-4.3.52-1.15,1.36-2.12,2.42-2.81-1.51-.76-2.75-1.96-3.57-3.43-1.03-1.81-1.53-3.86-1.46-5.94-.06-2.08.61-4.12,1.89-5.77Zm20.82,16.88c-1.25.21-2.51.32-3.77.31h-6.39c-1.44-.08-2.87.37-4,1.27-.51.48-.9,1.07-1.15,1.72-.25.65-.36,1.35-.31,2.05,0,3.12,1.83,4.67,5.46,4.67h13.25v-11.25c-.95.59-2,1.01-3.1,1.24Zm-10.58-15.84c-1.09,0-2.16.2-3.18.59-.99.36-1.87.98-2.53,1.8-.65.79-1.01,1.79-1.01,2.81-.08.81.07,1.63.43,2.36.36.73.92,1.35,1.62,1.77,1.6.86,3.39,1.28,5.21,1.21h6.28c2.41.09,4.81-.41,6.98-1.46v-9.23l-13.79.14Z"/>
      <path class="cls-1" d="m522.53,372.37h-78.62c-.56,1.01-6.05,1.01-5.46,0h-11.09v19.92h-5.4v-25.32h100.52l.06,5.4Z"/>
      <path class="cls-1" d="m507.36,334.64v62.21c1,.55,2.08.93,3.21,1.13,1.23.21,2.47.31,3.71.31h7.99v5.43h-8.02c-1.26.01-2.52-.07-3.77-.25-1.11-.19-2.18-.59-3.15-1.15v11.09h19.92v5.35h-25.33v-84.15l5.43.06Z"/>
      <path class="cls-1" d="m553.34,377.12c.06,2.08-.46,4.13-1.49,5.94-.82,1.48-2.07,2.67-3.57,3.43,1.06.69,1.9,1.67,2.42,2.81.6,1.35.9,2.82.87,4.3.07,1.37-.16,2.75-.68,4.02-.52,1.27-1.32,2.42-2.33,3.35-2.18,1.81-4.96,2.75-7.79,2.64h-18.54v-36.58h18.54c2.08-.01,4.14.33,6.11,1.01,1.83.64,3.45,1.78,4.67,3.29,1.25,1.66,1.88,3.7,1.8,5.77Zm-25.83,9.99v11.25h13.25c3.63,0,5.46-1.55,5.46-4.67.05-.7-.05-1.4-.3-2.05-.25-.65-.65-1.24-1.16-1.72-1.13-.9-2.55-1.35-4-1.27h-6.27c-1.26,0-2.53-.1-3.77-.31-1.14-.22-2.22-.64-3.21-1.24Zm0-14.66v9.23c2.17,1.05,4.57,1.56,6.98,1.46h6.27c1.81.07,3.61-.34,5.21-1.21.7-.43,1.26-1.04,1.62-1.77.36-.73.51-1.55.43-2.36,0-1.03-.36-2.02-1.01-2.81-.67-.82-1.54-1.44-2.53-1.8-1.01-.39-2.09-.59-3.18-.59l-13.79-.14Z"/>
      <path class="cls-1" d="m467.88,366.99h100.52v25.32h-5.4v-19.92h-11.09c.59,1.01-4.9,1.01-5.43,0h-78.6v-5.4Z"/>
      <path class="cls-1" d="m347.88.06v84.1h-25.33v-5.4h19.92v-11.09c-.97.56-2.02.95-3.12,1.15-1.26.18-2.53.27-3.8.25h-7.99v-5.43h7.99c1.25,0,2.49-.1,3.71-.31,1.13-.19,2.21-.57,3.21-1.13V0l5.4.06Z"/>
      <path class="cls-1" d="m298.35,36.83c1.23-1.5,2.84-2.64,4.67-3.29,1.96-.68,4.03-1.03,6.11-1.01h18.54v36.58h-18.66c-2.83.13-5.6-.82-7.77-2.64-1.02-.92-1.83-2.07-2.35-3.34-.53-1.28-.76-2.65-.68-4.03-.02-1.48.28-2.95.87-4.3.52-1.15,1.36-2.12,2.42-2.81-1.51-.76-2.75-1.96-3.57-3.43-1.03-1.81-1.53-3.86-1.46-5.94-.06-2.08.61-4.12,1.89-5.77Zm20.82,16.88c-1.25.21-2.51.32-3.77.31h-6.39c-1.44-.08-2.86.37-4,1.27-.5.48-.9,1.07-1.15,1.72-.25.65-.36,1.35-.31,2.05,0,3.12,1.83,4.67,5.46,4.67h13.25v-11.25c-.95.59-2,1.01-3.1,1.24Zm-10.58-15.84c-1.09,0-2.17.2-3.18.59-.99.36-1.86.98-2.53,1.8-.65.79-1.01,1.79-1.01,2.81-.08.81.07,1.63.44,2.36.36.73.92,1.35,1.62,1.77,1.59.86,3.39,1.28,5.21,1.21h6.27c2.41.09,4.81-.41,6.98-1.46v-9.23l-13.79.14Z"/>
      <path class="cls-1" d="m382.01,37.79h-78.62c-.56,1.01-6.05,1.01-5.46,0h-11.09v19.92h-5.4v-25.32h100.52l.06,5.4Z"/>
      <path class="cls-1" d="m366.84.06v62.21c1,.55,2.08.93,3.21,1.13,1.23.21,2.47.31,3.71.31h7.99v5.43h-8.02c-1.26.01-2.52-.07-3.77-.25-1.11-.19-2.18-.59-3.15-1.15v11.09h19.92v5.35h-25.33V0l5.43.06Z"/>
      <path class="cls-1" d="m412.82,42.54c.06,2.08-.46,4.13-1.49,5.94-.82,1.48-2.07,2.67-3.57,3.43,1.06.69,1.9,1.67,2.42,2.81.6,1.35.9,2.82.87,4.3.07,1.37-.16,2.75-.68,4.02-.52,1.27-1.32,2.42-2.33,3.35-2.18,1.81-4.96,2.75-7.79,2.64h-18.54v-36.58h18.54c2.08-.01,4.14.33,6.11,1.01,1.83.64,3.45,1.78,4.67,3.29,1.25,1.66,1.88,3.7,1.8,5.77Zm-25.83,9.99v11.25h13.25c3.63,0,5.46-1.55,5.46-4.67.05-.7-.05-1.4-.3-2.05-.25-.65-.65-1.24-1.16-1.72-1.13-.9-2.55-1.35-4-1.27h-6.28c-1.26,0-2.53-.1-3.77-.31-1.14-.22-2.22-.64-3.21-1.24Zm0-14.66v9.23c2.17,1.05,4.57,1.56,6.98,1.46h6.28c1.81.07,3.61-.34,5.21-1.21.7-.43,1.26-1.04,1.62-1.77.36-.73.51-1.55.43-2.36,0-1.03-.36-2.02-1.01-2.81-.67-.82-1.54-1.44-2.53-1.8-1.01-.39-2.09-.59-3.18-.59l-13.79-.14Z"/>
      <path class="cls-1" d="m327.36,32.41h100.52v25.32h-5.4v-19.92h-11.09c.59,1.01-4.9,1.01-5.43,0h-78.59v-5.4Z"/>
      <path class="cls-1" d="m361.44,497.69v-84.12h25.33v5.4h-19.95v11.08c.97-.58,2.04-.97,3.15-1.15,1.25-.21,2.51-.3,3.77-.28h8.02v5.46h-8.02c-1.23-.01-2.47.08-3.69.28-1.13.19-2.23.57-3.24,1.12v62.21h-5.37Z"/>
      <path class="cls-1" d="m410.99,460.91c-1.21,1.52-2.83,2.67-4.67,3.29-1.96.69-4.03,1.04-6.11,1.04h-18.54v-36.58h18.54c2.83-.13,5.6.82,7.77,2.64,1.02.92,1.81,2.06,2.33,3.33.52,1.27.75,2.64.68,4.01.03,1.48-.26,2.95-.84,4.3-.54,1.14-1.37,2.11-2.42,2.81,1.51.74,2.76,1.93,3.57,3.4,1.03,1.81,1.54,3.88,1.46,5.96.1,2.07-.53,4.11-1.77,5.77Zm-20.85-16.88c1.26-.2,2.53-.3,3.8-.28h6.28c1.45.1,2.88-.36,4-1.29.5-.49.89-1.07,1.13-1.73.25-.65.35-1.35.3-2.04,0-3.09-1.8-4.67-5.43-4.67h-13.25v11.25c.98-.6,2.06-1.02,3.18-1.24Zm10.61,15.84c1.08,0,2.15-.18,3.15-.56,1-.37,1.88-1,2.56-1.83.65-.79,1.01-1.79,1.01-2.81.07-.81-.09-1.63-.45-2.35-.36-.73-.92-1.35-1.61-1.78-1.6-.85-3.39-1.27-5.21-1.21h-6.28c-2.41-.09-4.81.43-6.98,1.49v9.2l13.79-.14Z"/>
      <path class="cls-1" d="m327.33,459.99h78.57c.56-1.01,6.05-1.01,5.46,0h11.09v-19.92h5.4v25.32h-100.52v-5.4Z"/>
      <path class="cls-1" d="m342.5,497.69v-62.21c-1-.55-2.08-.93-3.21-1.12-1.23-.2-2.47-.29-3.71-.28h-7.99v-5.46h7.99c1.26-.02,2.52.08,3.77.28,1.11.18,2.18.57,3.15,1.15v-11.08h-19.92v-5.4h25.33v84.12h-5.4Z"/>
      <path class="cls-1" d="m296.52,455.23c-.06-2.08.44-4.15,1.46-5.96.83-1.47,2.09-2.65,3.6-3.4-1.06-.69-1.91-1.67-2.45-2.81-.58-1.36-.87-2.83-.84-4.3-.07-1.37.16-2.74.68-4.01s1.31-2.41,2.33-3.33c2.17-1.83,4.96-2.78,7.79-2.64h18.54v36.58h-18.63c-2.09,0-4.16-.35-6.13-1.04-1.84-.62-3.45-1.77-4.64-3.29-1.24-1.66-1.84-3.7-1.72-5.77Zm25.8-10.02v-11.25h-13.31c-3.66,0-5.46,1.58-5.46,4.67-.05.7.05,1.39.3,2.04.25.65.63,1.24,1.13,1.73,1.13.92,2.57,1.38,4.02,1.29h6.27c1.26-.01,2.52.08,3.77.28,1.16.21,2.26.63,3.26,1.24Zm0,14.66v-9.2c-2.16-1.07-4.55-1.58-6.95-1.49h-6.36c-1.81-.06-3.61.36-5.21,1.21-.7.43-1.26,1.04-1.63,1.77-.37.73-.52,1.55-.45,2.37,0,1.03.36,2.02,1.01,2.81.68.82,1.56,1.46,2.56,1.83,1.01.38,2.07.57,3.15.56l13.87.14Z"/>
      <path class="cls-1" d="m381.98,465.33h-100.52v-25.32h5.38v19.92h11.09c-.56-1.01,4.9-1.01,5.46,0h78.6v5.4Z"/>
      <path class="cls-1" d="m347.88,446.56v84.1h-25.33v-5.4h19.92v-11.09c-.97.56-2.02.95-3.12,1.15-1.26.18-2.53.27-3.8.25h-7.99v-5.43h7.99c1.25,0,2.49-.1,3.71-.31,1.13-.19,2.21-.57,3.21-1.13v-62.21l5.4.06Z"/>
      <path class="cls-1" d="m298.35,483.34c1.23-1.5,2.84-2.64,4.67-3.29,1.96-.68,4.03-1.03,6.11-1.01h18.54v36.58h-18.66c-2.83.13-5.6-.82-7.77-2.64-1.02-.92-1.83-2.07-2.35-3.34s-.76-2.65-.68-4.03c-.02-1.48.28-2.95.87-4.3.52-1.15,1.36-2.12,2.42-2.81-1.51-.76-2.75-1.96-3.57-3.43-1.03-1.81-1.53-3.86-1.46-5.94-.06-2.08.61-4.12,1.89-5.77Zm20.82,16.88c-1.25.21-2.51.32-3.77.31h-6.39c-1.44-.08-2.86.37-4,1.27-.5.48-.9,1.07-1.15,1.72-.25.65-.36,1.35-.31,2.05,0,3.12,1.83,4.67,5.46,4.67h13.25v-11.25c-.95.59-2,1.01-3.1,1.24Zm-10.58-15.84c-1.09,0-2.17.2-3.18.59-.99.36-1.86.98-2.53,1.8-.65.79-1.01,1.79-1.01,2.81-.08.81.07,1.63.44,2.36.36.73.92,1.35,1.62,1.77,1.59.86,3.39,1.28,5.21,1.21h6.27c2.41.09,4.81-.41,6.98-1.46v-9.23l-13.79.14Z"/>
      <path class="cls-1" d="m382.01,484.29h-78.62c-.56,1.01-6.05,1.01-5.46,0h-11.09v19.92h-5.4v-25.32h100.52l.06,5.4Z"/>
      <path class="cls-1" d="m366.84,446.56v62.21c1,.55,2.08.93,3.21,1.13,1.23.21,2.47.31,3.71.31h7.99v5.43h-8.02c-1.26.01-2.52-.07-3.77-.25-1.11-.19-2.18-.59-3.15-1.15v11.09h19.92v5.35h-25.33v-84.15l5.43.06Z"/>
      <path class="cls-1" d="m412.82,489.05c.06,2.08-.46,4.13-1.49,5.94-.82,1.48-2.07,2.67-3.57,3.43,1.06.69,1.9,1.67,2.42,2.81.6,1.35.9,2.82.87,4.3.07,1.38-.16,2.75-.68,4.02-.52,1.27-1.32,2.42-2.33,3.35-2.18,1.81-4.96,2.75-7.79,2.64h-18.54v-36.58h18.54c2.08-.01,4.14.33,6.11,1.01,1.83.64,3.45,1.78,4.67,3.29,1.25,1.66,1.88,3.7,1.8,5.77Zm-25.83,9.99v11.25h13.25c3.63,0,5.46-1.55,5.46-4.67.05-.7-.05-1.4-.3-2.05-.25-.65-.65-1.24-1.16-1.72-1.13-.9-2.55-1.35-4-1.27h-6.28c-1.26,0-2.53-.1-3.77-.31-1.14-.22-2.22-.64-3.21-1.24Zm0-14.66v9.23c2.17,1.05,4.57,1.56,6.98,1.46h6.28c1.81.07,3.61-.34,5.21-1.21.7-.43,1.26-1.04,1.62-1.77.36-.73.51-1.55.43-2.36,0-1.03-.36-2.02-1.01-2.81-.67-.82-1.54-1.44-2.53-1.8-1.01-.39-2.09-.59-3.18-.59l-13.79-.14Z"/>
      <path class="cls-1" d="m327.36,478.92h100.52v25.32h-5.4v-19.92h-11.09c.59,1.01-4.9,1.01-5.43,0h-78.59v-5.4Z"/>
      <path class="cls-1" d="m488.39.06v84.1h-25.33v-5.4h19.92v-11.09c-.97.56-2.02.95-3.12,1.15-1.26.18-2.53.27-3.8.25h-7.99v-5.43h7.99c1.24,0,2.49-.1,3.71-.31,1.12-.19,2.21-.57,3.21-1.13V0l5.4.06Z"/>
      <path class="cls-1" d="m438.87,36.83c1.23-1.5,2.84-2.64,4.67-3.29,1.96-.68,4.03-1.03,6.11-1.01h18.54v36.58h-18.66c-2.83.13-5.6-.82-7.77-2.64-1.02-.92-1.83-2.07-2.35-3.34-.53-1.28-.76-2.65-.68-4.03-.02-1.48.28-2.95.87-4.3.52-1.15,1.36-2.12,2.42-2.81-1.51-.76-2.75-1.96-3.57-3.43-1.03-1.81-1.53-3.86-1.46-5.94-.06-2.08.61-4.12,1.89-5.77Zm20.82,16.88c-1.25.21-2.51.32-3.77.31h-6.39c-1.44-.08-2.87.37-4,1.27-.51.48-.9,1.07-1.15,1.72-.25.65-.36,1.35-.31,2.05,0,3.12,1.83,4.67,5.46,4.67h13.25v-11.25c-.95.59-2,1.01-3.1,1.24Zm-10.58-15.84c-1.09,0-2.16.2-3.18.59-.99.36-1.87.98-2.53,1.8-.65.79-1.01,1.79-1.01,2.81-.08.81.07,1.63.43,2.36.36.73.92,1.35,1.62,1.77,1.6.86,3.39,1.28,5.21,1.21h6.28c2.41.09,4.81-.41,6.98-1.46v-9.23l-13.79.14Z"/>
      <path class="cls-1" d="m522.53,37.79h-78.62c-.56,1.01-6.05,1.01-5.46,0h-11.09v19.92h-5.4v-25.32h100.52l.06,5.4Z"/>
      <path class="cls-1" d="m507.36.06v62.21c1,.55,2.08.93,3.21,1.13,1.23.21,2.47.31,3.71.31h7.99v5.43h-8.02c-1.26.01-2.52-.07-3.77-.25-1.11-.19-2.18-.59-3.15-1.15v11.09h19.92v5.35h-25.33V0l5.43.06Z"/>
      <path class="cls-1" d="m553.34,42.54c.06,2.08-.46,4.13-1.49,5.94-.82,1.48-2.07,2.67-3.57,3.43,1.06.69,1.9,1.67,2.42,2.81.6,1.35.9,2.82.87,4.3.07,1.37-.16,2.75-.68,4.02-.52,1.27-1.32,2.42-2.33,3.35-2.18,1.81-4.96,2.75-7.79,2.64h-18.54v-36.58h18.54c2.08-.01,4.14.33,6.11,1.01,1.83.64,3.45,1.78,4.67,3.29,1.25,1.66,1.88,3.7,1.8,5.77Zm-25.83,9.99v11.25h13.25c3.63,0,5.46-1.55,5.46-4.67.05-.7-.05-1.4-.3-2.05-.25-.65-.65-1.24-1.16-1.72-1.13-.9-2.55-1.35-4-1.27h-6.27c-1.26,0-2.53-.1-3.77-.31-1.14-.22-2.22-.64-3.21-1.24Zm0-14.66v9.23c2.17,1.05,4.57,1.56,6.98,1.46h6.27c1.81.07,3.61-.34,5.21-1.21.7-.43,1.26-1.04,1.62-1.77.36-.73.51-1.55.43-2.36,0-1.03-.36-2.02-1.01-2.81-.67-.82-1.54-1.44-2.53-1.8-1.01-.39-2.09-.59-3.18-.59l-13.79-.14Z"/>
      <path class="cls-1" d="m467.88,32.41h100.52v25.32h-5.4v-19.92h-11.09c.59,1.01-4.9,1.01-5.43,0h-78.6v-5.4Z"/>
      <path class="cls-1" d="m501.96,497.69v-84.12h25.33v5.4h-19.95v11.08c.97-.58,2.04-.97,3.15-1.15,1.25-.21,2.51-.3,3.77-.28h8.02v5.46h-8.02c-1.23-.01-2.47.08-3.69.28-1.13.19-2.23.57-3.24,1.12v62.21h-5.38Z"/>
      <path class="cls-1" d="m551.51,460.91c-1.21,1.52-2.83,2.67-4.67,3.29-1.96.69-4.03,1.04-6.11,1.04h-18.54v-36.58h18.54c2.83-.13,5.6.82,7.77,2.64,1.02.92,1.81,2.06,2.33,3.33.52,1.27.75,2.64.68,4.01.03,1.48-.26,2.95-.84,4.3-.54,1.14-1.37,2.11-2.42,2.81,1.51.74,2.76,1.93,3.57,3.4,1.03,1.81,1.54,3.88,1.46,5.96.1,2.07-.53,4.11-1.77,5.77Zm-20.85-16.88c1.26-.2,2.53-.3,3.8-.28h6.28c1.45.1,2.88-.36,4-1.29.5-.49.89-1.07,1.14-1.73.25-.65.35-1.35.3-2.04,0-3.09-1.8-4.67-5.43-4.67h-13.25v11.25c.98-.6,2.06-1.02,3.18-1.24Zm10.61,15.84c1.08,0,2.15-.18,3.15-.56,1-.37,1.88-1,2.56-1.83.65-.79,1.01-1.79,1.01-2.81.07-.81-.09-1.63-.45-2.35-.36-.73-.92-1.35-1.61-1.78-1.6-.85-3.39-1.27-5.21-1.21h-6.28c-2.41-.09-4.81.43-6.98,1.49v9.2l13.79-.14Z"/>
      <path class="cls-1" d="m467.85,459.99h78.57c.56-1.01,6.05-1.01,5.46,0h11.09v-19.92h5.4v25.32h-100.52v-5.4Z"/>
      <path class="cls-1" d="m483.02,497.69v-62.21c-1-.55-2.08-.93-3.21-1.12-1.23-.2-2.47-.29-3.72-.28h-7.99v-5.46h7.99c1.26-.02,2.52.08,3.77.28,1.11.18,2.18.57,3.15,1.15v-11.08h-19.92v-5.4h25.33v84.12h-5.4Z"/>
      <path class="cls-1" d="m437.04,455.23c-.06-2.08.44-4.15,1.46-5.96.83-1.47,2.09-2.65,3.6-3.4-1.06-.69-1.91-1.67-2.45-2.81-.58-1.36-.87-2.83-.84-4.3-.07-1.37.16-2.74.68-4.01s1.31-2.41,2.33-3.33c2.17-1.83,4.96-2.78,7.8-2.64h18.54v36.58h-18.63c-2.09,0-4.16-.35-6.14-1.04-1.84-.62-3.45-1.77-4.64-3.29-1.24-1.66-1.84-3.7-1.72-5.77Zm25.8-10.02v-11.25h-13.31c-3.66,0-5.46,1.58-5.46,4.67-.05.7.05,1.39.3,2.04.25.65.63,1.24,1.13,1.73,1.13.92,2.57,1.38,4.02,1.29h6.27c1.26-.01,2.52.08,3.77.28,1.16.21,2.26.63,3.26,1.24Zm0,14.66v-9.2c-2.16-1.07-4.55-1.58-6.95-1.49h-6.36c-1.81-.06-3.61.36-5.21,1.21-.7.43-1.26,1.04-1.63,1.77-.37.73-.52,1.55-.45,2.37,0,1.03.36,2.02,1.01,2.81.68.82,1.56,1.46,2.56,1.83,1.01.38,2.07.57,3.15.56l13.87.14Z"/>
      <path class="cls-1" d="m522.5,465.33h-100.52v-25.32h5.37v19.92h11.09c-.56-1.01,4.9-1.01,5.46,0h78.6v5.4Z"/>
      <path class="cls-1" d="m488.39,446.56v84.1h-25.33v-5.4h19.92v-11.09c-.97.56-2.02.95-3.12,1.15-1.26.18-2.53.27-3.8.25h-7.99v-5.43h7.99c1.24,0,2.49-.1,3.71-.31,1.12-.19,2.21-.57,3.21-1.13v-62.21l5.4.06Z"/>
      <path class="cls-1" d="m438.87,483.34c1.23-1.5,2.84-2.64,4.67-3.29,1.96-.68,4.03-1.03,6.11-1.01h18.54v36.58h-18.66c-2.83.13-5.6-.82-7.77-2.64-1.02-.92-1.83-2.07-2.35-3.34-.53-1.28-.76-2.65-.68-4.03-.02-1.48.28-2.95.87-4.3.52-1.15,1.36-2.12,2.42-2.81-1.51-.76-2.75-1.96-3.57-3.43-1.03-1.81-1.53-3.86-1.46-5.94-.06-2.08.61-4.12,1.89-5.77Zm20.82,16.88c-1.25.21-2.51.32-3.77.31h-6.39c-1.44-.08-2.87.37-4,1.27-.51.48-.9,1.07-1.15,1.72-.25.65-.36,1.35-.31,2.05,0,3.12,1.83,4.67,5.46,4.67h13.25v-11.25c-.95.59-2,1.01-3.1,1.24Zm-10.58-15.84c-1.09,0-2.16.2-3.18.59-.99.36-1.87.98-2.53,1.8-.65.79-1.01,1.79-1.01,2.81-.08.81.07,1.63.43,2.36.36.73.92,1.35,1.62,1.77,1.6.86,3.39,1.28,5.21,1.21h6.28c2.41.09,4.81-.41,6.98-1.46v-9.23l-13.79.14Z"/>
      <path class="cls-1" d="m522.53,484.29h-78.62c-.56,1.01-6.05,1.01-5.46,0h-11.09v19.92h-5.4v-25.32h100.52l.06,5.4Z"/>
      <path class="cls-1" d="m507.36,446.56v62.21c1,.55,2.08.93,3.21,1.13,1.23.21,2.47.31,3.71.31h7.99v5.43h-8.02c-1.26.01-2.52-.07-3.77-.25-1.11-.19-2.18-.59-3.15-1.15v11.09h19.92v5.35h-25.33v-84.15l5.43.06Z"/>
      <path class="cls-1" d="m553.34,489.05c.06,2.08-.46,4.13-1.49,5.94-.82,1.48-2.07,2.67-3.57,3.43,1.06.69,1.9,1.67,2.42,2.81.6,1.35.9,2.82.87,4.3.07,1.38-.16,2.75-.68,4.02-.52,1.27-1.32,2.42-2.33,3.35-2.18,1.81-4.96,2.75-7.79,2.64h-18.54v-36.58h18.54c2.08-.01,4.14.33,6.11,1.01,1.83.64,3.45,1.78,4.67,3.29,1.25,1.66,1.88,3.7,1.8,5.77Zm-25.83,9.99v11.25h13.25c3.63,0,5.46-1.55,5.46-4.67.05-.7-.05-1.4-.3-2.05-.25-.65-.65-1.24-1.16-1.72-1.13-.9-2.55-1.35-4-1.27h-6.27c-1.26,0-2.53-.1-3.77-.31-1.14-.22-2.22-.64-3.21-1.24Zm0-14.66v9.23c2.17,1.05,4.57,1.56,6.98,1.46h6.27c1.81.07,3.61-.34,5.21-1.21.7-.43,1.26-1.04,1.62-1.77.36-.73.51-1.55.43-2.36,0-1.03-.36-2.02-1.01-2.81-.67-.82-1.54-1.44-2.53-1.8-1.01-.39-2.09-.59-3.18-.59l-13.79-.14Z"/>
      <path class="cls-1" d="m467.88,478.92h100.52v25.32h-5.4v-19.92h-11.09c.59,1.01-4.9,1.01-5.43,0h-78.6v-5.4Z"/>
    </g>
  </g>
</svg>