<?xml version="1.0" encoding="UTF-8"?>
<svg id="Layer_1" data-name="Layer 1" xmlns="http://www.w3.org/2000/svg" viewBox="0 0 1080 654.6">
  <defs>
    <style>
      .cls-1 {
        fill: #3b2d28;
        stroke-width: 0px;
      }
    </style>
  </defs>
  <path class="cls-1" d="m32.84,493v-91.87h64.66v13.43h-51.28v27.87c2.43-1.46,5.12-2.43,7.95-2.87,3.14-.53,6.32-.75,9.5-.75h20.1v13.43h-20.14c-3.14,0-6.27.22-9.32.75-2.83.49-5.57,1.41-8.08,2.83v36.84l-13.38.35Z"/>
  <path class="cls-1" d="m202.31,471.4c-6.93,11-17.84,18.9-30.48,22.13-12.63,3.18-25.97,1.41-37.32-4.99-7.46-4.24-13.65-10.42-17.89-17.89-4.42-7.6-6.71-16.21-6.71-25-.13-8.48,2.21-16.78,6.71-23.98,4.51-7.16,10.78-13.03,18.2-17.05,7.51-4.15,15.9-6.27,24.47-6.23,8.7,0,17.27,2.3,24.78,6.71,7.42,4.2,13.65,10.29,17.93,17.67,4.46,7.42,6.8,15.94,6.71,24.6.22,8.44-2.03,16.78-6.4,24.03Zm-11.48-42.71c-3.31-5.21-7.95-9.45-13.43-12.28-5.61-2.96-11.88-4.51-18.24-4.51s-12.63,1.55-18.24,4.51c-5.43,2.92-9.94,7.29-13.03,12.63-3.22,5.52-4.86,11.79-4.77,18.15-.09,6.18,1.72,12.28,5.12,17.49,3.31,5.26,7.95,9.54,13.43,12.41,5.52,2.96,11.66,4.51,17.93,4.51s12.54-1.59,18.06-4.73c5.52-3,10.16-7.38,13.43-12.76,3.22-5.34,4.9-11.53,4.86-17.8-.09-6.27-1.99-12.37-5.43-17.62h.31Z"/>
  <path class="cls-1" d="m260.44,454.97c-3.09-.04-6.23.22-9.28.75-2.83.49-5.57,1.41-8.08,2.83v34.45h-13.43v-91.87h48.32c5.17-.09,10.29.97,14.97,3.18,4.24,2.08,7.77,5.34,10.16,9.41,2.56,4.42,3.84,9.45,3.71,14.58.26,6.14-1.68,12.19-5.52,17-4.11,4.68-9.58,7.91-15.64,9.19l7.11,14.71c1.55,2.34,3.22,4.59,5.04,6.71,1.06,1.19,2.39,2.21,3.84,2.87,1.59.62,3.27.88,4.99.8h4.28v13.43c-3.93.09-7.86-.18-11.75-.75-3.27-.53-6.4-1.86-9.05-3.84-3.36-2.65-6.01-6.05-7.73-9.94l-11.22-23.5h-10.73Zm-9.45-12.76c3.14-.49,6.32-.71,9.5-.66h17.53c4.11.22,8.13-.97,11.44-3.45,1.46-1.33,2.61-3,3.31-4.81.71-1.86,1.02-3.8.84-5.79.13-1.86-.13-3.75-.88-5.48-.75-1.72-1.9-3.22-3.36-4.42-3.36-2.21-7.33-3.27-11.35-3.09h-34.89v30.56c2.43-1.41,5.08-2.39,7.86-2.87Z"/>
  <path class="cls-1" d="m403.23,479.53v13.43h-70.1v-91.83h64.66v13.43h-51.19v27.87c2.43-1.46,5.08-2.43,7.86-2.87,3.14-.53,6.32-.75,9.5-.75h20.14v13.43h-20.14c-3.09,0-6.23.22-9.28.75-2.83.49-5.57,1.41-8.08,2.83v23.37l56.62.35Z"/>
  <path class="cls-1" d="m452.92,493l-37.98-91.83h14.53l31.45,76.85,31.67-76.85h14.8l-38.56,91.83h-15.9Z"/>
  <path class="cls-1" d="m594.7,479.53v13.43h-69.83v-91.83h64.66v13.43h-51.19v27.87c2.43-1.46,5.08-2.43,7.86-2.87,3.14-.53,6.32-.75,9.5-.75h20.14v13.43h-20.14c-3.09,0-6.23.22-9.28.75-2.83.44-5.57,1.41-8.08,2.83v23.37l56.36.35Z"/>
  <path class="cls-1" d="m647.04,454.97c-3.09-.04-6.23.22-9.28.75-2.87.44-5.61,1.41-8.13,2.83v34.45h-13.43v-91.87h48.23c5.21-.09,10.34.97,15.06,3.18,4.24,2.03,7.82,5.3,10.2,9.32,2.56,4.42,3.84,9.45,3.71,14.58.26,6.14-1.68,12.19-5.52,17-4.11,4.68-9.58,7.91-15.64,9.19l7.11,14.71c1.5,2.34,3.18,4.59,4.99,6.71,1.06,1.19,2.39,2.21,3.84,2.87,1.59.57,3.27.88,4.99.8h4.37v13.43c-3.93.09-7.86-.18-11.75-.75-3.27-.53-6.4-1.86-9.05-3.84-3.36-2.65-6.05-6.05-7.77-9.94l-11.22-23.5h-10.73v.09Zm-9.5-12.76c3.14-.49,6.32-.71,9.5-.66h17.49c4.11.22,8.17-.97,11.48-3.45,1.41-1.37,2.56-3,3.27-4.86.71-1.86,1.02-3.8.88-5.79.13-1.86-.13-3.75-.88-5.48-.75-1.72-1.9-3.22-3.36-4.42-3.4-2.21-7.38-3.27-11.44-3.09h-34.89v30.56c2.47-1.37,5.17-2.34,7.95-2.83Z"/>
  <path class="cls-1" d="m826.72,482.18c-3.05,3.8-7.11,6.67-11.7,8.26-4.95,1.72-10.16,2.56-15.37,2.56h-46.29v-91.87h46.55c7.11-.31,14.09,2.12,19.57,6.71,2.56,2.34,4.55,5.21,5.87,8.39,1.33,3.18,1.9,6.63,1.72,10.07.04,3.71-.66,7.38-2.16,10.73-1.33,2.96-3.45,5.52-6.1,7.33,3.8,1.9,6.93,4.9,9.01,8.61,2.56,4.55,3.84,9.72,3.71,14.93.04,5.17-1.63,10.2-4.81,14.27Zm-52.3-42.4c3.14-.53,6.32-.75,9.5-.75h15.72c3.62.22,7.2-.93,10.07-3.14,1.28-1.24,2.25-2.74,2.87-4.37.62-1.63.88-3.4.75-5.17,0-7.77-4.46-11.7-13.43-11.7h-33.61v28.09c2.52-1.46,5.3-2.47,8.13-2.96Zm26.55,39.75c2.74,0,5.43-.49,7.99-1.46,2.61-.84,4.95-2.43,6.71-4.51,1.68-2.08,2.61-4.68,2.56-7.38.18-2.03-.22-4.11-1.1-5.92-.93-1.86-2.34-3.4-4.06-4.46-4.02-2.16-8.52-3.18-13.12-3h-15.68c-6.05-.22-12.1,1.06-17.53,3.71v23.1h34.23v-.09Z"/>
  <path class="cls-1" d="m891.82,399.54l44.21,93.46h-14.71l-6.05-13.43h-27.96c-4.64-.04-9.28.44-13.78,1.46-3.31.66-6.49,1.86-9.41,3.49-1.9.97-3.49,2.39-4.64,4.15l-2.34,4.28h-14.53l39.8-82.11-5.04-11.35h14.44v.04Zm-2.96,27.65l-20.14,43.99c2.56-1.9,5.48-3.18,8.61-3.75,4.86-1.02,9.81-1.5,14.8-1.41h17l-20.27-38.82Z"/>
  <path class="cls-1" d="m953.26,401.13h13.43v78.4h51.01v13.43h-64.44v-91.83Z"/>
  <path class="cls-1" d="m1033.74,401.13h13.43v91.83h-13.43v-91.83Z"/>
  <g>
    <polygon class="cls-1" points="454.47 607.04 441.88 575.55 434.5 575.55 453.85 621.31 473.11 575.55 466.39 575.55 454.47 607.04"/>
    <rect class="cls-1" x="482.25" y="575.55" width="5.83" height="43.73"/>
    <polygon class="cls-1" points="506.59 575.55 500.67 575.55 500.67 619.28 528.76 619.28 528.76 613.67 506.59 613.67 506.59 575.55"/>
    <polygon class="cls-1" points="544.17 575.55 538.3 575.55 538.3 619.28 566.39 619.28 566.39 613.67 544.17 613.67 544.17 575.55"/>
    <path class="cls-1" d="m571.91,619.28h5.43l4.68-11.48h16.83l4.51,11.48h6.71l-19.08-45.54-19.08,45.54Zm12.19-16.56l6.49-15.94,6.23,15.94h-12.72Z"/>
    <path class="cls-1" d="m642.71,602.09c-.57-1.37-1.46-2.56-2.56-3.58-1.06-.97-2.25-1.81-3.58-2.47-1.33-.66-2.65-1.19-4.02-1.68-1.63-.62-3.18-1.28-4.55-1.94-1.28-.62-2.47-1.41-3.49-2.43-.49-.57-.84-1.19-1.06-1.9-.22-.71-.31-1.46-.22-2.16.09-.75.31-1.46.66-2.08.35-.66.84-1.24,1.41-1.68,1.63-1.15,3.58-1.72,5.57-1.63,1.77,0,3.49.26,5.17.8,1.68.57,3.31,1.24,4.9,2.03l2.34-4.24c-1.81-1.02-3.71-1.81-5.7-2.43-2.43-.75-4.99-1.15-7.51-1.06-2.34,0-4.64.57-6.71,1.59-1.81.93-3.36,2.34-4.51,4.02-1.15,1.81-1.72,3.93-1.68,6.05-.04,1.68.31,3.36,1.06,4.86.75,1.28,1.77,2.43,2.96,3.36,1.19.88,2.47,1.68,3.84,2.34,1.41.62,2.83,1.19,4.24,1.68,1.41.53,2.78,1.15,4.11,1.9,1.19.62,2.25,1.5,3.09,2.56.8,1.06,1.24,2.34,1.19,3.71.09,1.5-.4,3-1.33,4.15-.88,1.06-2.03,1.86-3.31,2.34-1.33.44-2.74.66-4.15.66-1.33,0-2.69-.18-3.98-.53-1.37-.35-2.69-.84-3.98-1.46-1.15-.57-2.25-1.19-3.31-1.94l-2.61,4.55c1.28.84,2.65,1.63,4.02,2.3,1.55.71,3.18,1.28,4.86,1.68,1.81.49,3.67.71,5.52.66,2.65.09,5.3-.49,7.64-1.68,2.03-.97,3.75-2.52,4.9-4.42,1.24-2.03,1.81-4.37,1.77-6.71-.04-1.81-.35-3.58-1.02-5.21Z"/>
  </g>
  <path class="cls-1" d="m568.86,189.3v-32.24h145.67v-60.47h-12.85v47.57h-25.88c1.99-3.49,2.96-7.51,2.78-11.57.18-4.99-1.02-9.89-3.49-14.22-1.94-3.53-4.95-6.36-8.52-8.13,2.52-1.68,4.51-3.98,5.79-6.71,1.37-3.22,2.08-6.76,2.03-10.29.18-3.27-.35-6.54-1.63-9.58-1.24-3.05-3.14-5.74-5.57-7.95-5.17-4.37-11.79-6.63-18.55-6.32,0,0-69.26.04-72.22.53-2.65.44-5.21,1.37-7.51,2.74v-26.46h47.66v-12.9h-60.47v78.66h-.04v32.07h-32.24V33.3h-60.64v12.9h47.57v26.46c-2.3-1.37-4.86-2.34-7.51-2.74-2.96-.49-72.22-.35-72.22-.35-6.76-.31-13.43,1.94-18.59,6.32-2.43,2.21-4.33,4.95-5.57,7.95-1.24,3.05-1.81,6.32-1.63,9.58-.04,3.53.62,7.02,2.03,10.29,1.28,2.74,3.31,5.08,5.83,6.71-3.62,1.77-6.63,4.64-8.61,8.13-2.43,4.33-3.67,9.28-3.49,14.22-.22,3.93.62,7.82,2.47,11.22h-25.57v-47.53h-12.85v60.47l145.67.13v32.24h-145.76v60.47h12.9v-47.57h25.93c-2.03,3.45-3.05,7.42-2.96,11.48-.18,4.95,1.06,9.85,3.49,14.18,1.94,3.53,4.95,6.36,8.52,8.22-2.52,1.63-4.55,3.98-5.79,6.71-1.41,3.22-2.12,6.76-2.08,10.29-.18,3.27.4,6.58,1.63,9.63,1.24,3.05,3.18,5.79,5.61,7.99,5.17,4.37,11.79,6.63,18.55,6.32l63.38-.09c3.05.04,6.05-.18,9.05-.62,2.65-.49,5.17-1.41,7.46-2.74v26.46h-47.57v12.9h60.47v-78.75h.04v-31.93h32.24v110.64h60.47v-12.76h-47.57v-26.46c2.34,1.37,4.86,2.3,7.51,2.74,2.96.44,6.01.62,9.01.62l63.29-.22c6.76.26,13.38-1.99,18.59-6.32,2.43-2.21,4.33-4.95,5.57-7.99,1.24-3.05,1.81-6.32,1.63-9.58.09-3.53-.66-7.07-2.08-10.29-1.24-2.74-3.27-5.08-5.79-6.71,3.62-1.81,6.58-4.68,8.52-8.22,2.47-4.28,3.71-9.23,3.58-14.18.18-3.98-.8-7.86-2.69-11.31h25.75v47.57h12.9v-60.38l-145.67-.09Zm-12.94,0h-32.24v-32.24h32.24v32.24Zm61-107.15h31.67c8.66,0,12.99,3.75,12.99,11.17.13,1.68-.13,3.31-.71,4.86-.57,1.55-1.5,2.96-2.69,4.11-2.65,2.21-6.1,3.31-9.54,3.09h-14.97c-3.05-.04-6.1.18-9.05.66-2.69.53-5.26,1.55-7.6,2.96v-26.85h-.09Zm16.7,36.53h14.97c4.33-.13,8.61.84,12.41,2.87,1.63,1.06,2.96,2.52,3.84,4.24.88,1.72,1.24,3.67,1.06,5.61,0,2.43-.88,4.81-2.43,6.71-1.63,1.99-3.71,3.49-6.1,4.37-2.39.93-4.95,1.37-7.51,1.33l-26.32.27h-6.63v-21.91c5.17-2.43,10.91-3.67,16.7-3.49Zm-64.79-33.04c2.43-1.33,5.04-2.21,7.73-2.69,2.92-.49,5.87-.71,8.79-.66h18.95v61.75h-35.42v-31.93h-.09v-26.46h.04Zm-65.72-2.69c2.69.44,5.26,1.37,7.64,2.69v26.32h-.09v32.07h-35.42v-61.75h18.95c3-.04,6.01.18,8.92.66Zm-85.33,10.2c0-7.38,4.28-11.17,13.03-11.17h31.8v26.85c-2.39-1.46-5.04-2.47-7.82-2.96-2.96-.49-6.01-.71-9.01-.66h-14.97c-3.49.22-6.89-.88-9.63-3.09-1.19-1.15-2.12-2.56-2.69-4.11-.57-1.5-.84-3.18-.71-4.86Zm-3.31,32.33c.88-1.77,2.21-3.22,3.89-4.24,3.8-2.03,8.13-3.05,12.41-2.87h15.19c5.74-.22,11.44,1.02,16.61,3.58v21.95l-33.13-.35c-2.56.04-5.12-.44-7.51-1.33-2.39-.88-4.51-2.39-6.1-4.37-1.55-1.9-2.39-4.28-2.43-6.71-.18-1.94.18-3.93,1.06-5.65Zm48.01,138.69h-31.67c-8.66,0-13.03-3.71-13.03-11.13-.09-1.68.13-3.31.75-4.9.62-1.55,1.55-2.96,2.74-4.11,2.69-2.16,6.1-3.22,9.54-3h15.24c3,0,6.05-.22,9.01-.75,2.61-.53,5.12-1.55,7.38-2.96v26.85h.04Zm-16.43-36.57h-14.97c-4.33.18-8.61-.84-12.41-2.87-1.68-1.02-3-2.47-3.89-4.24-.88-1.77-1.24-3.71-1.06-5.65,0-2.43.88-4.81,2.43-6.71,1.59-1.94,3.67-3.45,6.05-4.28,2.43-.93,4.99-1.41,7.6-1.41l19.83-.22h13.07v21.91c-5.17,2.52-10.87,3.71-16.65,3.49Zm57.02,35.6c-2.92.49-5.92.75-8.88.75h-18.82v-61.66h35.33v58.26c-2.39,1.28-4.99,2.21-7.64,2.65Zm73.5.13c-2.69-.44-5.26-1.37-7.64-2.69v-58.35h35.47v61.79h-18.95c-3,0-5.96-.22-8.88-.75Zm85.11-10.2c0,7.46-4.37,11.17-13.03,11.17h-31.67v-26.85c2.34,1.46,4.95,2.43,7.64,2.96,2.96.53,6.01.75,9.01.75h14.97c3.45-.22,6.85.88,9.54,3,1.24,1.15,2.16,2.56,2.78,4.11.66,1.55.88,3.22.75,4.86Zm3.27-32.33c-.88,1.77-2.21,3.22-3.89,4.24-3.8,2.08-8.08,3.05-12.41,2.87h-14.97c-5.74.22-11.48-.97-16.65-3.49v-22.04l32.91.35c2.61,0,5.17.49,7.6,1.41,2.39.88,4.46,2.34,6.05,4.28,1.55,1.9,2.39,4.28,2.43,6.71.18,1.99-.18,3.93-1.06,5.65Z"/>
</svg>