<?xml version="1.0" encoding="UTF-8"?>
<svg id="Layer_1" data-name="Layer 1" xmlns="http://www.w3.org/2000/svg" viewBox="0 0 1080 1080">
  <defs>
    <style>
      .cls-1 {
        fill: #383838;
        stroke-width: 0px;
      }
    </style>
  </defs>
  <path class="cls-1" d="m989.45,434.18c-5.16-34.77-18.06-66.49-38.35-94.26-19.5-26.7-45.51-48.82-75.22-63.97-29.16-14.87-61.2-22.73-92.65-22.73-3.28,0-6.59.09-9.84.26-.16,0-.33.01-.48.01-1.33,0-1.43,0-4.21-3.99-.35-.5-.7-1-1.06-1.51-15.61-21.96-33.49-41.77-53.14-58.9-19.03-16.59-39.86-30.78-61.91-42.18-42.75-22.11-90.61-33.79-138.4-33.79-47.81,0-95.68,11.7-138.44,33.83-22.05,11.42-42.88,25.62-61.9,42.23-19.64,17.15-37.5,36.99-53.1,58.97-3.44,4.84-4.97,5.49-9.23,5.49-.19,0-.39,0-.59,0-1.46-.03-2.94-.05-4.4-.05-25.87,0-51.54,5.1-76.29,15.16-25.89,10.52-48.89,25.36-68.37,44.12-19.04,18.33-34.27,39.95-45.28,64.27-10.98,24.27-17.46,50.58-19.26,78.2-1.83,28.2,1.27,57.12,9.23,85.97,6.48,23.51,15.71,45.5,27.41,65.37,11.22,19.05,25.06,36.7,41.12,52.48,29.81,29.28,67.23,52.66,114.4,71.49,9.02,3.6,9.78,5.61,9.62,14.28-.76,41.39-.53,83.43-.3,124.08l.05,9.13c.12,21.41,5.81,37.87,16.92,48.92,11.09,11.03,27.55,16.63,48.92,16.66,25.48.03,52.96.04,86.47.04,20.5,0,41,0,61.5,0,20.5,0,40.99,0,61.49,0s40.99,0,61.48,0c20.5,0,40.99,0,61.49,0,33.55,0,61.03-.01,86.49-.04,21.35-.02,37.8-5.63,48.89-16.67,11.11-11.06,16.81-27.52,16.93-48.93l.04-7.77c.24-41.1.48-83.59-.3-125.44-.16-8.72.54-10.56,9.66-14.19,44.89-17.85,80.84-39.74,109.9-66.93,32.25-30.18,55.53-67.17,69.18-109.92,13.25-41.51,17.12-81.77,11.5-119.66Zm-206.22-169.97c.35,0,.69,0,1.04,0-.44,0-.88,0-1.32,0,.09,0,.19,0,.28,0Zm-10.1,66.08c-.09,0-.18.02-.26.02-.22,0-.44-.01-.65-.03.3.01.61.02.91.01Zm-13.47-8.77c.26.42.53.81.81,1.21-.27-.39-.54-.79-.81-1.21-.18-.29-.35-.58-.52-.88.17.3.34.59.52.88Zm-245.47-197.42c.54,0,1.07,0,1.61.01-.54,0-1.09-.01-1.63-.01,0,0,.02,0,.03,0Zm-.04,32.44s0,0,0,0h0c-4.36,0-8.67.09-12.93.26,4.26-.17,8.57-.25,12.93-.26Zm-17.35-31.92c-82.63,4.99-163.71,45.6-221.21,121.85,57.5-76.25,138.57-116.86,221.21-121.85Zm-227.08,129.87c.83-1.17,1.67-2.34,2.52-3.49-.84,1.16-1.68,2.32-2.52,3.5-.01.02-.03.04-.04.06.01-.02.03-.04.04-.06Zm-12.21,76.01c-.31.03-.63.04-.96.04,0,0,0,0,0,0,.33,0,.66-.02.97-.04Zm-6.82-65.89s0,0,0,0c-1.52-.03-1.39-.03,0,0Zm-.46,64.62c-.42-.16-.85-.33-1.28-.52-.39-.17-.77-.35-1.13-.52.36.18.74.35,1.13.52.44.19.86.36,1.28.52Zm-7.04-33.78c.14.43.29.83.44,1.19-.15-.36-.3-.76-.44-1.19-7.06.11-14.01.74-20.84,1.82,6.84-1.08,13.78-1.7,20.85-1.82Zm6.61,442.73c.27,2.07.36,4.37.31,6.93.05-2.57-.04-4.86-.31-6.93Zm.31,146.59c.15,2.16.37,4.25.66,6.26-.29-2.01-.51-4.1-.66-6.26Zm30.67-6.57c0,.46,0,.91,0,1.36,0-.45,0-.9,0-1.36.16-9.69.28-19.37.36-29.06-.08,9.69-.2,19.38-.36,29.06Zm110.4,54.54c-28.82,0-57.64,0-86.46-.04-1.09,0-2.17-.02-3.23-.05,1.06.03,2.14.05,3.23.05,33.9.04,67.8.04,101.7.04-5.08,0-10.16,0-15.24,0Zm122.99-.02c-1.23,0-2.46,0-3.69,0,1.23,0,2.46,0,3.69,0s2.45,0,3.68,0c-1.23,0-2.45,0-3.68,0Zm16.76-31.46c3.8,0,7.59,0,11.39,0,19.43,0,38.87,0,58.3,0-23.23,0-46.46,0-69.69,0Zm106.21,31.48c-5.07,0-10.15,0-15.22,0,33.9,0,67.8,0,101.7-.04-28.83.03-57.65.04-86.48.04Zm99.53-185.86c-.67,29.76-.56,59.97-.45,89.18.05,13.21.1,26.86.07,40.28-.02,8.81-.64,11.86-1.08,12.9-.9.37-3.62.99-11.71.99-40.12.03-80.81.03-115.32.03h-32.93s-32.93,0-32.93,0c-75.78,0-156.55.02-237.51.2h-.15c-7.62,0-10.13-1.39-10.95-2.22-1.31-1.34-2.02-4.93-1.94-9.86.7-43.45.68-88.27-.05-133.22-.03-1.84.04-3.05.14-3.83.71-.09,1.79-.17,3.39-.17h.38c31.46.24,65.1.35,109.08.35,18.26,0,36.53-.02,54.79-.04,18.22-.02,36.43-.04,54.65-.04s37.55.03,55.85.05c18.3.03,37.22.05,55.83.05,42.19,0,74.59-.14,105.05-.45.22,0,.44,0,.66,0,2.58,0,4.08.17,4.89.33.15.87.32,2.53.25,5.47Zm-413.67-16.55c-9.1-.05-18.2-.1-27.29-.17h0s0,0,0,0c9.1.07,18.2.13,27.29.17Zm-16.38-53.08c1.74,1.74,3.51,3.45,5.32,5.15.08.08.17.16.25.24-.08-.08-.17-.16-.25-.24-1.8-1.7-3.58-3.42-5.32-5.15Zm21.33,20.01s0,0,.01,0h0s0,0-.01,0Zm48.8-6.22c3.09,1.69,6.23,3.33,9.44,4.92.02,0,.04.02.06.03-.02,0-.04-.02-.06-.03-3.2-1.59-6.35-3.23-9.44-4.92Zm9.62,39.46c6.16,0,12.32.01,18.48.01-.05,0-.1,0-.16,0-6.11,0-12.21,0-18.32-.01Zm60.11-31.35c.85,0,1.71,0,2.56,0s1.69,0,2.54,0c-1.7,0-3.4,0-5.1,0Zm67.66,31.29c18.78,0,37.56.03,56.34.05-18.77-.03-37.54-.05-56.3-.05h-.04c-18.36,0-36.71.02-55.07.04,18.36-.02,36.71-.04,55.07-.04Zm-14.94-46.06c0,.09,0,.18,0,.26h0c0-.09,0-.18,0-.26Zm14.32-108.8c.19,0,.37-.01.56-.01.07,0,.15,0,.22,0-.27,0-.52,0-.78.01Zm15.39,12.36c.49,3,.55,6.29.53,9.61-.05,10.24.06,20.49.14,30.73-.08-10.24-.19-20.49-.14-30.73.01-3.31-.05-6.61-.53-9.61Zm49.25,110.92c.22,0,.45,0,.67,0,.19,0,.37,0,.56,0-.41,0-.82,0-1.23,0Zm46.21,31.69c4.69,0,9.38,0,14.07,0-4.21,0-8.41,0-12.62,0-.49,0-.97,0-1.46,0Zm153.21,160.28c.56-3.97.85-8.23.88-12.78-.03,4.55-.32,8.81-.88,12.78Zm1.3-154.74c.27-1.28.63-2.47,1.09-3.57-.46,1.11-.82,2.29-1.09,3.57Zm-14.47-38.19s0,0-.01,0c0,0,0,0,.01,0,6.49-1.4,12.88-3.08,19.17-5.04-6.29,1.96-12.69,3.65-19.17,5.04Zm75.47,1.56c3.49-1.9,6.93-3.86,10.32-5.87-3.39,2.01-6.83,3.96-10.32,5.87Zm66.95-49.1c2.61-2.6,5.15-5.27,7.65-7.98-2.5,2.71-5.03,5.39-7.65,7.98Zm28.83-146.01c-15.46,88.98-86.83,164.15-173.56,182.81-5.86,1.26-12.42,1.85-20.64,1.85-4.99,0-10.13-.21-15.51-.47,28.59-27.76,47.29-57.24,58.12-91.22,1.77-5.56,3.6-11.31,4.49-17.58,2.17-15.31-5.38-26.84-19.7-30.1-2.32-.53-4.62-.8-6.82-.8-11.21,0-20.09,6.72-24.37,18.43-1.49,4.07-2.67,8.14-3.81,12.08-1.52,5.26-2.96,10.23-4.97,14.68-18.31,40.64-48.2,70.73-91.37,92-4.06,2-8.47,2.41-13.84,2.41h-.58c-6.62-.04-13.39-.16-19.93-.27-7.97-.14-16.21-.28-24.35-.28-12,0-21.91.31-31.19.99-1.13.08-2.17.12-3.11.12-2.29,0-3.51-.25-4.05-.41-.25-.82-.67-3.06-.43-8.62.8-18.46.64-37.13.49-55.18-.07-8.91-.15-18.13-.11-27.16.03-6.34-.2-13.63-3.26-19.93-2.87-5.92-9.16-12.99-22.8-13.09h-.31c-7.76,0-14,2.32-18.56,6.89-7.72,7.76-7.67,19.53-7.64,25.85.05,9.93,0,20.06-.06,29.85-.1,18.93-.2,38.49.39,57.82.05,1.68-.01,2.81-.1,3.55-.58.07-1.4.12-2.54.12-.45,0-.91,0-1.4-.02-10.49-.33-21.66-.48-35.13-.48-9.74,0-19.62.08-29.17.16-5.4.04-10.8.09-16.2.12h-.37c-5.31,0-8.96-.69-12.21-2.3-51.9-25.8-84.22-62.62-98.81-112.59-1.47-5.04-3.45-10.83-6.99-15.5-4.62-6.1-11.11-9.33-18.76-9.33-2,0-4.11.22-6.27.66-7.99,1.63-13.86,5.4-17.44,11.21-5.5,8.92-3.52,19.62-1.55,26.89,10.33,38.15,31.06,72.31,61.65,101.54-1.18.03-2.35.04-3.53.04-88.57,0-190.08-86.4-204.92-174.42-15.07-89.33,16.71-159.7,87.17-193.08,16.19-7.67,32.06-12.36,48.18-14.2-.92,3.38-1.5,6.93-1.27,10.61.41,6.49,3.52,15.38,16.01,20.84,4.25,1.86,8.18,2.76,12.01,2.76,4.83,0,11.82-1.53,17.74-8.82,3.18-3.92,5.32-8.57,7.2-12.67.56-1.23,1.1-2.39,1.63-3.47,48.56-98.86,126.3-149.01,231.03-149.04h.09c104.71,0,182.43,50.11,230.98,148.95.45.92.9,2.01,1.37,3.17.97,2.37,2.06,5.05,3.77,7.73,7.28,11.49,16.25,13.9,22.5,13.9,3.62,0,7.36-.82,11.11-2.42,12.17-5.21,17.69-16.55,14.77-30.33-.07-.35-.15-.7-.24-1.05,16.2,1.88,32.18,6.64,48.45,14.38,67.55,32.16,102.36,103.77,88.7,182.44Zm-189.91,73.58c.61-2.02,1.26-4.03,1.96-6.02-.7,1.99-1.35,3.99-1.96,6.02Zm16.02-18.08c.09,0,.18-.01.27-.01.35,0,.7.01,1.06.03-.45-.03-.89-.03-1.33-.02Zm16.14,13.6c.08,1.48,0,3.04-.23,4.67.23-1.63.31-3.19.23-4.67Zm-511.34-13.73c-.17,0-.35,0-.53.01.16,0,.33-.01.48-.01.02,0,.03,0,.05,0Zm-12.64,31.97c-.73-2.34-1.42-4.69-2.06-7.08-.41-1.51-.77-3.03-1.05-4.52.28,1.49.64,3.01,1.05,4.52.65,2.38,1.34,4.74,2.06,7.08Z"/>
</svg>