<?xml version="1.0" encoding="UTF-8"?>
<svg id="Layer_1" data-name="Layer 1" xmlns="http://www.w3.org/2000/svg" viewBox="0 0 1080 1080">
  <defs>
    <style>
      .cls-1 {
        fill: #383838;
        stroke-width: 0px;
      }
    </style>
  </defs>
  <path class="cls-1" d="m656.05,665.4c-13.16-4.4-26.4-8.62-39.47-13.29-82.46-29.49-139.14-85.31-169.97-167.25-5.46-14.53-9.81-29.49-14.88-44.17-3.88-11.22-12.2-17.51-23.87-17.51s-19.93,6.17-23.84,17.47c-3.99,11.53-7.96,23.09-11.86,34.66-29.92,88.69-89.28,148.07-177.77,178.41-12.07,4.14-24.35,7.72-36.28,12.25-10.15,3.86-16.48,11.52-16.75,22.72-.28,11.83,5.57,20.16,16.73,24.25,10.42,3.8,20.94,7.37,31.51,10.7,58,18.3,105.38,51.44,142.03,100.17,25.18,33.51,38.8,72.1,51.02,111.45,3.78,12.16,11.37,20.74,25,20.69,13.46-.04,21.12-8,25-20.52,3.95-12.71,8.24-25.35,12.77-37.87,30.29-83.56,87.35-140.41,170.92-170.57,13.06-4.72,26.36-8.73,39.48-13.23,11.85-4.05,17.96-12.48,18.56-24.56-1.21-12.04-7.07-20.04-18.34-23.81Zm-248.18,190.15c-35.5-76.27-89.65-130.63-165.91-165.92,75.75-35.42,130.3-89.26,165.6-165.83,35.44,75.21,89.36,130.21,166.16,165.66-75.95,35.52-130.56,89.51-165.85,166.09Z"/>
  <path class="cls-1" d="m973.43,287.84c-79.36-30.29-134.25-85.02-164.02-164.65-4.62-12.39-11.15-22.17-25.71-22.15-14.46.03-21.09,9.55-25.8,22.04-30.14,80.07-85.22,135.37-165.59,165.13-11.82,4.39-20.94,10.88-21.23,24.67-.3,14.4,8.28,21.48,21.12,26.27,80.14,29.93,135.51,85.07,165.64,165.16,4.74,12.58,11.19,21.91,25.72,21.97,14.63.05,21.44-9.4,25.8-21.96,9.96-28.59,24.65-54.62,43.61-78.22,32.13-39.97,72.2-68.92,120.5-86.24,13.06-4.69,22.72-11.64,23.04-25.4-.46-13.56-6.63-20.35-23.09-26.62Zm-189.8,151.14c-30.66-53.01-71.91-94.65-125.61-125.31,53.97-30.56,94.79-72.05,125.67-125.33,30.75,53.49,71.41,94.39,124.23,124.62-80.6,61.05-90.11,70.67-124.3,126.02Z"/>
  <path class="cls-1" d="m389.44,209.95c-44.9-16.64-75.96-46.83-92.22-92.19-3.89-10.85-12.47-16.75-24.95-16.91-10.43,1.09-18.32,6.39-22.15,16.87-16.45,45.08-47.2,75.72-92.28,92.19-10.4,3.8-16.22,11.68-16.51,22.79-.31,12.01,6.16,20.37,16.96,24.29,44.66,16.13,74.91,46.38,91.31,90.84,4,10.82,11.64,17.4,23.84,17.47,12.19.06,20.14-6.44,24.07-17.2,16.26-44.59,46.52-74.79,91.13-91.01,10.75-3.91,17.19-12.02,16.99-24.19-.19-11.32-5.86-19.11-16.19-22.95Zm-115.97,85.37c-17.4-25.22-38.07-44.3-61.43-62.33,24.07-17.41,44.03-37.09,61.23-61.35,18.07,23.23,37.06,43.99,62.07,61.2-23.49,17.76-44.09,37.4-61.87,62.48Z"/>
  <path class="cls-1" d="m978.08,799.5c-43.87-16.21-73.75-46.22-89.88-90.12-3.98-10.8-11.55-17.52-23.74-17.67-12.92,0-20.53,7.14-24.77,18.6-16.03,43.24-45.64,72.89-88.86,88.97-11.45,4.25-18.74,11.69-18.73,24.65,0,13.07,7.71,20.33,19.01,24.52,43.29,16.07,72.69,45.87,88.67,89.08,4.26,11.5,12.19,18.73,24.93,18.47,11.93-.23,19.55-7.09,23.55-17.99,16.12-43.89,46.04-73.91,89.95-90.02,10.88-3.99,17.82-11.5,18.15-23.44.36-12.76-6.79-20.81-18.28-25.05Zm-114.1,86.2c-17.41-25.22-38.08-44.3-61.44-62.33,24.08-17.41,44.03-37.09,61.23-61.35,18.07,23.23,37.07,43.98,62.07,61.19-23.49,17.77-44.09,37.41-61.86,62.49Z"/>
</svg>