<?xml version="1.0" encoding="UTF-8"?>
<svg id="Layer_1" data-name="Layer 1" xmlns="http://www.w3.org/2000/svg" viewBox="0 0 1080 1080">
  <defs>
    <style>
      .cls-1 {
        fill: #383838;
        stroke-width: 0px;
      }
    </style>
  </defs>
  <g>
    <path class="cls-1" d="m763.93,264.74c-8.9-2.98-17.86-5.83-26.71-8.99-55.79-19.95-94.14-57.72-115-113.16-3.69-9.83-6.64-19.95-10.07-29.89-2.63-7.59-8.25-11.85-16.15-11.85s-13.48,4.17-16.13,11.82c-2.7,7.8-5.39,15.62-8.02,23.45-20.24,60.01-60.41,100.18-120.28,120.71-8.17,2.8-16.48,5.22-24.55,8.29-6.87,2.61-11.15,7.79-11.33,15.37-.19,8,3.77,13.64,11.32,16.41,7.05,2.57,14.17,4.99,21.32,7.24,39.24,12.38,71.3,34.8,96.1,67.77,17.04,22.67,26.25,48.78,34.52,75.41,2.56,8.23,7.69,14.03,16.91,14,9.11-.03,14.29-5.41,16.91-13.88,2.67-8.6,5.58-17.15,8.64-25.62,20.49-56.54,59.1-95,115.64-115.41,8.84-3.19,17.84-5.91,26.71-8.95,8.02-2.74,12.15-8.44,12.56-16.62-.82-8.15-4.78-13.56-12.41-16.11h0Zm-167.92,128.65c-24.02-51.6-60.66-88.38-112.25-112.26,51.25-23.97,88.16-60.39,112.04-112.2,23.98,50.89,60.46,88.1,112.42,112.09-51.39,24.03-88.34,60.56-112.21,112.38h0Z"/>
    <path class="cls-1" d="m595.78,466.52c-10.52,0-18.26-6.27-21.8-17.65-7.76-24.98-16.75-51.25-33.71-73.83-23.84-31.7-55.3-53.89-93.51-65.94-7.23-2.28-14.48-4.74-21.54-7.31-9.75-3.57-14.98-11.18-14.73-21.41.22-9.32,5.58-16.64,14.68-20.11,5.2-1.97,10.52-3.7,15.66-5.36,2.98-.96,6.06-1.96,9.05-2.99,58.09-19.92,97.47-59.44,117.04-117.46,2.31-6.87,4.87-14.33,8.04-23.49,3.37-9.73,11.04-15.32,21.04-15.32s17.69,5.59,21.06,15.35c1.37,3.96,2.67,7.98,3.93,11.87,1.91,5.91,3.89,12.03,6.09,17.88,20.22,53.73,57.86,90.77,111.89,110.1,1.89.68,3.8,1.34,5.72,2l-.05-.05,20.93,7c7.12,2.38,12.01,7.04,14.41,13.63l3.22,3.22-2.48-.83c.37,1.42.63,2.92.79,4.5l.04.39-.02.39c-.51,10.36-6.22,17.91-16.07,21.28-3.68,1.26-7.42,2.48-11.04,3.66-5.14,1.67-10.45,3.41-15.58,5.26-54.83,19.79-92.69,57.57-112.52,112.29-3.15,8.72-6.04,17.26-8.56,25.39-4.48,14.45-14.36,17.52-21.86,17.54h-.1Zm.22-360.47c-5.61,0-9.28,2.72-11.22,8.32-3.16,9.13-5.71,16.57-8.01,23.41-20.66,61.24-62.22,102.95-123.52,123.97-3.07,1.05-6.2,2.07-9.22,3.04-5.02,1.63-10.21,3.31-15.17,5.19-5.25,2-7.86,5.48-7.98,10.64-.14,5.75,2.38,9.38,7.91,11.4,6.91,2.52,14.01,4.93,21.09,7.16,40.31,12.72,73.52,36.14,98.69,69.61,17.96,23.91,27.3,51.14,35.33,76.99,2.87,9.24,8.13,10.34,11.86,10.34h.07c4.1-.01,9.17-1.19,11.97-10.23,2.58-8.29,5.51-16.98,8.72-25.85,20.94-57.77,60.9-97.64,118.77-118.53,5.28-1.91,10.68-3.67,15.89-5.37,3.58-1.17,7.29-2.38,10.9-3.61,5.75-1.96,8.62-5.65,9.03-11.57-.69-5.86-3.31-9.34-8.46-11.18l-.37-.12c-2.58-.86-5.15-1.71-7.73-2.56-6.26-2.06-12.73-4.2-19.07-6.46-57.04-20.4-96.77-59.5-118.12-116.23-2.29-6.08-4.3-12.31-6.25-18.34-1.24-3.84-2.53-7.82-3.86-11.68-1.94-5.62-5.62-8.35-11.24-8.35Zm.03,299.71l-4.74-10.17c-23.54-50.57-59.43-86.46-109.73-109.74l-10.14-4.69,10.12-4.73c50.58-23.65,86.41-59.53,109.53-109.67l4.67-10.13,4.75,10.09c23.85,50.61,59.8,86.45,109.9,109.58l10.16,4.69-10.13,4.74c-50.67,23.7-86.55,59.63-109.69,109.84l-4.7,10.19Zm-100.46-124.65c44.45,22.77,77.44,55.76,100.41,100.42,22.67-44.38,55.66-77.4,100.4-100.49-44.3-22.66-77.33-55.61-100.55-100.31-22.64,44.34-55.59,77.31-100.27,100.37Z"/>
  </g>
  <g>
    <path class="cls-1" d="m403.18,823.76c-54.33-53.82-108.97-107.32-163.4-161.04-9.47-9.34-20.53-14.48-40.01-14.66-7.06.01-18.51,4.27-27.99,13.78-10.49,10.52-21.25,20.76-31.84,31.17-35.64,35.02-35.81,27.13.42,63.01,61.38,60.77,122.94,121.36,184.29,182.16,1.41,1.4,2.82,2.74,4.24,3.93.17.16.35.3.52.44.23.19.47.38.71.57h.01c.3.24.6.46.91.69h.01c.3.22.61.44.92.64.62.4,1.24.77,1.87,1.1.27.14.53.27.8.38.21.1.41.19.62.27.32.13.64.24.96.35.36.11.71.21,1.07.28.44.1.87.17,1.31.21.35.04.71.06,1.06.06,1.58,0,3.21-.36,4.9-1.16.42-.21.85-.44,1.28-.69.43-.26.87-.55,1.31-.87.44-.31.88-.66,1.33-1.04.45-.38.9-.79,1.36-1.24,18.55-18,37.69-35.5,55.05-54.6,17.84-19.61,16.64-45.55-1.71-63.74Zm-19.55,47.52c-13.78,14.93-27.15,30.24-42.98,47.93-65.67-68.61-131.08-130.73-194.03-196.49,10.99-10.75,28.21-27.54,42.49-41.19,9.88-9.45,20.56-10.01,30.5-.35,54.72,53.2,109.29,106.55,163.87,159.91,10.11,9.89,9.73,19.83.15,30.19Z"/>
    <path class="cls-1" d="m427.99,854.76c-.45-14.02-6.67-27.65-17.5-38.38-32.53-32.24-65.72-64.88-97.81-96.46-21.51-21.16-43.76-43.04-65.6-64.6-12.34-12.18-26.46-17.46-47.21-17.65h-.12c-11.29.02-25.16,6.62-35.33,16.83-6.49,6.5-13.22,13.04-19.73,19.36-3.95,3.84-8.03,7.8-12.04,11.74-3.6,3.54-6.86,6.66-9.73,9.41-12.96,12.39-20.09,19.22-20.12,29.1-.02,9.96,6.86,16.6,20.55,29.84,2.87,2.77,6.12,5.91,9.7,9.46,28.68,28.39,57.87,57.22,86.11,85.1,32.19,31.79,65.49,64.66,98.17,97.05,5.83,5.78,12.83,11.93,22.33,11.93,6.14,0,12-2.67,17.42-7.93,4.51-4.37,9.14-8.81,13.62-13.09,14.02-13.41,28.52-27.28,41.88-41.98,10.4-11.44,15.87-25.55,15.41-39.73Zm-23.1,32.74c-17.36,19.1-36.5,36.6-55.05,54.6-.46.45-.91.86-1.36,1.24-.45.38-.89.72-1.33,1.04s-.88.61-1.31.87c-.43.26-.86.49-1.28.69-1.69.8-3.32,1.16-4.9,1.16-.35,0-.71-.02-1.06-.06-.44-.04-.88-.11-1.31-.21-.36-.07-.71-.17-1.07-.28-.32-.1-.64-.22-.96-.35-.21-.08-.41-.17-.62-.27-.27-.11-.53-.24-.8-.38-.63-.33-1.25-.7-1.87-1.1-.31-.2-.62-.42-.92-.64h-.01c-.31-.23-.61-.45-.91-.69h-.01c-.24-.19-.48-.38-.71-.57-.18-.14-.35-.29-.52-.44-1.42-1.19-2.83-2.53-4.24-3.93-61.35-60.8-122.91-121.39-184.29-182.16-36.23-35.88-36.06-27.99-.42-63.01,10.59-10.41,21.35-20.65,31.84-31.17,9.48-9.51,20.93-13.77,27.99-13.78,19.48.18,30.54,5.32,40.01,14.66,54.43,53.72,109.07,107.22,163.4,161.04,18.35,18.19,19.55,44.13,1.71,63.74Z"/>
  </g>
  <g>
    <path class="cls-1" d="m597.31,782.27c-31.91,0-63.82-.12-95.73.07-9.83.06-19.92-.66-29.15,3.92-8.1,4.02-14.29,1.63-17.18-6.35-3.38-9.35.68-16.52,10.08-19.22,11.13-3.19,22.68-3.83,34.31-3.81,65.47.14,130.95-.37,196.41.28,27.67.27,51.27-8.07,73.16-24.81,77.19-59.06,137.52-132.4,185.51-216.38,8.86-15.51,5.52-24.22-10.99-30.51-29.37-11.18-65.28-1.26-78.51,27.08-19.86,42.57-53.71,66.74-94.84,83.8-8.73,3.62-13.19,7.28-12.67,18.79,1.49,32.61-23.05,58.13-56.07,58.6-56.11.8-112.23.2-168.35.32-9.27.02-17.54-2.6-17.82-12.71-.32-11.17,8.11-13.87,18.17-13.83,51.72.19,103.43.09,155.15.08,4.4,0,8.83.28,13.2-.13,16.52-1.58,27.87-13.47,27.99-29,.11-15.55-10.98-26.9-28.78-27.37-26.39-.7-52.82-.64-79.22-.22-34.71.55-66.19-7.11-92.73-31.26-10.84-9.87-25.04-13.63-39.7-13.79-24.2-.28-48.42-.46-72.62.03-21.63.43-40.81,7.79-56.73,22.85-15.98,15.12-32.04,30.17-47.98,45.34-7.12,6.77-15.04,10.84-22.81,2.25-7.42-8.22-3.7-15.94,3.69-22.77,16.96-15.69,33.22-32.15,50.6-47.34,20.98-18.35,45.83-27.8,73.9-27.94,22.56-.12,45.11,0,67.67-.01,25.55,0,48.75,7.48,69.28,22.58,18.42,13.55,38.77,19.77,61.64,19.29,24.75-.52,49.52.11,74.27-.19,17.5-.22,34.26,2.13,47.85,14.02,5.81,5.08,9.76,1.68,14.56-.42,37.3-16.35,69.11-36.78,88.28-76.45,19.98-41.34,76.76-55.47,117.68-35.02,24.27,12.13,32.98,37.54,19.79,60.98-50.44,89.67-114.65,167.58-196.69,230.44-25.58,19.6-53.79,28.95-85.63,28.86-33.01-.09-66.02-.02-99.03-.02Z"/>
    <path class="cls-1" d="m918.41,452.74c13.97,0,27.96,3.02,40.47,9.27,24.27,12.13,32.98,37.54,19.79,60.98-50.44,89.67-114.65,167.58-196.69,230.44-25.45,19.5-53.52,28.86-85.17,28.86-.16,0-.31,0-.46,0-12.83-.04-25.67-.05-38.5-.05-20.18,0-40.36.03-60.54.03-.33,0-.66,0-.99,0-17.35,0-34.7-.03-52.06-.03-14.23,0-28.46.02-42.69.11-.45,0-.9,0-1.35,0-1.61,0-3.22-.01-4.84-.01-7.82,0-15.65.31-22.96,3.93-2.59,1.29-4.99,1.92-7.15,1.92-4.58,0-8.07-2.84-10.03-8.27-3.38-9.35.68-16.52,10.08-19.22,10.92-3.14,22.26-3.81,33.68-3.81.21,0,.43,0,.64,0,8.61.02,17.22.03,25.82.03,29.94,0,59.88-.09,89.82-.09,26.93,0,53.85.07,80.77.34.44,0,.88,0,1.32,0,27.11,0,50.3-8.34,71.84-24.82,77.19-59.06,137.52-132.4,185.51-216.38,8.86-15.51,5.52-24.22-10.99-30.51-7.91-3.01-16.31-4.49-24.6-4.5-22.48,0-44.24,10.87-53.9,31.57-19.86,42.57-53.71,66.74-94.84,83.8-8.73,3.62-13.19,7.28-12.67,18.79,1.49,32.61-23.05,58.13-56.07,58.6-23.36.33-46.72.42-70.09.42-27.22,0-54.45-.12-81.67-.12-5.53,0-11.06,0-16.59.02-.04,0-.07,0-.11,0-9.23,0-17.43-2.64-17.72-12.71-.32-11.09,8-13.83,17.97-13.83.07,0,.13,0,.2,0,24.58.09,49.16.11,73.74.11,27.14,0,54.27-.03,81.41-.03h.01c2.54,0,5.08.09,7.62.09,1.86,0,3.72-.05,5.56-.23,16.52-1.58,27.87-13.47,27.99-29,.11-15.55-10.98-26.9-28.78-27.37-14.12-.37-28.25-.53-42.38-.53-12.28,0-24.56.12-36.84.31-1.14.02-2.28.03-3.41.03-33.37,0-63.65-7.93-89.31-31.29-10.84-9.87-25.04-13.63-39.7-13.79-13.27-.15-26.55-.27-39.83-.27-10.93,0-21.86.08-32.79.3-21.63.43-40.81,7.79-56.73,22.85-15.98,15.12-32.04,30.17-47.98,45.34-4.25,4.04-8.78,7.12-13.4,7.12-3.12,0-6.28-1.41-9.41-4.87-7.42-8.22-3.7-15.94,3.69-22.77,16.96-15.69,33.22-32.15,50.6-47.34,20.98-18.35,45.83-27.8,73.9-27.94,7.72-.04,15.45-.05,23.17-.05,14.01,0,28.02.04,42.03.04.82,0,1.65,0,2.47,0,.02,0,.03,0,.05,0,25.54,0,48.71,7.49,69.23,22.58,17.77,13.06,37.32,19.32,59.2,19.32.81,0,1.62,0,2.44-.03,7.84-.16,15.69-.21,23.53-.21,11.62,0,23.23.11,34.85.11,5.3,0,10.6-.02,15.89-.09.7,0,1.4-.01,2.09-.01,16.74,0,32.71,2.61,45.76,14.03,2.24,1.96,4.2,2.66,6.04,2.66,2.94,0,5.57-1.78,8.52-3.08,37.3-16.35,69.11-36.78,88.28-76.45,13.87-28.7,45.49-44.29,77.21-44.29h0Zm0-10.39c-17.85,0-35.25,4.38-50.31,12.67-16.17,8.89-28.7,21.86-36.26,37.49-18.88,39.06-51.09,57.42-83.09,71.45-.96.42-1.83.85-2.59,1.23-.39.19-.85.42-1.27.61-16.76-14.46-36.73-16.33-52.29-16.33-.74,0-1.48,0-2.22.01-4.74.06-9.9.09-15.76.09s-11.68-.03-17.38-.05c-5.72-.03-11.64-.05-17.47-.05-9.18,0-16.73.07-23.75.22-.74.02-1.48.02-2.22.02-19.86,0-37.21-5.66-53.04-17.3-22.2-16.32-47.57-24.6-75.39-24.6h-2.52c-7,0-14-.01-21-.02-7.01-.01-14.02-.02-21.03-.02-8.87,0-16.25.02-23.22.05-30.57.16-57.71,10.43-80.69,30.51-10.93,9.55-21.51,19.69-31.75,29.49-6.23,5.96-12.67,12.13-19.07,18.05-5.68,5.25-9.09,10.5-10.44,16.04-1.27,5.24-1.25,13.19,6.09,21.33,6.2,6.86,12.73,8.3,17.12,8.3,6.77,0,13.5-3.27,20.56-9.98,9.64-9.17,19.48-18.45,29.01-27.43,6.32-5.96,12.64-11.92,18.95-17.89,13.62-12.89,30.37-19.62,49.79-20.01,10.08-.2,20.73-.3,32.58-.3,13.85,0,27.85.14,39.71.27,13.87.16,24.92,3.89,32.83,11.09,13.29,12.1,28.61,21.04,45.52,26.59,15.19,4.98,31.8,7.4,50.78,7.4,1.19,0,2.38,0,3.58-.03,13.21-.21,25.21-.31,36.67-.31,14.97,0,28.74.17,42.1.53,11.76.31,18.74,6.63,18.66,16.91-.07,10.3-7.37,17.66-18.58,18.73-1.29.12-2.74.18-4.57.18-1.17,0-2.36-.02-3.62-.05-1.3-.02-2.64-.05-4-.05-12.76,0-25.51,0-38.25.02-14.39,0-28.78.02-43.17.02-29,0-52.42-.04-73.7-.11h-.24c-10.09,0-17.39,2.46-22.32,7.53-2.89,2.97-6.29,8.34-6.04,16.99.23,8.2,4,14.87,10.6,18.78,4.58,2.71,10.3,4.03,17.51,4.03h.14c5.51-.01,11.04-.02,16.56-.02,13.6,0,27.43.03,40.81.06,13.39.03,27.23.06,40.86.06,27.64,0,49.96-.13,70.23-.42,19-.27,36.3-7.67,48.71-20.85,12.18-12.94,18.43-30.2,17.59-48.62-.13-2.76.15-4.79.74-5.58.95-1.24,4.39-2.67,5.52-3.14,23.43-9.72,42.43-20.83,58.09-33.97,18.25-15.31,32.05-33.32,42.18-55.04,7.36-15.78,24.41-25.58,44.48-25.57,7.22,0,14.26,1.28,20.91,3.81,7.63,2.9,8.79,5.22,8.95,5.66.16.43.73,2.96-3.28,9.98-50.16,87.78-109.95,157.54-182.8,213.28-20.22,15.47-41.05,22.68-65.53,22.68-.4,0-.81,0-1.21,0-23.56-.23-48.5-.34-80.87-.34-14.97,0-29.95.02-44.92.04-14.96.02-29.93.04-44.89.04-8.6,0-17.2,0-25.8-.03h-.66c-10.82,0-23.62.5-36.54,4.21-7.59,2.18-13.24,6.53-16.33,12.58-2.12,4.16-3.96,11.03-.66,20.16,3.42,9.47,10.83,15.13,19.81,15.13,3.8,0,7.75-1.01,11.76-3,5.31-2.63,11.7-2.85,18.34-2.85.79,0,1.59,0,2.38,0,.82,0,1.64,0,2.46,0,.47,0,.94,0,1.41,0,12.34-.07,25.89-.11,42.62-.11,8.67,0,17.34,0,26.02.02,8.68,0,17.36.02,26.04.02h.99c9.81,0,19.61,0,29.41-.01,10.37,0,20.75-.01,31.12-.01,14.77,0,26.99.02,38.47.05h.49c34.34,0,64.27-10.14,91.49-31,40.61-31.12,78.23-67.02,111.81-106.7,32.16-38,61.64-80.7,87.62-126.89,7.59-13.49,9.46-28.43,5.28-42.07-4.33-14.13-14.81-25.96-29.49-33.3-13.57-6.78-29.17-10.37-45.11-10.37h0Z"/>
  </g>
</svg>