<?xml version="1.0" encoding="UTF-8"?>
<svg id="Layer_1" data-name="Layer 1" xmlns="http://www.w3.org/2000/svg" viewBox="0 0 1080 1080">
  <defs>
    <style>
      .cls-1 {
        fill: #383838;
        stroke-width: 0px;
      }
    </style>
  </defs>
  <path class="cls-1" d="m802.39,990.4c-60.1,0-89.51-12.3-120.46-25.34-33.22-13.84-70.66-29.75-141.85-29.75s-108.7,15.78-141.85,29.75c-31.15,13.04-60.43,25.34-120.46,25.34s-89.31-12.3-120.46-25.34c-28.23-11.76-59.51-25.02-111.96-28.73-16.08-1.14-29.89,11.32-29.89,27.44v.02c0,14.35,11.05,26.45,25.37,27.42,43.7,2.94,68.84,13.47,95.09,24.53,33.22,13.84,70.66,29.75,141.85,29.75s108.7-15.78,141.85-29.75c31.15-13.04,60.43-25.34,120.46-25.34s89.51,12.3,120.46,25.34c33.22,13.84,70.66,29.75,141.85,29.75s108.7-15.78,141.85-29.75c26.41-11.05,51.48-21.58,95.1-24.52,14.31-.97,25.37-13.07,25.37-27.42v-.03c0-16.11-13.8-28.57-29.87-27.44-52.48,3.69-83.8,16.87-111.98,28.74-31.15,13.04-60.43,25.34-120.46,25.34Z"/>
  <path class="cls-1" d="m922.91,568.38c-27.41,11.5-53.54,22.39-100.61,24.8V194.29c0-51.82,36.95-95.25,85.87-105.3,12.52-2.57,21.62-13.4,21.62-26.18v-.62c0-17.6-16.22-30.63-33.45-27.01-73.65,15.47-129.13,80.93-129.13,159.12v46.95c0,15.2-12.32,27.52-27.52,27.52h-140.56c-15.2,0-27.52-12.32-27.52-27.52v-46.95c0-51.82,36.95-95.25,85.87-105.3,12.52-2.57,21.62-13.4,21.62-26.18v-.62c0-17.6-16.22-30.63-33.45-27.01-73.65,15.47-129.13,80.93-129.13,159.12v344.98s-.02.03-.03.03c-56.27,3.08-89.15,16.78-118.43,29.08-31.15,13.04-60.43,25.34-120.46,25.34s-89.31-12.3-120.46-25.34c-28.3-11.79-59.66-25.08-112.34-28.76-15.94-1.11-29.51,11.49-29.51,27.47v.02c0,14.45,11.19,26.45,25.61,27.43,43.55,2.96,68.65,13.47,94.86,24.51,33.22,13.84,70.66,29.75,141.85,29.75s108.7-15.78,141.85-29.75c31.15-13.04,60.43-25.34,120.46-25.34s89.51,12.3,120.46,25.34c33.22,13.84,70.66,29.75,141.85,29.75s108.7-15.78,141.85-29.75c26.37-11.03,51.39-21.54,94.86-24.51,14.42-.98,25.6-12.98,25.6-27.43v-.03c0-15.98-13.56-28.57-29.5-27.47-52.71,3.65-84.11,16.86-112.36,28.77h.21Zm-155.56-217.01v35.47c0,15.2-12.32,27.52-27.52,27.52h-140.56c-15.2,0-27.52-12.32-27.52-27.52v-35.47c0-15.2,12.32-27.52,27.52-27.52h140.56c15.2,0,27.52,12.32,27.52,27.52Zm-195.61,188.4v-42.8c0-15.2,12.32-27.52,27.52-27.52h144.57c12.98,0,23.51,10.53,23.51,23.51v66.82c0,17.76-16.6,30.94-33.87,26.78-19.75-4.76-35.4-11.35-51.49-18.18-27.88-11.63-58.89-24.67-110.23-28.61h0Z"/>
  <path class="cls-1" d="m802.39,792.05c-60.1,0-89.51-12.3-120.46-25.34-33.22-13.84-70.66-29.75-141.85-29.75s-108.7,15.78-141.85,29.75c-31.15,13.04-60.43,25.34-120.46,25.34s-89.31-12.3-120.46-25.34c-28.23-11.76-59.51-25.02-111.96-28.73-16.08-1.14-29.89,11.32-29.89,27.44v.02c0,14.35,11.05,26.45,25.37,27.42,43.7,2.94,68.84,13.47,95.09,24.53,33.22,13.84,70.66,29.75,141.85,29.75s108.7-15.78,141.85-29.75c31.15-13.04,60.43-25.34,120.46-25.34s89.51,12.3,120.46,25.34c33.22,13.84,70.66,29.75,141.85,29.75s108.7-15.78,141.85-29.75c26.41-11.05,51.48-21.58,95.1-24.52,14.31-.97,25.37-13.07,25.37-27.42v-.03c0-16.11-13.8-28.57-29.87-27.44-52.48,3.69-83.8,16.87-111.98,28.74-31.15,13.04-60.43,25.34-120.46,25.34Z"/>
</svg>