<?xml version="1.0" encoding="UTF-8"?>
<svg id="Layer_1" data-name="Layer 1" xmlns="http://www.w3.org/2000/svg" viewBox="0 0 1080 1080">
  <defs>
    <style>
      .cls-1 {
        fill: #383838;
        stroke-width: 0px;
      }
    </style>
  </defs>
  <path class="cls-1" d="m309.76,473.88c-68.25-62.02-89.76-140.36-92.65-225.94-.94-27.79,6.08-34.88,33.99-36.16,52.49-2.42,103.01,6.84,151.68,26.49,5.44,2.2,10.91,4.35,16.39,6.43.49.18,1.22-.28,3.6-.92,2.99-7.23,6.47-15.48,9.84-23.78,18.52-45.51,45.31-85.5,80.25-120.04,21.42-21.17,31.5-21.31,52.56-.57,37.44,36.87,65.21,80.08,84.22,128.99,2.11,5.43,4.21,10.86,5.79,14.92,36.06-9.55,70.86-20.73,106.49-27.52,23.51-4.48,48.24-3.71,72.4-3.35,20.41.3,28.69,9.34,28.19,29.51-2.12,86.34-21.22,166.25-88.51,227.33-.76.69-.76,2.22-1.86,5.75,18.17,0,35.66.87,53.04-.13,165.78-9.55,266.85,166.63,176.61,302.66,10.04,20.65,22.98,39.47,28.64,60.27,21.93,80.55-38.14,157.21-123.15,157.76-116.01.76-232.03.21-348.04.2-85.21,0-170.42.76-255.62-.23-145.61-1.7-260.49-118.92-259.25-263.28,1.16-134.76,107.11-247.16,241.57-256.29,6.97-.47,13.93-1.21,23.8-2.08Zm316.43,285.56c101.63,0,203.27-.43,304.89.44,16.19.14,25.02-5.67,32.9-18.66,57.21-94.34-9.42-214.65-121.86-215.63-179.64-1.58-359.32-1.48-538.96-.03-114.08.92-205.55,91.73-207.87,202.16-2.56,121.94,90.09,216.95,212.59,217.18,167.2.32,334.4.09,501.6.08,33.44,0,66.89.52,100.32-.19,44.16-.93,76.73-36.05,74.57-79.28-1.83-36.7-21.46-55.65-57.66-55.65-198.67,0-397.34,0-596.02-.04-8.51,0-17.08.01-25.53-.87-54.25-5.65-90.52-47.48-88.27-101.5,2.09-50.21,43.04-89.62,96.09-89.79,173.75-.53,347.51-.27,521.27-.17,20.46.01,31.36,8.79,31.73,24.26.36,15.29-11.02,24.91-30.61,25.69-5.89.23-11.8.08-17.7.08-162.61,0-325.22-.02-487.83.06-8.5,0-17.13-.05-25.46,1.35-22.18,3.73-36.85,21.68-36.96,44.12-.14,28.12,19.63,46.24,51.94,46.31,102.29.23,204.57.08,306.86.09Zm-86.89-611.92c-97.35,96.1-95.85,220.67.07,314,96.01-93.32,97.36-218.35-.07-314Zm270.79,114.2c-45.24.69-86.49,10.58-126.06,29.43-13.99,6.67-20.5,15.08-21.77,30.76-3.9,47.96-21.42,91.28-48.53,130.83-4.27,6.23-8.74,12.34-13.69,19.32,115.69,17.28,208.89-80.84,210.05-210.33Zm-330.19,211.09c-39.85-49.58-60.88-104.19-65.92-165.09-.3-3.65-3.88-8.35-7.24-10.22-42.33-23.62-87.68-35.59-136.32-35.38-2.73,112.84,80.79,226.32,209.48,210.7Z"/>
</svg>